<mxfile host="app.diagrams.net" modified="2024-06-24T12:23:32.192Z" agent="Mozilla/5.0 (Macintosh; Intel Mac OS X 10_15_7) AppleWebKit/537.36 (KHTML, like Gecko) Chrome/126.0.0.0 Safari/537.36" version="24.5.4" etag="DCasssHtqHEaSTZD_XF1" type="device">
  <diagram id="O3wlB_l2giG0m4VujFkk" name="Page-1">
    <mxGraphModel dx="2264" dy="862" grid="1" gridSize="10" guides="1" tooltips="1" connect="1" arrows="1" fold="1" page="1" pageScale="1" pageWidth="850" pageHeight="1100" math="0" shadow="0">
      <root>
        <mxCell id="0" />
        <mxCell id="1" parent="0" />
        <mxCell id="wN92c6FpwxX0wYjV1YP4-19" style="rounded=0;orthogonalLoop=1;jettySize=auto;html=1;exitX=0;exitY=0;exitDx=0;exitDy=52.5;exitPerimeter=0;entryX=1;entryY=0.75;entryDx=0;entryDy=0;" edge="1" parent="1" source="wN92c6FpwxX0wYjV1YP4-1" target="wN92c6FpwxX0wYjV1YP4-9">
          <mxGeometry relative="1" as="geometry" />
        </mxCell>
        <mxCell id="wN92c6FpwxX0wYjV1YP4-1" value="" style="shape=cylinder3;whiteSpace=wrap;html=1;boundedLbl=1;backgroundOutline=1;size=15;" vertex="1" parent="1">
          <mxGeometry x="-110" y="295" width="60" height="80" as="geometry" />
        </mxCell>
        <mxCell id="wN92c6FpwxX0wYjV1YP4-16" style="rounded=0;orthogonalLoop=1;jettySize=auto;html=1;exitX=1;exitY=0;exitDx=0;exitDy=0;entryX=0;entryY=1;entryDx=0;entryDy=0;startArrow=classic;startFill=1;" edge="1" parent="1" source="wN92c6FpwxX0wYjV1YP4-6" target="wN92c6FpwxX0wYjV1YP4-7">
          <mxGeometry relative="1" as="geometry" />
        </mxCell>
        <mxCell id="wN92c6FpwxX0wYjV1YP4-24" style="rounded=0;orthogonalLoop=1;jettySize=auto;html=1;exitX=0;exitY=0.25;exitDx=0;exitDy=0;startArrow=classic;startFill=1;endArrow=none;endFill=0;" edge="1" parent="1" source="wN92c6FpwxX0wYjV1YP4-6" target="wN92c6FpwxX0wYjV1YP4-23">
          <mxGeometry relative="1" as="geometry" />
        </mxCell>
        <mxCell id="wN92c6FpwxX0wYjV1YP4-6" value="" style="swimlane;startSize=0;shadow=0;" vertex="1" parent="1">
          <mxGeometry x="-660" y="290" width="90" height="90" as="geometry" />
        </mxCell>
        <mxCell id="wN92c6FpwxX0wYjV1YP4-4" value="" style="shape=image;verticalLabelPosition=bottom;labelBackgroundColor=default;verticalAlign=top;aspect=fixed;imageAspect=0;image=data:image/png,iVBORw0KGgoAAAANSUhEUgAAApoAAAF3CAYAAAAFPus+AAAAAXNSR0IArs4c6QAAIABJREFUeF7snQeYVeWd/7+n3jqdoWPHHk2Ma/wbs7vGaKyx0DsIKLEmsRdAxIA1MVFAaUPvoGis0STrbtysmzWW2GMFZCjTZ2459f/83nPOnQsShTucYWb83efxUeGe957zOW/5vr/2SuAPE2ACTIAJMAEmwASYABMIgYAUQpvcJBNgAkyACTABJsAEmAATAAtN7gRMgAkwASbABJgAE2ACoRBgoRkKVm6UCTABJsAEmAATYAJMgIUm9wEmwASYABNgAkyACTCBUAiw0AwFKzfKBJgAE2ACTIAJMAEmwEKT+wATYAJMgAkwASbABJhAKARYaIaClRtlAkyACTABJsAEmAATYKHJfYAJMAEmwASYABNgAkwgFAIsNEPByo0yASbABJgAE2ACTIAJsNDkPsAEmAATYAJMgAkwASYQCgEWmqFg5UaZABNgAkyACTABJsAEWGhyH2ACTIAJMAEmwASYABMIhQALzVCwcqNMgAkwASbABJgAE2ACLDS5DzABJsAEmAATYAJMgAmEQoCFZihYuVEmwASYABNgAkyACTABFprcB5gAE2ACTIAJMAEmwARCIcBCMxSs3CgTYAJMgAkwASbABJgAC03uA0yACTABJsAEmAATYAKhEGChGQpWbpQJMAEmwASYABNgAkyAhSb3ASbABJgAE2ACTIAJMIFQCLDQDAUrN8oEmAATYAJMgAkwASbAQpP7ABNgAkyACTABJsAEmEAoBFhohoKVG2UCTIAJMAEmwASYABNgocl9gAkwASbABJgAE2ACTCAUAiw0Q8HKjTIBJsAEmAATYAJMgAmw0OQ+wASYABNgAkyACTABJhAKARaaoWDlRpkAE2ACTIAJMAEmwARYaHIfYAJMgAkwASbABJgAEwiFAAvNULByo0yACTABJsAEmAATYAIsNLkPMAEmwASYABNgAkyACYRCgIVmKFi5USbABJgAE2ACTIAJMAEWmtwHmAATYAJMgAkwASbABEIhwEIzFKzcKBNgAkyACTABJsAEmAALTe4DTIAJMAEmwASYABNgAqEQYKEZClZulAkwASbABJgAE2ACTICFJvcBJsAEmAATYAJMgAkwgVAIsNAMBSs3ygSYABNgAkyACTABJsBCk/sAE2ACTIAJMAEmwASYQCgEWGiGgpUbZQJMgAkwASbABJgAE2ChyX2ACTABJsAEmAATYAJMIBQCLDRDwcqNMgEmwASYABNgAkyACbDQ5D7ABJgAE2ACTIAJMAEmEAoBFpqhYOVGmQATYAJMgAkwASbABFhoch9gAkyACTABJsAEmAATCIUAC81QsHKjTIAJMAEmwASYABNgAiw0uQ8wASbABJgAE2ACTIAJhEKAhWYoWLlRJsAEmAATYAJMgAkwARaa3AeYABNgAkyACTABJsAEQiHAQjMUrNwoE2ACTIAJMAEmwASYAAtN7gNMgAkwASbABJgAE2ACoRBgoRkKVm6UCTABJsAEmAATYAJMgIUm9wEmwASYABNgAkyACTCBUAiw0AwFKzfKBJgAE2ACTIAJMAEmwEKT+wATYAJMgAkwASbABJhAKARYaIaClRtlAkyACTABJsAEmAATYKHJfYAJMAEmwASYABNgAkwgFAIsNEPByo0yASbABJgAE2ACTIAJsNDkPsAEmAATYAJMgAkwASYQCgEWmqFg5UaZABNgAkyACTABJsAEWGhyH2ACTIAJMAEmwASYABMIhQALzVCwcqNMgAkwASbABJgAE2ACLDS5DzABJsAEmAATYAJMgAmEQoCFZihYuVEmwASYABNgAkyACTABFprcB5gAE2ACTIAJMAEmwARCIcBCMxSs3CgTYAJMgAkwASbABJgAC03uA0yACTABJsAEmAATYAKhEGChGQpWbpQJMAEmwASYABNgAkyAhSb3ASbABJgAE2ACTIAJMIFQCLDQDAUrN8oEmAATYAJMgAkwASbAQpP7ABNgAkyACTABJsAEmEAoBFhohoKVG2UCTIAJMAEmwASYABNgocl9gAkwASbABJgAE2ACTCAUAiw0Q8HKjTIBJsAEmAATYAJMgAmw0OQ+wASYABNgAkyACTABJhAKARaaoWDlRpkAE2ACTIAJMAEmwARYaHIfYAJMgAkwASbABJgAEwiFAAvNULByo0yACTABJsAEmAATYAIsNLkPMAEmwASYABNgAkyACYRCgIVmKFi5USbABJgAE2ACTIAJMAEWmtwHmAATYAJMgAkwASbABEIhwEIzFKzcKBNgAkyACTABJsAEmAALTe4DTIAJMAEmwASYABNgAqEQYKEZClZulAkwASbABJgAE2ACTICFJvcBJsAEmAATYAJMgAkwgVAIsNAMBSs3ygSYABNgAkyACTABJsBCk/sAE2ACTIAJMAEmwASYQCgEWGiGgpUbZQJMgAkwASbABJgAE2ChyX2ACTABJsAEmAATYAJMIBQCLDRDwcqNMgEmwASYABNgAkyACbDQ5D7ABJgAE2ACTIAJMAEmEAoBFpqhYOVGmQATYAJMgAkwASbABFhoch9gAkyACTABJsAEmAATCIUAC81QsHKjTIAJMAEmwASYABNgAiw0uQ8wASbABJgAE2ACTIAJhEKAhWYoWLlRJsAEmAATYAJMgAkwARaa3AeYABNgAkyACTABJsAEQiHAQjMUrNwoE2ACTIAJMAEmwASYAAtN7gNMgAkwASbABJgAE2ACoRBgoRkKVm6UCTABJsAEmAATYAJMgIUm9wEmwASYABNgAkyACTCBUAiw0AwFKzfKBJgAE2ACTIAJMAEmwEKT+wATYAJMgAkwASbABJhAKARYaIaClRtlAkyACTABJsAEmAATYKHJfYAJMAEmwASYABNgAkwgFAIsNEPByo0yASbABJgAE2ACTIAJsNDkPsAEmAATYAJMgAkwASYQCgEWmqFg5UaZABNgAkyACTABJsAEWGhyH2ACTIAJMAEmwASYABMIhQALzVCwcqNMgAkwASbABJgAE2ACLDS5DzABJsAEmAATYAJMgAmEQoCFZihYuVEmwASYABNgAkyACTABFprcB5gAE2ACTIAJMAEmwARCIcBCMxSs3CgTYAJMgAkwASbABJgAC03uA0yACTABJsAEmAATYAKhEGChGQpWbpQJMAEmwASYABNgAkyAhSb3ASbABJgAE2ACTIAJMIFQCLDQDAUrN8oEmAATYAJMgAkwASbAQpP7ABNgAkyACTABJsAEmEAoBFhohoKVG2UCTIAJMAEmwASYABNgocl9gAkwASbABJgAE2ACTCAUAiw0Q8HKjTIBJsAEmAATYAJMgAmw0OQ+wASYABNgAkyACTABJhAKARaaoWDlRpkAE2ACTIAJMAEmwARYaHIfYAJMgAkwASbABJgAEwiFAAvNULByo0yACTABJsAEmAATYAIsNLkPMAEmwAT2gcAn7ifRQ6VDM/twCX+VCTABJvCNJfCNEZqvu6/3+es7fzvtg88+/FEmk5FVF+LZdUtxo7pmHn5U/xdGHTvuiW9sTwjpwZf8rWrQB5//46ysk1Fs14QLSZIjqmRk0ogpUfNfDv9/zw361qANIf18uzf7eur1PitfXDkt5abikiJJgCwblikpMR2OY0KSJNe2bEQjumsYBiBJbnCTElxvPEr0LdBfSI7tSJIESdN1ybJMak40m0lnEY1FYJqmuEZVNdGOaFP8v0LfhW1aLn0vk85IsqxAUmRYhgld18X3HMfJ/T7c1ntxJVf8uQxJtBmNRV3TtKDIkms7DqKRiGtYNuAAEU2HZRiwXEvSIlEplU4hEo0D1LRlQ1cirpnNyEVqUfaSMy65/pTkKdXt/mL24w++sOOF3q/89ytTW+wm1VFdWLAkTVaQbk6hJFmRPe/fz5t+euL0L/bjT+5TU6+kXunz9Iu/m9JituiK5LpqJArJkM0TjzrpD8OOHbx6nxrjL+8VgddaXuv9/mfv/+D1N/96jhrVFFtxkDHSrmNJ9vf/5fvPDTlsyJq9aiiEL1F/+Pizf/zbux+++6NmIy3RyheJqvZhBx/x0pnHnfmf/aX+m13X9WYd/uw3AiveXTHstfffPguKJDu24zqWJRXH4s4RfQ9+4YT+R/3nt+OnbdlvP9bBG/pGCM0X3Bd6XzZjwubmWIuUklOI6hFEWhRotgpHcmC7BiQZ0G3dveWyWwdc3eMXj//R/aN6hnSG1cHfX4e+vfEvjZ77/KvPTsyqJmxZgkuyxYWQU65sQnYUFDlFuGbstcOP6nbUyxdKF3b6gffTFyfNe+L1tRPq3XpEYlHImShcqMiqDlzZgurYUPKnc1fu0O/wq27OkeidqlBcRzyXRJJLBmxJhQvF08y2hUhER8bMQHOiOPfb5y1b/qPFozrrQ497cdy83//f7yeklDRc1YJkS3Bgw0YGET0GmBFomSjOO+WC+Qt+NGdiez7no5/PGzZz/swVRiILQ0vDQhZyRIGZcaC6OhJuEdR6DTdNvGHAdw/+9p/VOjVzcvnJDe15j13xt8b+YfzcP/3nSxOhO3A0G81WE1zVBWQJcGRoho7zT7+g6uIfDL3jIunsdt2ADPv94Ll/efvliTWNdYgVJWFAgmnb0FUJtmVAVnQkzRIsunF+3zOlM7d82vJpr0MSh2ztiu+pvZ7pZfe5Xgv/Y/XdT//5ucsMzYWkqbAsC7QZVSUZ2cZGdCsuxfe+9S8LV561bnx73deB/J0uLTSPvuH4tKVlokaxgS+0alilJhB1ARNAA5CIxWBKJhzJgpUBymMJONUOytLluHvifeePOGTEMwfy5XTG36ad8Uk3n2I1l9XI1fIWWEkDWdUlwxfgiw9hBpNdyA7gpoComUCl1hOolt119yzvfYrUeS1eB93Ty90c3wonQeZCQLY1wFXgqDYgm+LP4AtN2fX+t9N+yGALVTyPTtZaAKYMOGJW0cRjaaoEM22I/1VkHRXpHjjv0PMWLbrgsXGd6bmv3Xj1oufefmZMTawBNagFkvR+yeYM6LoMw3AAC1AUGUjpiKQS6Cl3R1GjhsUzHu37bSk868UNz18/a81L669MJ7NQemqoTm2BnHDhKA6QBRCF+LfkRBBJx1DulCCZjeCsE8+cP+6H46ecnDiZhcU+dsal7y0d/Msl969sKm+Ud1jbIWmAGnHRYqUh6YCaAExaZ+iTAUrtciRakihNleHmsTcNG33EiFX7+JN7/fVXdr7S56cP/2LzJvlToGcKdVYjNA2QVAXZDM1DgKLLsC1HrIWalEB5Qyl6ZCpxzjE/uv++oQ/ctNc/xl/MEah6Z/6o32z47ZLNzmakElmgVEXKTAO6AmSzYr6IRBJwbBOOkUWJXgLsdNGzpYf7zowPO6/FYS/6QJcVmg99/PCgh1Y9tMaNAdtT1Yh211Bn1HvrH73SLCArJAAcwHAR0+JI16TQrbQMWlZDttrAiDNGPPjw2bNu2AuO/BUAf3H/0nfi1J9uSpe0YLtbDTdpIu1mfOGh+owcMnOJBZqEZtTVoUsJNNcaKJcqMOiUgYuG/b+Bd5zWCd0Ki75YMOK6qmuXpSpScCIubPJ0O57gcmQLwpxLn10smp246+SEpmfRpGFFFs18oYmsiXixjlTGAAwgYZShZ2MPfDTtvU4z95x2x78626JbpB3adphxF1qJisbaeihxwDYAJea9Wpf2sXIEKmKwHBWKqUNrAYobY/hk5kehPO9T7lN9xt49YbOUVEHemoychhIFTCOTm+u0iAqTRHHKhh4tgZQFsjtbcFCyHyLbo7hjxC0Xn3zsyc8eJx3nxV3w52sJHHz3kU5NUa3kaCag0A6DdIQBg8JbNMAhgz5F8aoUCSNDafG8N8XZEki1Du78xdThY3tetvJrf2gfv7Dk3SXD71/54PKaono0xhvRbNUBOvVLwLEVGDbtjBSomgkn6yCCIjFgFZjQ0iq6Z3ug6rbH+p4mndnpvUv7iK5NX7/2dz+f/8R/bxyfLc8ik0yjyW2CQxOCDKiaDNdwxHqgqhJFP8GwvU1gaaQMRc3FuOS4i+b/9vzftqsHpE0PvI8XhzL57eM97Nevv1n/ZtnfdvzPmVNXz1hbo9XCjjgwpAwkxYWsA1nLErtPGlpO1vYmY02FbkagugpS6UYR3xZToihqKcYl3xr44LhTxkxnF9NXvyayZB57y/HOtsRWNMQaoJbKyGZMyBrNuDL5ykWYAiQLMkVqkn3ToX8oZCgCy3GhGVGUZMsw4LuXLnz4x7/qdC6FQ+462G0oq0Wj1gSbcJF1y5HIeCvEtSfA6L/zxGZnjooSQpPkJQlN70FIaHrPR5Zcet0mZAWwVVqLFcQzpaho7oZPb3m/U8w91K8PufsIpyayDZmkCcshZalAkxyxYNA+wqR5xCXLEKCYMrKmC1cls5EGTY4i2RTDuhuXCdfk/pzsXnJf6jPqwVGb66MNSFmGUBORmI5sUxMkBVAVGa7kwGqBZ4ENNjmCvAQto6PcqEBiZwwfzwhHCO/P5+0obV3+7FUrl763cmg6UU9BzhCDnbo/rSs01ZGbQgKkKOAGwVcZ2lRHETfjUFKA22Tjl9fcPeKK3tes2B/P9bb7tv7qp69eOn3+XStTpS3YrtXDiRliE+RkASVNglcBtBgsyQLcjAjhkUwydwOmlhEb/6J0EpWpnlh3w5K+dbHsNg4f+/q3M+75SQte/OsLl2WTBhq1RmScRk9XEFoKw3fEfkP48ywLsGieoPlQV2HUWUhIpShuKcGlpw1YNOuMX3UqT8/X02ld8vb2u53ie6+6r/YcOXnY1pryWmSLM2i20ogmYsjUpSkAGoZhiUkYqiI8X2JRpMnCAORYBI6VgZLQYBsmlGYJ3VPdMW3E9IsuP+jyJzsFgAN0kz978hdV695ZPXZ7cTWMhO2FJ5DoMEloqXDof2iCI2sm4Rcik7SYilTKQrRMF65VcydQ3lKGdZNX9jldOnAJFfuC8Z2Wd3qdM/OcTduLtisosZGlpCeXEm8UuJIJuK54XopNtQMhFiz6nVloisHjCU3FN9OK5xPPRmYdIC67SGUsIEIeBEBqiaCkpRSXnTZ62QP/fn+HjtW84rnxVY//z+/GpsoySCdbYFP/lVWg0UJRPA4za8CUXNiuLVYShcSdTRYLFQbFqpoWQIIzHUHflm4YePxFSx86/+HR+9K39vTdz+rfLHvgTwvuXPPm2msb4tXIxh3hrhXzGXlqYipcmucoTFBVYJESopWO8r9o+JH4ISOcLuLSKWQF408ZXfXI2XMva+u9dfXrD7nrYHtneYPcLLcASQXwLcei25OjxgVsYkxi099ji3cS9wwbOrzcgLgcgbJdw7rJG/fLPPcX9y89Lr310mqjRwaN8QYYurf5ER/qhhS9IsfgaioydM+uCT0KOJYMy3EQT+jIZAzE5CjM7Rb62v2wZPLS/XJvXblPDH9h/LyNrz85wY6YMJUsbAqdKPM2HE7Gmy6ctDdLRiISbNuFSf1D5Cl4XlXXkBBHMdxtDnrYPfHJ9M7j7dnbd9sprAp7+zD0vd989Jvh9224b3ldrBop2fYGO/1DwscCYjFdjL9MlpQlxdVEIbJ5SWySSYL+nef2SLRE0cPoiRvOvemSK0+4krPS9/AyKNN68D1DNm8t/QJNZU3eokYTLXkOLAmSq8Km7TJt7ci85wIqrdn0nzKlkLgUxihcTXJUQ7KpGD0bemLRnfMqTpNOq92X938gvjv79dkjf/mnXy7dWbQD2YwBJaJCsjVYDi3whhfD6Fs9DJVMHb7KpI7YqYWmyJAXz0BCk4R0zmrraOL9qrZJhj1kyNJDY9BVEE8VoXtLNyyY8th+t/Ltj/e/adOm2HPW0z+ZvmrGqvqiBjSqDZ51Qmyc6Jl1KGkyTZCXJAJTolWcdhKeBYM+5D1xFNpZkKlTR6xeQ4+GcswcMm3o6T2/9/t+Jce1qV8ffdex7vay7cjodUDERorctGREVVXYGUtYWzUtgmw6AzWmwiLRSx8yalH8YNoXnRIQc1SUbCvFncPu/smk/pOe2h8Mu1obNMc99p9z7ln+/rKRjUoL1PIkrJ3NQLE/19F7p/BH2kxBpmoOgELJcjQIJBGelVuHTCBWLEPZqWLQCSOXVP144Zi28vrt53Muu3v11AXNJQ1IuVmxsRNWNXrPYr6VIDkSHEWHLZmQXFtY1SyxMfHEkJi3SfyYMrprPYCPXWyYvKFvZwxjaivPr7v+Pfe9ol9t/O396z9+8oqaSD20qARXzsKGISzaYlqk9SziWbUD+wJ1C/E/vn1LbP78tbJIKkayuRhbb9zc5XRZl3ugfjMPd2uLd8BWG2HQboIGD+lNRYWdslqTMWQgGo0gk8pCViW4EQmuSUKIFgkZToMDvUiFknXh1ro4BIfivVvZvbT7AKQJeOF/Lb5n6f8sHtncrRlm3PAmLFqQs57lkqZeS2RhBhZkcjGSAJVhkYUz4ntbfdGlG3FEakvwy1F3Db/2oIn7PY7p6yaRff374yYf53xc+Q8pHc2KSV2UEbI1kYsMlSyagbCWYAgrhye2xaezC00/DoAea1ehqYjH1F0HhuFCLRIaE2YLEHETKM2U4ifHXrh83rmPjtxX3mF//0P3w+I7n54263f/eGZkKtYAU7M9KyC5n8XCrQrLFJkQJWjIWmSyoDpPfv8mw723vwBi/t1mgKKGBI40jkDV5KXlJ0gn1LXlOXrd28vdGquG5LiIxSSksq6wUEbjMbSkhJ/UF8IKHDKhSIAWVWC2eB6FKM2NZJCjF2cDZVY3XHrMwIUTvzX256dWnNrYlnvratdS6aKq1x+9Z/Gfl4zKJLNw4oCVcSHFFLiUXEOvXQY08txYEqysBYXCK6IRWDBgOV6snh7XYLR4/02CNJrWUdHSBzdfctOQS4+46He9pd6pQthReEefGQc5NfHtyMayXp+jfqqLACVIpG4sB2R4F3OzKkN2HdA+OJLw8lSEpVuLUBwIVEWFlbJQ4pairLEblt2+qM/38f1tkuS7owq5yS50zYfua5X9pZN29J7Z220sM9Gc3QnEFKDeglom9pVIU75ghYxUyhHvmiY/i5KvaM5QSI8oos+YGduL8Sb+WSBhJjB91LTh11be0OHXvX15pV1KaF73wnULq/6+YlxjvA4wLQpHEXpH7BhozU9EYGUN4d5QZVnEVmkijolq4eUJIYpd8eYP8YlLGrQmBaUtpbhj6JRLJhzFls2Azaz35oy478n7l22P7EA63gyQoAx29qQ5bSp3A1hBkIr/PmTLK3/j0GSYsaDGvN01TYQydESMUpTXFOPZO6rKT5B+0KZFeV8GxL5+V0zyd/dxtldWw4o5YoKXqJQTmfZosVc8F5ZiKaLfWfT/wajr9CJTLLEi5jb4OIHr3FFEaITq2lTOE2QAJKugEtFg15iIKyWobKzAfcNmjhpy2JBl+8o97O/3mNbPbaisQ0Zu9gRk8FzN9BwaQF4QeiZJghLRYVNCCAk6PxyHDJz0Manfk0VDAYqMJIq3lWLTtLZZLG545ueL5n2wcExDUQNiroZMi4lInAIEJWQaDKilGlzXhU0+XCqHSv3QccnABlVsghyxCcg6LuzA8tUgo2/6UGy+hTfT+X3rNfe13iNvG7p5S/kmKVWU9kIyXSASk5DNkLXaG85U5so1XREmFNEiVAoXWdMQZY5sMmnRvOiPAWHtEptwBSXZbijeXozf3fJExXEFWrmPuvUou6lfk/yF/YXY0NG+R1IjcGniFQGjJiTVFW5cunchKn33bfCsUkSDm/XT5Cncg8JhDAVFRimKd8Tw5PQ1oVZOCHs876/2KUxqwYuPTln99ppJDYlGNMsG5KgKmV6uRAX8XGTTDmJxqnXsiUrxCqCIMBYSmFReyqXNh+RSXWKoigszBSSE9VND8fYi/H7qc72O68TVV3bn3aWE5mGTD3K39GlAVm0Qnix697TwUQ1Hr/y1b0HyXZbCwOYvDOTVFfUdcyLAu4bmaZqgqa1iO4aydAWuv/Tmi67sfw3HbAIY8cKIJc9+/MKo2tQOoNQ3j/g5Vi7lTZD3kIRmEMIQlPaxJM/NKvSmm3Ol0/fEuLTj6NZUit8MmDZgxOETO2xB95HPjlz6/Ce/H7nD2AaUeGGowlVCIYq0sJDQEJO75kUzUswmZdz7HDp1eaM8/SU2DbskO0lQbFkIzUBwCREqYqIppCKC8uZS9NneE2/c/0aHmodebnq5csDskdvrirfDUsj/lT9vkG/U96Hn37VXHNYn4iW8iYQQitWiNQhAwoqjpKEblt62uPIM6YydhS5+R08+2v2s12dI62kPuptX0SFXMCtvvhNGdO9myYvgfbxEIce1ocYkWCkFlS298NLEFeUnlHbcjV2hzAq9bvjzwxa/9NFzo7el66AXK5BNBa5lwo26oIpWtLTQokFc6R9Z8PVYO7R+SI7HmRaY3dwXiqMhYsZQUVeBTVM/KXgMHD7tELe6dDtaoikxn1LEmGrGcyFLjpKFQ6XVglujX/LjSCkhSHgicrftx107MmSK3XQoY15GqdkdC29d1CFDXQp9t4Vcd90LP3t07V9XX5FJNCElNUOSFTEEKTSM/k3v3NMZXhJoa7+gv/PGHK2HwgMieooEN2shqUkwyfMTlVHSWIy7z7tz6GXH/qzLHK5QcOcu5CWFec1/uf/Ve/iMwVu2VFCmeQZKRoJG5mpIYhCJgbbLwuCPe3/R9947xdTs5gIUEfXenZNGiDdp6OP0xQe3FD4xhMmhvds+7FcHu5/on3n1M1RyJXmu4oimwslaYmdPA1BkIwfqyh9nntD0Yvx0wxVZkBTuIAaiq6G0pRjDD71w4cR/H3P9d8rOqG/vZ/u633vV/Y9+A38z+vPPlS1QoxYkqhmZ8iYacofYwuLl9zOHTEf0yXrzfVDpiCanr/uhDvz3+cXfckKT7tefaEXoBHkMaAORnwhlSyhKleCght54e+o7HWoeWlu9Yegk1sksAAAgAElEQVQVS69eWZ+sAeSsZ7Hyox1sEedBQVi7zieexZoOgKDn9P+e9hnUvW3fVd2goMLqhRsG3Tz4Z4dds7aQ1/qS+0qfsTNGbq6u+BRmhMxrgdAkt5yQN16H281qHghNmsy89+S9OdlPi3YcGWXNFfjNhfcOGHX02Mf5lBjgqmd+unz9J+uGV0s7IGsyNEpWbM5CllyoccDwNxCedSLYZLS+1VaBKQaEzzt4MZ4w1aChvLYMX9y+peAxcNj0vm516Q6kIhRw6VVb0n2hackObNmErVIh1bydIXUTKmvk0NlfDhzZ9foFmeDE7ohu2RIm0KhC4S5FiFbH8ezU9X2+g+9v/Sb2D/JeVdxZ4ZjdDKTdZhGqQqKewAb1g3MeHfHKvTFGnh1vg0ecCTv9QbA2UDy/i6hjgw5pMxWg3Ergkj4XL5o3YHmXyUAvuHMXMkmGec3sD34zfMbj05dvTuz0XHSmBpWSUFw62M+GS7u6fItL/s2QlhTn/dF3/Yk46AyBKsgCelEEMuW6NGiodHvi5qE3Xzzp0Ikbw3yujt52xV1Jt6Zbs5f8QHMpiSuF3AGqyNyX/dRLcip4A8yLYxCHZgQTn6MgQtZP1xHF3Wnelm0FRZkEDkr3xdzbqrp9T/peTUdi8Zb7ar+Lbxv6+aflW2AXZaHJMlzboVAorzi55gtNsb7QgwZWJ1P0tWBjIyb4jvRghd7L7jOJGFNk6fFUWi7bPpeVDkQyUZTVlKJ6anWHmocefv3hkXc+f/fS+qJ6SBRsSWdaieL6CiwyVdO5R1SM0tsjeaE4VLMEqlgoPEFNLhI6kcfbQFH4gNMCVFg9cMl3Bz4264ezJhWC+v4PHx5/7+Mz59clv4DtVabxbiIwmAVRDLmFzPv7L20IxAZIEScG0TjVVaC0qQRjjh8/777z7ru8kHvrStccPLmvXV9SKzdJVBNXFklfDgkvcnlSfKUkwzQdEXecG7+i3Jf/2dNpjoEnLU+Y0qmP3eq7YdvNhY+BI6ce6m6p2IqWaMbzEDm0cdcguYrYhzgiXIcOJgnuLbDQk9AMRBDZ4GXYdL2Yo31XMCUKNXp9vNyKo6ypOxbdvuwbl40+/pkr5j7z940TrZI0drQ0IF4WQSqT9bydtKIFAywYd0E/yI/Fzx+bwbJAgdKKDtl0oMgOTMdE0orh0MwReOvGtzrUvNiW8d1lHuT6P1372PJXl1y+PVoPMh4pblTEqJBFzQsabF0YvJ2bb7oM3Bk5QRCYL/0BR+qJgnVVFW4D7fBkxOQ4pKyCimwZpg+644Kxh094ui0voTNfe8ivu7ubE9vpSGtfT1H9RFqVaaLy3InCnSTSykUwU84alHsPjgLdr2duUlAnLdm2hEQmgXhNEdbf/XjPU6VTt3UkTtc8fVXV+rc3jq2taEAGTSI2U0jJCCU4BdYlbwNDAsUzY5L48E5E6nJCM5g4dzVcC8umt8DlqR1/1lFMBT3dHrjq3CvH3nboHYs7yvu97cVbqua8tnBsc3ETXMegLZK4NSrRFQhN1bdMByKD8oVsKUj28q1bFHZjO2ToR9a0kZAVxFqKcPFxFy+Yf+6iCYU87+X/dd3yFa8uHd6i18IloRnM4H5MeS4kI3/Bo/vI283kRD9Zne0IFNuFrlgozZTgnL4DFi4YNK/T1bAthOU/u+aKp69YuurdpSPNMsro0mCYLiyaz2jHELG90A+vaIlvocp7D3njYI/1cnNi01OEDlz0aO6BP1//5x5HSEdsL+Q5jpnc391csRVNIkbeE5pk1ZQcLWdBU/wQFuEmFzEd/pgUfYM2hLo4EpiMAa5sw1Z8Vzv1myLvJL2YDRQ5lSiqK8Pi6xf2OT3ROcrPFcI0/5qfPXvtvCX/t2xCXZzCJySY9N5ITkRkuBS0+89U1J7+3H//1JWE506YoCMiWUvUKJAtxFIRdG/oiycmryn7jvSdDufJK4RnlxGaE54dP++Jt9ZNaI43ICM2CQnYGQOyTK4Bv36jEJf+Cw6KTQuThNjW+fFjQayV79/V/CMrhbWOEhxUJJJxNKbrELcT6F5TiU+nfiqtcdcog6XBeSlEhbyOzndNn3vK3OqSOi+2XKPakRqcLNVpo+x9BQ6dgCCEpuoXLvfcikL+56xbkkgaoo/lHwSuW57QLG4qx+opazqc0Ox9Z1+3rqwBaYqLkmzhSdWoNmvEgZX1EqJ0jTJ+/bgccQRlq/VJ8QJ1/PitzpwV5A2qfItZ0IuDKKTW2JO8ODU/T0pJq6hIlWPr7ds7zFx0zdPXLF7y7srRzUWNkByyQHtuRTrb3aGClZLjlW1qXau98JCgbiL9OcXkOorYUFAihoksNEVCtD6KYScOq5p71sKCalYOf2nMyg1vrR9qUQVu3fZCUnLuOa9/7aleq6hZ63czGnfeIkd5IjoiKsWrpFCWLcJFhw6veuzixwq6t843e335jse/PH7JE3/dMMqIptHsZKDIZBUkLwvF91B4kAxQeJBJR49KMESyld/OV/VgX2DkfjEY8jLQs747npn0XPeTik7aUQjDY+842t3UrRpNsfpcTLjn0vX6rJAz/gaX6iS0xmQG8Tu08VWg2ipUR4It28hStYwgvpz6GHnUaTPdpKPUKhWF/h+e8ps+Z7fz2e2F8GnLNeQu7z2jh2NWZNCkNotEH/KY6noUpmkKb2kQd55/vHDONe5N860f38ggjl8W04QfqkDvyxCLCBKpJLrV9MBn0zvHoRZ7w7fDTO57c7Nf9Z0JL4ybt/7NDRPMeAotlGUXi8Ohug0yZVi2LuRerBUtGLu//bygObGAUIHxvHgnWjRsCREtinSq2dvlUTmCxgR6Sb1wxcVXXHDjkTd+4yybPWaUujsr6uGS5UpkuZCoJMi2V6y21a/UypTciXkePxqpiuvXYfQnN6q/mUwXobKxHPOnVPU6Qzqjuq19ZH9d//BHvxk3/emZC3fqO+BQjRAyWIrn97JQRYicRf8ZgWR5E7el51kIaNEXPioSmpYXQN5pP8FC5vmQvxR7mjs9iPoFPaSfKOMbgTRZQ6KlCAOOHVQ19+yOIXCufOaaxUveWzm6OV5PzvKcjvBOPaI0UhmKY3pF+MVc4m+QghhUshKZ5Jak0B0ZNn0xboo6sYnmOAYdP3jRorMXFRR/NfLlYSvXv7FxqE2bZ82F4ceKBvsYoXH3cDBAvtDMxUyLL6tiQ2SYWZRkdIw8euKiWefOKujeOm0X9m/8uDuPszeVbJFbog2QJSquTclSFAqTl70nYn5c4ZihAv3BwT+iCd+Q8SUxmWfl3yWO2e9OFdtL8dLV/9HjxKITC7JoUnLYpoptaInV5SyaJGTE1Ov3SRKe+XkItjgWKD+GnLLgJVFMnq7MarYXAkJ1Hv0a1GpEh5ySRDZ6sVoEvU7Dysmruqwb/efPXLdw3Vtrx+1UtyOrW8JTGimKIdtISXh+QlXgVfClgpcAlJfnsQehKcrdUUEIGqf0jkRtZZpEaELRUJYqQ+/a3nj77te7jD7rMg8y7kWyaG6cYOotSCtp2BQ8EdQrzFvHKfbPd3r4Oz6v1EfuI/kxc/7liitDV3Rk04awPim6DNMl9wKgaZRZG4HWrKOkKYlfTph+3mk9//UP/aX+VKjnG/Hp/WBPt7qkWpwwQQWsSWhqiiqsyKJgeX4SCPW2YEBSWENuQPqTnr9zFuAsRQiQfjWlmH/L3D6nJ87+oiMADY4k/KLkc5gxExFXgevIMLxCWq3nSxsRSAZlXUvCDZWNeLFd4vlpV2tTDBVNNp1caPoF28UES7Ir2K8FVrPgPHQ/Sl5xaDvixUmIidYBEk4c3Wr64NPJH8gdIcng8hd+tmTJO8tGZeK1Im44mCS9hDYvtpFuXGyO/GTDXTK8qD6hfyCBQc9ICwktSFkZyaYiDDr20iVV5xRWpHvky4NXPv7mk0NtUiyahAy5OOk4TBISrjeX2XJeTKw/5rxYPE8YC09CIIopRox2RSqgNwKXH3n14kfOfWRsRxhr7XkP416+bMWq/143zCw1YblUhNI/60PxNpA0tQlVQDUwZVlYh4UQ9SOCvHv1vWEULuTH7oq+7odnBVVNds8V6La9BC//7L97H5s4duu+PjPNR4ffdaSztWwn0pEmKufgWdGF547qWflzK03Ffoh8zuKdn5znn6UROPfoPsT3xPimnZNK5zdDj1JSowMjY6LYSaBnbT8snDq/y4nNq56+bOFTbzw9rjnZhJSWRpbGemCborEWj4Lia23DX+pzMem7GbCEzcqbFFujVzz1KcMWtUxpwyIOj1EUGCkZlanuGHnE4Hm/uvTXXSZWussIzdG/v2zuxr8/OTGjNcHSTDEJiMk98NYFu01x9nTQGagkAQX6e+Up6Mu5ThFko5sSdDUCy/KEJk3SlOhh+rpCuBRsGRVWKZJ1Cdw25KbzLj/qmmf3dcLorN/vdm83d2fJTnHWFg0UmC4cqjFI1i0/ITaX9LOL0PTqSnqZmXlCM/dqJMRSRTisthJLb1zc56QOEg903JQTrB3lO5Tt6lYgDlD1G0oisyK08PvHPZCOMhVoDpX1doXQNCiIL3Cd06QkNjwU4+X5uPJ3wrlJaRcLSd5QDVKgd7eg7GsnyrNoiLnQL4Hjxc7ulrmcK9fhTZytlhk/I8azz+5q0RTt+Ft6Gl+++zZYfGmRpn80Q0VRXQX6GQdn37jz1SDFZV+fZr99//Jnf7ZoyfvLxmQSNZBFUXZPQwh3c/A/YmEONqU0WQQ/7wrRR+XVRK1K4hr1i6ZH40g2RDHk+IHLFpw5t6DjN4f/cdCqJ995eohhmnA0xTsIwU88EkLCs6sLsZm7pyDZMd+bk7tfR4xZlAJ6rYqJh05cOuv8OW0+JnO/vYyQG7px3Y0PPfPus9d9qn+KTIkFWwTbepO7KsliHREOMXHEKBVkt+Hafj8nI32O424i08/m9iJ7vTluj0LTBXo3VOLZq17sd2L8xM2FPO6RU451tpRvk8gS69XtdUWMuwj3CIRmnpCk39glOS9w6/ubxPxkRcuhkjsRWJRiLzJf6PACFxIdwNAEVDR3p9Ns3HKzfOffZr7avZD772jXXPf0NVXr31o7tiFWh5SUhZoALDKMUIx21vaOtKbwMAoZ8t9/sB0NtIWUt0FtnRloig2SjcVbQIT2rHTImAlEojLsRg29s32w4ZY1vU+WTt7njUdHYxncT5cQmm83vF1+3/8+MHP9209cntFSsKgkCRXN3kOZj+DBZX+lDNyWovxHYM3Me1u5zNn8nUk+NRJXWRtqREWkRRWZm7cNvv0nV/W/9htxlFuPe3u420opTyfPhSoWZn8Xl88qXxgFBUvF3/u1Y3b7bjydRK+6SnzUhhpz+2vgfdj0YeXs52f/cvXHqyfWJHciS9kAJCyF5cpPeMmZ84KMayphQouR3XpqTsBAxAYHFjLPlUJCwRMJeQuBWCC8L3rnxQeZ+7vWSSzoOfN/nzz7ZKmj05oUB464Ib9VugeTYrgo3pkmS1MU4BdDaLfYs9YtnH9tIMz81ywE7e59g45CdyLoVt8dW+7YdMDnpEf/sWD0rU/dvLguvjMXfxck0+TiivNXD7FT8P8gSPZofUxRbNEmUI6GZDaJgcdfvGLRmVUjCnlnY/84etWaN9YPsaJ05gyFBvm4fDGZY+uLY/EbgYDIWVV2OwaVvkMF5ZuTGHXkmOWzz5vV4U5rKoTV3lxz8PRD3NqinchqWRh0Lm7+fPQVDXhmid0/rV13dy9Z8M1drvG/3rOuEtU37yio37uuK8//aOHImx+/fXFtciegWSK6Q81KsCyXPLG5Pux5HYIiBXl9YA/P2Vrnd/fbytuAUu6jpCGaTiBZW+psufPTXey7e8O/o33nihcnVa373yfGUthMNuJn8fvJdK3Tux/nGqDJ/Tsv5jVwoQfrou/R8TYbZAnPexnU7RKAmwJKWsox6IQBS+afNa/Nx5J2JLYFde6O9AB0Lx/V/rVk+muz7l33zoYrUloGjpwFOW/F6Rh5CSf5ma8iXkUIhDbExxE9SimllGv/rO5uTikSDcWYNnrqRWMPGt+li7rT0WznPnLuFk9oFvDZRYR4CSX58S3xTBw96nvgkykdo2bpsVOPdTeVfoZUMSUASbBTVEekdaEXeiPoTv+kX+0SoxWMPv8sdM/d5dcczRN5nilE9WOqSGj6J9DsLnb29RUEoQo0kRqUkEUBWRIscr3q2a8UmkawgOXl9+zrz9P3tYgOM22IMJSyxnI8OenpfqfGTy3IslPI7+/pmgXvLxh9y1M3L95BC3eQbEMvxn+nu4hNsQnIi3cLlIT/boWVUSIbLnlONMSzSQw4/pKVi89cOLyQ+x37h/Gr1r2xZkg2noEZhGsU0lBwTXD7koyilmKMOmrEilnnzSpIBLflNtrzWhJnkiQ51/zp50sWvV41SiTRHKiPBPSor8S2mwoTmnTbf256o/vIXw/ctr10J1LxBrjNDiLFChzDizH1job1+uguAjK38S9wDaTr6Z8moJfcG+cd95M5C8569MoDhbItv/uq+2rP+c/Nv+/x158cZZQbaJDq6PxcLwhXVI/wkul82ZCLzf5yxvkeWPqZ/UHInhe64r+PwCJKJ4e6cZTWl+HWAbeNufaoq5a05Xk62rVdQmh+WPNh8d2v/fLe9e8+PqndhaZ/GI7saNAsBXKWTlOII2YV4YYhN130s8O67glC77nv9f63+/7tGyE0H/n4kcH3rZu5emdkJ1Ja1qtVV6TByNJRQK3DOv84xvzBnp8Tlftzckc7OiQK3SCbF4VmkDLJSyoREfmB9ZN+1Bc7rTF3eadZ7ePskjuZSQRj6SJBiQo4O5IFi7JOyQcczBAiBtD7H7Fo7WbB28ef9r5OzVHoQZwSFSSUNJVg6JHDF86+cPYBLa8z/92FY259+qZFYQnNgcdfsmrRmQuHFcIsbKE58siRK2ef/0hBIriQ5zkQ11z/xPW3PfXO83fviO6UWiJ1MKiY+YH67AehSXGav8efe115//gt/9A+gFLpwqYwU3HypebFWtJ4pvEWKKU870tbH11zVJSiBHpLBKjX3OHfH3H9/efO+HVb223P669/8fqqJ//y1NiaaA3SyTTSZF4MNuIU8pMX45zL2g/mMFFH16uq4iUG+qWwggcIJn8xjwdVbfISjU0gqSah1Ojok+6Fd6a/3SV0Wf776xIP9N6O94pmvn7PfQdEaFKZFipOXmOhrKIbrGwGmXQaRfFS6LUKpgyYfN6VXThms9V1XsC00IksmmP+NHzxk69vHG3oFqjWp2FaXh01cXhwgUKTon6smHexTAWV/QnK8097AWB+bJV32kyruyXYYYuDYQocxWL+E+n/XsaWLP7xj16VLNj0I8FkSv/OWWvzHng31/k+9QLhEfCTLLJAJSpQsqMEK+5c1euUA3jOb+hC81uXrl70wwVD94mV/+WwheaIo0asmnPerIJEcCHPcyCuOfzu/taOZJ3SqNYDFJO529GQ7XpP+0Fo0v3+re5vpaPvHl1T07dG3qp/IU6j8iqj+Effyn6h4sACHzxkgcbM4HJNVmE2W9BUCXQ6lmrG0M2oxLrbO0+M4VUvXLXw6T8/M65Jb0JLrAVuwhahUeIQEu+8hlwd2lzyn7Dm+vAcCbqpQnEUERstQo+COqTBvJmbJ4Pa0t6RlRR+JbVIKMtWoGemEr+49BejJxw7YWm79sF2+LECl6h2uLN9+Im3t7+dvO+tB+5b//aGn7a3RZNC5mjjk9CK0FjbhEi3JLLZFGA6SNoRVLg9cc05Pz3nu0d/76UzpDN2qYaxD4/YIb/6eur1Pj9++Mebu7LrnNxsCz6dN/iWDTesbC5uRibtiBioeEkSLXXNwnWeH3f4z17UHi2aQlDSTOPXyghcUdSIKIEE6JZXRJnqi+ayhWniE0ceescdeuEfgR9sH/+d507L9/Z77jb/afL/HSQNOf5JRySOC12oA6EpKvUocGpt9JAqMWXUnUMn9bnqgJ3zu+DdBWNvefrmqrAsmoOOv2RN1ZkLhxQyqFloFkKt9ZqJfx5ftezVlWPTagoo9uLrC+2+bbuT1rHVVtd5cB8UyjR6xsjNW4q2S6keBrJ2o58J71e6QF4SX2532kal6QCxRAzppjRiSQlyRkUsk8SZ/c+fe825k6adLnXsou4PbZ01esbiuxerSRlNbhNMyjCH6SWA5apM+CEHItTOj5MXHp1AaJJFU8udc+9INqxAaOYlgHrx7P5kGszZloQiqxSVdWW4fsCNY646flKXcpkHfbNLCM03qt9I/Orth+5vb6Ep+ppDNXxlcU6po6pwqJhv3IvbjFF6elpBeXMp7h047ccj+1/xwn6ZnDpII98U1/lhtx9sb+25SU4rDjRdgpkhpQeougbH9PcOXxPr+0+F5u4j0N/5irqHjgTV8Yq609GcIp7cn7hkCtNwKHEnSGAooFNQEedAoubdB91r4AbyTjba7eQTPznJ+04bgjQDTexSYraGiB2Bk7ZRVF+MB0b9+tzhRwx/roCnavMlCz5YMPaWp26s2pGoDStGc93iMxcOKuRGwxaaI48avnr2ebMLsrYW8jztec3xNx1jbK34QqsvaoAd94/LbUP33S/3vp8smvn38pL7Up8LHxiyOVVKseRZUdNYnEIpNqbeBrI1GTZPMBX0QF5dUTo9T8QzZoCoLCNulKEy3dtZes2CPqckT+kwNZDzH/GxTxaOmbJ6yqId6jZIOpUvsqHFZWQzNuQoxOk/uYTInDCn+latIUy5ZEhRlUP1a5V6ZetylR9yIQt5hRVFNpkC3UygvKUM1Td/1iW02D/rQl3i4Q6k0CTTeqIoipYUBZtR3F4MRsYATM/tSBubUikOvTGJ20fcfv7Vh1z3TEHjuYNe1NVd58+7z/cbe/+oz2uohFOxC6PehRbRYKYp5knyylt8hcj8UmZq/oij//Yr15NnSxxNSZY9fyvt2SkdOLLlZSnmZ4ELoZlv0Sy0g/hqL9+aGqw9LiUIUeyRnz0vrJx0L34x59z3Cvxt33UkwpzrgWhEF6XDYg1xDOg/ZNbEn0y86WTp5FSBrRd8GQnNm353Y1VNIDRFMsD+SwYaeNwl6xf9aOHAQm5w3EuXrV775trBYSUDjTx6xJrZ584qyNpayPO01zUPfvzgyIeeeHBpSmtAvdUCJPzKDgf6LLcQhCYxPfyu79hbIptlo7gRjprNxRiKzSqFWOeqrvgx1wW+CEmR4WYdgMprql4kjNUExGI6lNoIBp00fO7E08bcdVr8tC0F/kQoly3cunDM7QumLGoqb0Kz1gRZliArDqx6r3QTHdhDJQzdXXbZwSEueXN+YBAOYtZF9RA6gMSrfWXQYQ3i4+1oaBoPvEWqGUeyqRSDThm4YN4Pf1vQkbShwAmh0S4hNA+U65z6lq5qyDSTFZOOmgNc2gVRnyKPqCpDtRxojgSjWUJvtzc+v2Fzl2BOffGNpje6nz377G1d2XU+7o9jV234+5ohjVrKc6fQhCrK7Cl+Bmfe7nYPA/RrhaaYmYFEOoKYEYNuxiE7qu8S9zLMRZKQX8OV9sSSIyPqF7ynXXPbnF/UHSkByJsI6bf805CFwFRtTSQI0aRpKxbSehoZ8U/GK1bdFotQMBJsIKZGkclkRHJ9woyiX8NBeG/yBwdkrHxJaNLbtr4ZQnPUUSPWzjpv1uAQ1poD1uSjnz06euraaYtrlR2IRmUYlgFH8yoBFBrfvN8eJiShueC9VSNmrvrlstrkF0hH60VceWDNDE6mEdtYqonbloehRJiIAosqrwQRPDRqTTJyRqA3laC32ded97P5fU9PnNQhDt34xZO/mLfh7xsmkMeiRWv0rLEEgY4VjUswWrxyeyJGU2ww/ZMCidNuHpzA89N6AILXlm5RWQ4Ztky1t1tDozxPlSLOoU+kS/CTEy9ZvOjsR7v8AQkHZCJvS7/e07VBMtDj72+c1IgmSFEXkmlDUWSYwTAKgqD9ncd+KW+Uf8aQTzJXPiIgS3XubFccVxfLRFCULsUdw6decOUhV3b64yrfcN/ofvZ94QrN7nXdxVny+7vP7E17N2688bEl7y+8vKaopnWSDi50v1po/tPJm6yWqgxN05BNZ8UGBc1A36Y+uH34reN/etDVC/fm3g7kd3rd3durPRilSPk2fnyDqmxK0HQFWVigY7wPsg7CJ9d/fkDe+8KPFo276cnrF+6M17S6zgsUmuLEHlmCKHytRBDLJPCTI8/fsPycpQMKIXfZH8evWfvG2kFNaiOkqPCK7p+PC5Sb3TDwkIFr5174aJcRmv2nHp3dWbxDT0XSMNWs73yg8tre9kyIr/1DsLBWXKBnU3dU37g9lL4+v/qRy26aff2CbB8HLXQMrq956LAqh1zdbXh+EcnjH8PqHbjnV6MQR7B6lj3HVpE0i9GtqdJdNmVRr1OlUwushVcY3t2veuTjOaPuWTZzSbYsjRpnJ5zYbhU06IL8xB3xVvKrA3v9Jr9O6i4HkohO5bnFaYNOVUgsyRIbaPpzikVXWnRUGOW48OSLF409c9Itp0rfOqBM9g/Zr24llM7dHjee/xt/rf1ryUN/feTeje8/cUWzkoIUcQDDEpUEQq2jucuD0rkBrbalXCIFLQSqV1dZNSQk5XLo2zQ8dPkD5w3tNbLTnyAUtuu8srYSn93Z/vErb7hv9L3k9ks37eixBU2xjDex5OquelZALwlozyt9bvHy/1rRFVFP0XEcOKbjxTPFvOPdkkYxBhx8ydrFFy4evGnTpli/fv28M/A62IcSo15pfqXbildXzFr0v1UD3UobGdNocy1aUVKOznek+p2KS6fooTxbjrvHzBg+qXzSyvbGsOSTJWOvXXdNVVNFC2w6tqMNFk06gpTeu2k7kCVNCM0Bx128YclZiwoUmhPWrn9r3UASmq7utFloUm6DsNTbQJlZgSGHDs12cP4AACAASURBVFr7aBcRmnM2zx912+pblzQk6r2KDsFqR1Y4iiv0E94OpNAk/t3r2lZH8+vGx3enHON8UlYt1cp1QJyOOJKAjAklQsdoFp7LR/KLTiCiudCgGCIR++NZNoMwRvJ66K4KtS6CS749YM4dZ99299HS0QfEsjnn4zmjpiyasiRdlkFWyQiDlCGOw90DA3GAS77I9BWkH9eeb1DKeddzp0TRePLinBTXFif/yEWAkwZiZhQV2W648JifLJlz/uwuVZT9q/phlxCa7za+WzHjv2fOfPz9jRNb1HROaIquEcS1hWTRDALnVMfzIVr0e3kdV6aEkay3k1Q0HVoLEEtFEE8lsGV6dafm/777fp9/ve9fQ80679PcBx/e9mG7c5r01KR5T7y3YUJdvAZZzRYxTd4xpUGMjfe+v3QSzm6jjUSGuIZWc8Nzx6iqCtOwkIjFRbHy8nQlpl04bfzl/S/v8NbMN+vfLPu/+r9cMnnl7Qtq4rUwdUcUeC/0Q+GtIpnOlmBTQJTiQoEKPaXi3KMvWL7h3HXtfkrNnLfnXHbTUzcuaCpp9oLO2ig06Wxsw7IhQRUF2wefMGBD1Q8XFCQ0x7w4bu2Gv68f2KI3i/CKLxeM3rc3IVNlKy9aAqXZcgw9fMjaRy+Y0+ktmg9ve3jkbfMmLzVKDWHJpA2ht/n3QiByXTZIdts3bPvt2yQ0e9SHZ9GkG1399xXDbl4xeUVjjyyailIwzVo60sc7erQN5cmorq4oiUZhNZIMV7gJ/QRBMTF6dXg1+ikDqLArcVbPsx69esAN00+X2t+N3vdX/dyWZCNa3GYYaRt6VINN/vK89VrET+YGFcVkBq/an+/9E3/EH4tpz7ON0wZ5l7Hol4kTRfLJBZ8CopKMZGMphp40fMkjP3rkGyMy/VG338bMAW1o3B/GL1j793WXkdCEbkOmiZ1O5MgVpg18dN5t7h/XubebEwsRzdZS3klE+TSofEtxEiaVgLA06I4CVVKRaCrCittW9enoJSC+6sWGbdEs31GOJ+56ovJk6eSd7dnBDp1xiLs9WS1iEckq3io0vcPn7Lxi5rnM7L24QUXyTqxyqB66RflFcSRrk9g8PRzX2V7cUkFfmfXF/ROnL/vl3IZ4C9KadzZ0IR8ansSErMXkXoYiQ6H6oibQ1+mLQYcNnXvfBfdcUUjbhV5z83O3Ll/43tzhtcV14qxrMb7b4DoXITyuAwU6ouk4HTG3ftEPFxSUDDT2D+PXPf739QNSkZb9ejIQrZKlmTIM6z9s7ZxOHqN5/I0nZD8p+oeu9AYyRlbEHwsxELh28y1YbRBahfavXa5zgbKdJfjTdS/3OLHoxO37pc3dGqGC7pIkufdtnTX29qrbq9zuFiyr2TtCtw0WTeozXqKg7CcbUYUM72Qzh47zpDmSpgZ/s6YbCrple6B7cw/n9cl/a7fjKm///U2PLfjfRZfviNdCKXJgNDsoKk+iqa4ZOt2bEJd+6WKKW823ZIqYTPr4cZt+HlAu/9NVvIL4+Ydb5Ncb9sMT4rIKvVHHgBMGLl1w9pLRYbznjtxmu1uKwoJx2R8mLFz91ppxaT0LRzWh2E7oQtM7B131zy71fKSBy8D3KOTK0ZApXXU0qI4C08xCijpImHTEYl8sumNh39OkjpWVt7fvKWyh2bOhJxbfsbj8B9IP6vb2ntr6vYc/fnjktI1Tl9bFar0MQdFg66QqzqoNJpavMebRmT+iqDtVAIlHYGZMWFkHkbgGNS2jLF2EQd8dsOzXP3psVFvvu72vP37q4e7nZdvQGGsu+KeDCVtwEm5mRQhxTZKgN+g4qL4f3pn5XrvOU9dt/NmKJR9WDauLNQB0KmcbhKaowa/QhpfWWx2RVAyDv3XpuqoCyxuNeXHsuvVvrR8gss5d3xpTMP3WCyVJRnGqBCOOGt6ps84f3vToyKnL71xql9Uj7WREbDwV2TYlL8GOxE8urCkYu4Ub5NtMXlElUHjQf1zxTOVRxeFvpo+afry9LVYtU//Jyum2lycTol1CRMRkqpRXDYNq/mqGd2Yj9f+YAqfZhpsBiorjcKpljPzu6HmPnTP78jYD/IoG/lr7UcncV35177rX1l5hlzUjpaWovDW0uArLsL0NruXN7tRHvGxw30e1B4H5pZ8S67/3p76n3D/l2s39uabqcJpdFBtFGHjyJUsf/eGCb5zI9FbPLvIZ8/txC9e+vW6cEbNgSRnItht6jKYnNL06h6L8DAnNIBtYuNBdb9dIM1uzC0lRoCtRZJ2MsLpSzbGydDlitTF8MXNLp3wXYQtNSgaaN2Ve6VnSWQ3t0VWfcZ/pe92D13z+mfaJZCSofpD/q356Ku3gRYa2f1bt12USyP7E5fgTGlkQNE2BpqqQaoA+LX3xwbSPOuW7f+yd2RNuffb2ebXJAvcAvmVJTNYU1yWrcMh8LDnQFBlai4yKum74/K72rdTwi99dv2LBe/OGtVS0eNm0bRCalGUqFiISmlIEWnMEQ08cWLDQHPviZevWvLF6gJk0YAqzeBtHhd/zKMI82VyEUceM7LRCc977C0bftG7y4uayBphuC1SKD/SToQ2ZTm3ZQ4WIAygyvY4B9GiuxAs/fTE0i2Z+D1n54cqBUxbduqa5W1qqVWphab53ppBulFfXl064pGxqF6ro67ZKcUIuoCtAiw1dleBYrghNp3q5yYYiDPre4IWjzxw5JQwjy4fuh5H+Uv9sv3sPd+uStcjI9ZA0V7jw88dMLrJOZOD7EHIW79bEn3zHqHCt58X7elftmjDkxa8q0MwYkqkELjrpomVzfzy30xkTCukWe7qmUy5we3qQUS+MqVr/zoaxZtyG6aY8y2J7JAMFHnm/iHVut+wHRVNcnhZVQHFatuvCylhAjAKjbEiyBj2joMhIIlGbxMppKzqdZbM9hOaqKatKTpVOpWMuQv280vBK+YRHxm77Ir5ZbdRTcHxrlvjR4MW2muBazw7+qrsinSIBUT2CTDoLVZG95JAWG33UvthybfuKqP0NsPK+Hu6OkgKTJvNmH6HdJRW2S0lTZBGwRZhJT7s7Hpr4QN8L44PbrQ7fTc/etGLOW7OHiRhNf/0o1HVOBwCS+526jyp7QnPYdwatXXjGgoLiICe+fMXaVa+tHGgVmci46f2WDCRLCuKNCYw5ZlSnLG/U9/rDssZBpl4XqYOJZsQiUaRbMkLnEPvgH++sad+XK4oktqU+V9tHU2DR3HjFU92+V/y9mra3+NUtBG70GR/fPuqRp2ctqZGbkFULLF0QCE0axz5G2aYTy7y6u+LUMlLSIiNdFrUlpbQLXY3AkkwkW5I4pO4gzL7mwZ6n9vhRgZPInp/3kc/mDL53yYzV9ZE6WEkbGTcD13GhJXQ4jg3bsEXspAgdENO7Lx6D4Mtg80sbYH8zEhzs431XbT3Rjf7C8U6Io3JRQcxnxIiitL4EA74zYNns82d/Y0Um8e0yQnPMi2Or1r29YSxZNAOhKcqKfFWMpt9HhYYIaoDlLFd5HVjKO7or+OP8Qq2ioLMYTV6We3CkoHClUyFYCZbhBe7LSRkO/be/m6X4FaVFRplVgXhNEVbcva7PgQiULnSC60pCs+qDqktve+Lm9dWR7ZCTEmzqFH4ME1mvRT8JzhsP+szXWEQ0XYdZb0BParAMU5Q1stM2iuViXH/JjeNv73N7h08A+qq+cdi0w93qsq3I6KYoLC+LFOY9nSbka7a8woXi6EwaExTTRcY5ierLqaDF1zAyiCgq0Gjjsu+PXzLn9PntFjx/9eNXr1i1adWwndGduRkyMIblh1IIOwYliFHlgeDIzvz4LJoXKFGC/HUKEFFjUJsUDP72oDVVP6wqqCj6hJcmrF322vKBdtKEmZ9JXegA9lcARVZFofzOKDTnfDZ31NQnpy/Z7m4CijSxiUfKgR7TYNle/LA3dum/aJ5W/Q4aCM1/ZunMs1zl+HovOLBUt/aHwl4AOTy61VTgTz99quK4ktNqC2ulsKsOu6OnXV+WkVsiaViK4cWw7kkRBBWA/LHr7bn9P8xx9ddQKlZuU8ym7/mJSLAo7doXoxE7CssyYCcdYWSp3NkdQ08d+uglZw2Yvr9yFWa9O2vYzCfvX1Gj74Qct4UH0aKxqGuwDQOyJsOhTYb/CDkLZX5S4+5C0x/XJDK9E9r8RCHRTl5GWS6UIILiVBEGf2vQ8lnnzm73hMbCekR4V3Upobn+ncfHUoymDdrJKrBt+6vLG+VJ7SAOT+x2/eBmzxvuncxiqf4gDCyYtLY4EtxdOmcQSNz6wnJ/HYjV3YnTGhSV4dDE2BTFIdLhzvs3vt1ugdJt7VphC02K0Vxyx5Li06XTm9p6r191/Z+b/tz98ocmbf28aJPcRLF5jis2rYrpvQov4Nt3mec3FGxQdt+ABO+ZLFmKBqvOhJ5UxdGkkZSOvpl+ePeOf3T68Tf3zbljH3rxt1XvKp/BjTQhrqlIt1hwyVpAx2sEhR79EzNymQGCKS1A+ecvK4iYKpWPh6FYXqkjF+iR6oatP9/Zbqyuffqq5VXvLx/elGwAROiDv5j466tXrN8rnO9tKi1I/iItpEuw+Ipaqzpcm85OthCVNbGpHPadIWvm/3BJQULzyv+8cvWSvy4d3Cw3QaHNEK2gbfn4AkBWFCSakhh59MhOlQx07+YZox5c/+sltaiHnKDs/ixUTYXVZEEv0WEYhidy9mBM8BSob5naLZmDQqCor3ru1CD7mPqr54uPUK4LFZKQvbCItnx6NfXA01c82/2kopN2tKWdfb125VvLhkxdN23VjtgOmCUGmp0U5Iin04Uln/6t+FWLyGDikFvcyy53KFsv/7nz4l1pUx58gs2kN4kSM+/vyPJHRhg1o6PULMMl37lo7qgzR+2Xs9EPf6C/+5nzOdwSG3awGQuE424HuVFspnjHgREhGON5lkzRA2hQ+2FywpgkxIEkOkA8HkUq1SKmNi0iA40SuqcqccFx5y977IIF32hLZtAP2jhE9rVrh/f9sS9dJlznKS0DW8pApQ5E549/VXmjvHOeW4WmdwoK7cgIjuxSDIu36OXCMII6YbsLzUCR7OExxYCjT54AEf9NC3KLd5JQzI1Cr4+ht9nbnXfrY3331w4vPOpA2EKzR30PLJ28NHShSbGZV9z/002btS/gJqjGnAo7ZUF3SSzlnfCQ70fZ0yjafd2nd2wA8eIEjOYUoogg2ZjA8ONGLP/VBb/tEjvdWf+YM/bWjdOqGhN10N0sdB1IWb7RKBh/JDRpr+YPSFpvRGxzvoXYkRCxPLemqZre2KXrmiSc2Pxt97U7/9bWiMS9GgrXPXPV8qp3lg5vJNe5qKfn+9dyGcreucZ065T8IMGERN+hqcOPx8y5aB06/5gsZgZ0qEJoDvn24LULz1xakOv8zvfvvPzh3z/8GJU3yoDOsd6rR/qnXxLljURReU9ojjhyeKcpb3TcDccZtYfUaFuNamgJL4nMsh1EYxGRbS7YfN2W3aEj3Pz6j3leChIWDikH2mj4xzZCiJZWoUntU4Z1W4VmZV0FXpr0RPkJpe2X8JjfIe7f8qtx9y+bsTCdSCElUx0e7/hy4Zzw99bkEicQrRvu3cdEAf1QAiLxBLI1WVSmylGZrsCyaY91P0n614IE9+yPZg9/YM39y3dqNTCKTWSQ3jV00i+0/k/jLQM1vPujkDU0V5Wd9EBrxXbi4th0NroEVdZg15noZpRhyMlDlv32R3NYZPosu4zQDFznIutcMUAGSJp4vq5ge5AeJhaNwP2V62jeLkbsaHzrZvD9XJHfgOCXJvzd0e5BaFLD/jF+UlZCQo4BaUfs8srcSnfObbP6nCOds7WAIdxul4QtNMmiueKOFaHGaP4l9ce+S19dd+/K/1kzvKm00au7R58sJXB4fUCcIJKfTODveL+UweqfXa4KS6gMSzWhJTSYO0xoURnRdEzE7ay9eXm/U+NnbG63FxXiD/0l9Ze+Q381fNOOou2iRh0tzJEYYZNhUHkgfwEXQtMfZ2IN2102CvXpWxADN54EFLnFKPmiDGsmr+ybRXbbGdIZXhX1kD6/2DhpxaIPlg1rKkvDFOYdb73yhGVruK6YMFw6k9SFLFGtRs9qI+YGUnDkHbG9OqGWnIUqTgVRMfTbQ9YuPmNRQUKTXOcrXlsxMBXxBEFbhaYo2C7i2WUUtRRj1NEj184695GC7i2k17HHZn+7ec7YB5bfU1WtfAG1TIZpWTBNPx6Q8Kte5xIu0n/2EUYpeodCQuUyhenrtqh/G4hMx4v594+szIVa7YcHVjUZlPD49GXPln2n7Dv1+6HJgpo45vojrUxFStkSqwaFn4l8F3p8KpdACT5BMfbdW89tvgr4WWo6A0gRHUrGRU+lG354xL8tnPTjiVNOk87cp5jshR8vHDmz6p6lNZGdMIqzaHZaoJZKsMjiH9yjb1HdxfVPt+1KUC3Vi7GkRHSFUuXzFvS8Ckdef/HnKGqYDEU09F0Zcp2M/rHD8KP+Zy1+5IJZXf5YyX15411GaI59cdyiNX9fN4aEpquaQmjS5+vqaHquPEdYLsVZz8EONTCn+wW2qDCtML6IhZJ2NbvFs+yr0KSbI/q0ZGoKElIM6fpmJJNRKK4GoxnoaffE4puqOnSdzbCFZq/GXlh9++rSk6WTQ8s6v+rJnz729LvPX14tb0OmuMWrFEBJXBEFTtaG5Mdn5gd6e3U1/dp8QmAEMRXe4q+b3lm3BmVfUnmjGBDNaihv6oaqGxYd9GPpx5v2ZaB29O8Ki/Bvxm+qjlaTaR4mpW7RmIj6CzbsXKJ+bkMXWJCEIvCfUCzwrWEqsipBatGQbCpGn6be1vqbV/c8pviYUJMmbtx49YolnywftjNeF+QKeNZYXyQLC1Ywc9pRP27X25y01lT1NhqwHVFlwJQMsUBpaR1DThi2btm/Vw0q5J2OfX7suo3vbxzQrDVBigFGdj9obr//lqRLMeqYUWsf+fFvO6zQXPDZ0sEzq2asbilJYbtVDSXuQNKBbMoUIUh6REM65Yl+SRHS8Ksx+44q4Rr135/Img7mf//63PsPLNa0kRAiJS+sopAXagGVTRV44YoXD6jQpFuf/9ljY+5YNnVRc1kLsnoKpmWDqtpSPw5KQ+UeMcDalmOVxNTgB2kbXhWWvmpPaNUqBp885OF7L37w2r1BOn9b1aiZj8xYQrVl3XIHdW4NDMX09GAwLQcxlkHGeOBJEXOPBN1URdY8reuWQlVk8io65AlV0SCJSrfVG0NTVnG6GGXN5Zh769w+PZp7WGHVRN0bHh3xO11GaI7/0xVVq99cNZYKtruaBdlyvDOGv7JguyLcI14dX0PsakV2orBeBXEb/iJoe3FZ3uEHFKOS5/bb45vdDa2fJLH7VzU1DjObFbF7Ch2hILnQdRXpegtJN4myVDesvGNZhxWb7SE0F92+KLQ6mgs/fPSiX66/74nt0g5kSywYMhX89zYA1HUodIs+ubqo/g6YAt5pF+v1g7xkAn/X7GVeysKqLtHpOZIDNQUcUX803pvSvnUh22vi6XdXb3drzxpYShaan+Bju+SaJOsezdYWpcvlJWYEcVsea4FWFExu3cQJ4ZYCKpPdUVydwEeTPwl9zrp63aQVq79YN2yHvjPneqXkD3rNdH+2OG4vcB2K+mU597p/OEorcorB1r1DWOijZyMYfMLQdct+sLggoXn5f1y+btmrywYYiSws313fpvcbJGPZkl9Hc0SHjtHsM+0gd1t8J6yEBTkmw2nJeAKRullwGMJeAPn/7L0HnFXVuT787H76dGZgwBI11mhiuDHxepPYxS7SO9gSNRoTuzRR7EaN0pQ2FOnYTbkiuff65Z/kejUqIAiKSGf6zKm7fr93rb3PnBlmmJlzZhAI2x8OzNl7n73XXnutZ73v8z5PZjCdy2vxBZEnV8efaVM/bF70I/GqY9ZhaQGRPX+B8Cotpv8w7k+FZ+afmaVOWAduuIO7zNo6a/Qjr06dXxnah5SWbKIeeAvplhm87G+9iZIQcAMuVLfVCBSLxQjVhvHy5FnllwiXHNCu8sVt00c8tvjxhY7fZtmUmNAIW7Uh+bi9psd08p5xegGRUR1Oj1o2FV7Yx8YfC6YHND3aRBpsug2QQYVTYgJ6J3vjmtOvm/v8Vb+/oYNN/S+1W7cP2gerNW/4y01zln26PO0MBN2CLIswvFBJKxaU5NXBIprk2uGYLDXCguKuuwH7OB254H6WxN3kWMNsNiHuf5/tA01WyWxSmtEPy0rBpDQdAVkBLLKpNxrw6xHkN+bjtfELy88WzvtWPGIP9Ay7G2gW7CvAikdWFJ0rdH1F5pbGT3pc//yw3Z/jC1EuVpFktAuXXEiPL0a2oRnp0vQgS5WVxNHj7vYWHeMCD15EQH2Ij8CyLoF8zh3NhFQp4cTdp2H1oyv7nBQ46YhIm2f2jRN/e5y9+/g6IRZsAFyVBR4eziBqMquQjPeK8Z/cszieaHITY1+0JQR8QUSrGlCULMSah97ufRZ+slsQ0orKXT7E3P3OXQvnb1kwokqr5gkPpirhpc4p6sEEc91KWo/74lbQu/uxx8+t7CEori60CPh1PwadNmhlxc+zA5rj3hu3csWnK5hgO9Ey3Mx+9m1A96YIsAwHeckCjPjusENW3ujJLc+MfuKtx+Y3RhqZPA4N1j7Jj1Q0AUWVYZombNJJVDnoZON0GyAwUzKRm764EWjW9agOmT/f9HzgzQVukRDv0/SQcwOadI2l9SX4yy/+u7i7I/Ud7ST/Nv5Hxo68XXJ1oAq66oJNCpyzIY3L+HDjRZdu1tETt9yPiU0SIdsdD+iRyhry5DCcGhPX/vja+SP/feT4C9tIo7/42bMjnv3jSwu/1nfAH1EYwEyRKrz7aCRa37oBA8pKsbHa41d6HcBTtyI7TYf41O76QTCbO0l58k1e8sXtGAHDh0gshCFnDZw/4odDHuxb8tNDmuqW7aPK9bgjAmhucz4tmLDm2adWrlt9I6XOSaXXSVlQVQm6V/XaKtBsLl/BaCjk3eqKglFdAitI8FY11NlcC4B0ZKbdJ9AScPID0jUl7kBIl0caXwYJe+smt4klFwObbAoLIO5SsOiJ1eWXHGJgs7uB5rHJY/H5vZ93Wz8te7TEiZUlEEcSlmHyaCZNVhLxM93MmMcn9FK9DgeaXMLD1YsjxWJ6rozTRMWsfCCWUiLVgUBTVPS2+mDjHV+IZAfXbrc5DHf4yPmg16VPDNhZ6d8LLc9ByhNHpqgmb5Um4TrviTZLmdPM5c4A3kRA/7YtKJKMUDSEIWeMWjjj4ue71V1j+roXRk9eO2X+PrUF0ExHNL2qUx7qZlHXDMMGniHhj5jJqLpAk7BPKBnCwFMHrZh70dys0tMj3h2x4g9f/WFAjVPt0UNz6yke0NQd5KUKMOLkYSun9ZuWVbQ1twtp++glW5Zfd+f8O1frvXToUhJxM8aro6mgnBaCCQ5YSLaG9IoZN59SsewFdMfbdi6OBx14NZdIKgKCk6ZLsIIf6sKM6kTVU240k/GectfhJKC5997KbhvjsnkuL+2YMXLSq5MW1EaqYZPqPUUHWVRf4XxERuw1YUpOe54VbX89vePUrgZfMIiWAj2hw0wmESgMwqq3UKKX4qrTrn5+xjUv3pV5oqe+eHzo9D/MfHWPUwkn6HATFL5igBgQYUdtNpZTDIBApse/ZON1pi+5N/54442rjkGyZDQW6WQtlR67eJ/wqD+qHkCvVBm+/u1Xh9Szy+Z5d/cxR0QDfVnzZd6Ujx59atWG1TdT1TkBTTtuQlYPnDrn+lkZXEvyIGcAgg82lmRB51Q7N6xF40pGqiyTY9bmkzoA0KTBTBJgEGGZjV0CkORuCqQlCJN0CflAWuTrCWWf6uyYuO2gVN52pON95nxWetFTF+3Zm5+l1i5rGrd9HB5NzizKCiQDzJ5t2+Rt3dJPZ3497YZ7V9w7uyE/7oaevKoPASBhYVWAZTs8be79cdNsPHXOJxyWPqdUC+3jjUvuBCfbIgK6H1qNhgnDJt9wxwl3HNa6me31i1vW/mLeso+XjalXazOAEDUM50JLFIIjDlzLFJz7b1bt61X6suiDABAPUQACqQDy6kuxaPzi3hd2o2Xr/C0zR935+r0V9flNHgEsosmeLcmhOOlCJvo9S/d7xQMs60F78ftk9UK0YGX/FJCXyMP1p1y/Ys6l2Qm2UzHQ8k+XD0j6EzCIh5YLR859mIoqwUhaCCfyqBho5fTLDy2gedL40629ZbvEBqWWL75lCbpuwRcEknGqXNZgGAaY+1Ybo+OBBk1Oz+Sp80zgSBhDIbtuETCp5ot2Ie41RR8ooupWoLf3Thzoc+rqRVWFqHqgplvGuFyu7ZQJpzl7CnahMVCXLqolvWga96iPU60CFc6kFVU6+2XempKaMyozECspIgTNQdKJM4AYTkRQ0liML8c3uafN3PziiCfeemLhLmkvDNUECYOwdQLhfgoU0JqffsZJTYFkmdwvYtbBrpxaZkqcrjuzJoMwqsknfiqCYoVQ7vtM901cTrrWSDwfg84YUDHt8peOFv608+wPuc7d2b5K+2+u3hyZ+vFjT63csPoWApo2VXgy7+R2qs4zNe8YaBQgmhrzx5Uci2mFUX9jAxEVotFkackQNQG6kEjXLNAO5DrgAQ3Fr8JI6tx+y7WwawJU7gqbpdaaJiw+K/HQPSsy4Usx9r0+WYal21ATfhSneljbHtrqLamzaa4uPaa7I5okb7R1Ytfz8sgh4/jHjrH35u1DwudWmTNU4KZKM6pM07yejIUFtxplSIivcG0DYkiGnXDFid2UkOIDpF0ixp75i2Uzrpg+pEsb/xA82ezPZw979LXHFu8MbIMR4ZEQ3qYUehKhEleE/EIYp57CaYBNSQgN0BOALyAxPqNFyIyInoTcaeJIkRa3Y+NQWAAAIABJREFUBqtRRf8fXj9n0QXzb+yu21/w1byRt6+8a0FDPkm3uh3CcKBQcYktMooL5wS6EpssSuICEQp9sXc7nWtMp9+p2KHQLsE1J16zfF6/2VnpaI57b9zyFZ+uGEipc53ATq6b26fTVecnDz+kUueP7Xhm5HOrnlxQi1pIAVqUk+mBiFTUhi9PRJLE8DO3FrmC9lblnJbHas5dUl8TaJEFEaquMhCLAgdG1IYmB3iKXtN5zDrXgKYAlNYdehFNurVVm5YPnrB4/FJSk6gO1cH2c/BG9+zXQkimUhBk4qhn5yzkYTsG3iwNFPhJUSbIs6+0AF9URr4RxpU/uvbV2T+fN/yZvc+NfGb2kwtigVqkfCkmL5Wup/DWC5l8SlcTm1NZbDiCw8frzNS5t8bIzLK4NDlWtyFZzNWPxirJEBAwwwg2BHDt2ddWzOw38yjI7MAYdEQAzfX71oee/vSZZ7IBmjwi1VSdBktjmlkENNlkITvMtcTv+GElHaiiHwkphZQUB/IA1AMyibQSB4RSLCkusaH4VBiUO0y3sBe5awKa6SpmNmFxoMn5aq5Wl2BDoBWZ4MCKOQgHA3DqRJTqZdaXD2w5JMDm4Qg0/+n8s/z6iddvryuqFciizFI8zR0+avHMCgcKXDeuRUTTnWConzi0g0hROLY64Stj4ogR38im/gD00Uux/dd7j4h3rQNjCk6857tOzbF1qJH2ZWjPksA5Fd5xNxYSffbUjAijsUdA7UWTAEUACUNRD3dbjZR8RFtBPGHgGPE4TLjgnoE3nX7byo5cT2f3WfD1vGF3Lr9vcW2YXm4JguRA0JOQZJFfI+nmEei0HKZuQf3D8jISlutbSnwJli2hG6JJSoKYlFBk5qH/Gf2Xz7pw1iEJNEecMvyQ8Tr//oRzUntKd6p79B1QggRELFiWCZ9fhp40Gf+VRbMy36xOAk3G6aRzUFCAqkfcQkBZ9cGs0RFMBnHFFf3eWf7+8iugAWEhiJSZgq5QBMCl2eQSVT6EgebWrVt9xx9/fPK57U8On7Lq0UXRQIxV+Osp2xW6p1AkNWB2TCBG0XQDK8TFNkgGjCZAssR0F3F+S0bIDkKvs6AqAViyw4p+5JCFmKEzFTE2HLfMOrnV4SyV7ipGpAu8vNovd2BwExXNo+EeRc622OvLnjUFmxpFlFpluOb0axfMuGL6QXMr6+wYdqjtf0RMflkDzbSlVoadlusAQA+KJkVFFKHoEiKxMGbcO7f8rql37GxQEmgoqodup6CpGhzdgk4K1QqgBX1IkViw5UBUuZhraytubmnofm9GQYRFqUIa+/jMBYshT5eYThTClIiQHkFBqsSeNn5en2+Ts7k+ur7sgmkX7O7O1HlXRzQ/rv04/+W1c154Y9sbo/bJe2CqrowFhaQooswGJptRJ+j5pIGmJ4vhRqK9AUyCxNSLoAiwiVtLj41GUNIKFkjmSETvxj7YMqF70v+H2oCysXJjeN7Hi56b/uGsG5LFcdgsBEI8Lh795ZvFo5lupoB4dX5KezpAUuZ0BcguCc/VCyJZdCpYETQRgYYAjq8+BuumbuiW8WvmhldGTfrDoxWVWh2P1jC+bawpu0qvNEU0dcDvgowUXbdA3F2V0z9E6j82HIZMiaPrhxC3EEgq6H/29ctnX5ydM9C4NeOWrfhkxaDuimgeKkDz97ueGz5p8dRFtUo9xHwfbNLINHQiQbMexILdbpa01fG1vRfD4fJkIdWH+ngCCFGqlAoBye4HCKgF8DeoKEoW4NH7p/S8aca43SmiZSUkOLKDFEXd3Dqw7EmKHCQfqhHNzCbsc3+5kyxLolKsBsJumtotXM0SZ6az1Z4+rWcolNZGp7ebans0GaquwE4aCAT80AUTMT0BISRCTNktZMe8IcHtIC4GpjHdK2Di76eXrOD7M0OWzNGELsKbnz0Q2wCUCz1x0XGXLKi4puIoyGzvHcv4vFsG6k58f5fs+smeT4LPrXv+2U5HNB3im1Dqkzh27ioqc3FGf08RN0xFaawUWydtF9Y4a8pvmnDTjuoedYhqDbASJuOVkIc1c6MQAF/Ij2Q0wYnOLbd0x/e8s2kHh0cyveiZW2zCQvymATGswjF1OBRE9WlwYgJkO4SCVJH95QOb2vO+6JI2buskh2NE86QppzrbI9uR9HFxcbbZXN6CU3Y50T2dZqHPSaInzeFqWjwwAKSTJ51bWOa62dB8GLaDyGN+t4NnPHPp87d264M4hE6+3llfdun9/XcbBQk4QpS3J1kxujw4AmBMD4I4Xo6CgOqD0JCApmmoM5MsiqhIKiyD7AQdxFNxhEPFSCaT0J0kSuViBLdF8MlL/+yW8evhNx6ZPu9vi36ZiJiwLLIipehrnFnb0rXZpoOgGoBk2hBS1E/IMpOSbOQoxl96261alSQZjulAEyiiaSMi+nDZ9y9b8PRV2UVDuh1onjxs2fTLv12KxxrnrfIxL928Y7uzmxA6oJDVVALQVMiqCDMeZ2NlWjUrs+9742t774NbICIbDqdqeOL3oRBUQ4OwTcexUjkuO/3SeVddd+Vdg14YUFcr1oOcYGSKqGquQD9F3o/QiKbXhB86Hyqfff7P66cue2xJQ48G7DOqAJIkYnUEriB6e+3d2uct3l6vQDYdnaSxWSKOtgNFJPqYydSkaF4l3jMtOgloEkZkeRLyIWfnbOJkpr82owYg81LIqYwHE9z5n0/HfGOcXP59PltEMBHE9WcMXPjyxXO7tRgxm6Y81I/ploH6YN909hFNIvXK3LvVK+bI7GQOaakr8Nf7UVrbA5unbBH+7vy96BzhnOpeD/V2kjSRhm3EzCi7ZcWnIFYfhxQkP1ji7bmuKG0NhGxV7QJdr0rZ5bRZVE5JWVlNgJ3QGeD1BVXmHCQIEpKOAV8qgNL6MnvRlPl9vi27ysMNaP5+63Njnlz97Lyd0k6+MqdwpFuxwXTUXO/qtAOU94YwBxgGIZpENgWeLWdBa5FkYmQ4xN2kwKYlwt+gYPKQKTf++ju/mXOw34nD8fs+avyohPyeP2z4sLhvpG/V587nRacKp1b/veHvRedEzulWkfbDpb1ueO+Gpcs/XT642yKa3zLQPO2BU5L7ivZqVWotpJAMK0acZ5LkEJlkkcCKxRipr6n4rmVwICN23vK5sgJQd6O0rWo4kH0qGugfKQoa5EOrljGq74ClMy+cOZR2pTH/yt9fWVUVrIFPDEFP0aLDaOLeZpc5ToOZwyGi6bXZhC1TRr3yx5kVdU4VkoLOuMpZ42yPG+kOq/sBTY8TT4FsKpCVFKY5Ta5PsiJAj5lwDaDYIraZEQS74P0fjPcd/GMe1abNzZTv5xIlChJUU4PaoGBA3/4LXrl43tFIZhaD5VGg2RJopuVW3NbUiQeej9KqXtg4eYNAqUGtWDN2Y3fRqMkjduzS9kAoFBCrjyFYEGCDYCJBkQ8SapZ4UUMbQJM7DfFVWFoOxzX6YCl0FrJ3GMj0B3wwUibMmAkpIEEIC3BiNvIai5Afi2DmxBntittm0T8OeMjhljr/b+e/S0Y/PmzfLq2KFarYFHZ0gSZpqLHxjgFN7lud3tgIpnFHCBIcF2nk4yMUPSJJlGGSNBJthgAVKoQYcLxyHDb+dtMR8Y51dd850PmoUIskoBzHkQRBsByHPRx7y5YtykknneRWbh3MK2r+Xdu3b/f3Tva2t7Bfb4EsywL9kSRJEKnM1d1iakw+ofCELnW06m6gOfzk4UtnXD6NAayDva2JrykfPXP0jh3yDghhEU7CRjAYQCIWZzqZhmWCqdiQ2xTj79IqrwWeaCeimQk0KYukEV2DQpohGRL80OoV9Er1wIw7p/W+MMBtEP8Z/2f5ub/7jx3x4kZIUhC2mYIgkQQSHz6yTR17A8jhBDTpmo956DuOnt+ARi2KlGzAJNCfzZYJNFsMuWlrX3cRzww0VIVlD5C0mF6+QrW57rDLsyWePazbCdoceZs+IB59syioW93F+KOWBMXwIxQP4uofXL3glktvub+v0PeoTmYWz/qImAQJ/D3xyZNP55Q6JwIybZbApRtcIEHUvUA8gPKG47B5/Aaa/djkR7uuddb2HvXcyO371EqabJDUE5A1GaZt8NWVW6nW2nNptrKiHTL5ot4LSO8LFd9KMoyYiVBhHnQnBZ3cMCjARtW6joIiFMPe5th7n9pz0NPoh1NE84nNU0c8984zC2v9DVxf1e39nC/rpVvc32dWJVKazSKgSVoGJhzR4FQLNrJ5nsA8tU4DYYj+i4bwm6vuuunuk++encV7efSQw7QFHMcTAuW1510tLN/tqfPvjlgy/YqXhh3s5idKUv8p1+9ADwFxMQqDVBwoRUoJBwKXVGBJSR4qvPLoKnSRLUa8/cZV70bS46v7CzdaRmCRvOip+EysF9DL7IFB3x844+krX0hTXTbFt5efN+vfdlTm7QNSRLcSoKg6iCklUuFaLo11mHA0M29x8ZbFoya+Mr5CL06hyl+NhJLl2s/zk2fzH+fGE48y08yPAKTqDyAZi/E0to+YFBIcy4JJafSWJbGZGcnMi/aio+wn/Y9y7xm6vrartZnhGKTpPuTX5WHgDwdW3HbZbb+l7Eouj/pf+dgjAmiSvNGjHz/2tKej2WF5I9d2jEWx3BGKy9bw1TJ9TFV2qJJwXPK7+HLC5wQ0SXA7PbZQ9KX3E+V2QksiKScRRwKC4kAipwpvuUU9LJ2C5d2tWZqArZ64LxEr/snQ81YEga3aJIGq2AlZAkJAhkMyOm6FpJQQ0cMuQ7gmbM9+eEnZT4WzKw9Wpy57stTZ0406ml1VDPTK1pnXPLby0dd3y3ugByi3LfECA8/9w3tAnq7qfkCTGpv6hgNH1JkeGx1C45zJsmgKBOIR2Qa0uA/lsd7YMunItJo8WH3r6Pfs3wJHItA8/d4fRvcWbQ+mChJoTEZdOjQVU3L+sxYELJ3JCoPcP2nwZeMnG6BdXcQ0oGxDSjM91nOZm6acKSkeyNBSCq79yTXLb/jRqN+eL1zezLVrY+XGXufN/dnOqsJ9gM6/U1MFpAyyOf7XA5peUz+/49lRk5c/UtEQaHQLcvi0uJ+FbOb817JLZ5g5NAeavHSHQU/bhqgqrK0tw+COny5WbBZN9qqJHC6szgrPW61Id0X3WT9ooX9M57UlaIaGSDyCwWcNXPDSpS8eTZfnOBgfEUCTKomf/7/fE9C8sTOC7U1RRDcNw6q9Xa6Ht7LRgXw7D4VVJfjq4S0CEaP7Cn2bCdj9Lf633iOeHrWd/GFJAsIS3Y+9yjZPay2sALrBRibVkWCkLKqRaA48M17K5nwSvnQncfAmAU/3WEWCXW+h0CzAiB8Nnzfg7EEP/TTY/VZYX8c29Dz3xQt27SrYk103ZL3P7YLdKNhOxWLXzL2mfldgp6T5VCTsJEwif7tAfb/UV8u3gq2SeZiZBkNvIKXnQ+kVJvkY8CGZMkDae/mxfAw5YdDCF6/7/VHSeHY94+hRbbTAjWtuXLbsk2WDGqVGiEEuBJ/rlinYPuqUEa9Ou3za8FzP2dHj33LWlI99auiOmBqFFBARTUQhKAI0v4pkMtVUUNlStsiVrPEMHhjHjoEEJtCajo6RIYauO5BECYrmQzJOvrIASBOSgGsKKBQKodZpmPXAy72vEq5i6fLMbWt0a9mPn/2P3ftK9kGWLBg2T93SxkBPLhxNB+hRX4x991UdlnNxryePc3ZJOxDJCyNlJJAykvBF6Nlx/ibx1dO6lZl3mNluHkB0LaAz2z6T6tCsob1zsYCAN4dw1O8phzB5OgKnzeTpuIimSKouVARMQNOTUaP+oPgYH7On3hMXfvf8Rb+46M57+wZPO5ou7+gL3cZ+h2Xnbnkvmxo2FU/9++NPrly/alxnLCjpDeD8DO5Kw7qsLTR5nFKBj6QinAgjf1cIX03dJmx2NmsnCfvzxNbG1/Ye9/wt26si1WgUq5lbRSqZgqqIMGwbguaKeXsvmA0EfCritFTP2DqV+vGib5Ra0gRocQXBhiB6WT3tdZM3HJQ0evnjZc7Owu4Dml1lQVnwdKFTq9ZAYjOEDSlis9QXG6OynChIR5OcfygEkyLpFVlBQA+gtLEYi+9e2PvcwLn7TVo5vq//0oe3zCYc6o3RHdd709qbli//ZPnAuBaDKZu5OwPtb0G5eFq/aSMORtv+1flr+eDfDd6x3dmOcCSMRCrOqEe6mQLp+hMXfT+Ou3thnjZiGmimtZD5lCa61r5Uj0ngQwsGkKqNQ4kEIEoWUkaKUY8KUkFEogXITxbik8c/bXU+3BDb0PPSaVfs2lOwG5aQBDunN47nOoMKQHm0J3b+ZneuZzoYj2y/73hx58zBzy7/3dIGsx5RoQEI2TCoYT31DfeIZu5qGdgwJ8F7arFmrcZDmMxKmo3pGfJ0mf2DtJKZsxvp+VociLrOQkLKj15OL1zW5/xFv7ru9vu/L3z/6BjeBT3rsOzcrd33uL/cPHf5p8vGxuQEs6CEbkGWmYiKu/R0EYWLKHlgsH2gSe9MUA+hd0MZNk3e0m57FU8ud1IlcZhyDAZ0xiNhPB622gZkP9fZM6iS3Av/Z95QJ8jsdCJRkmDrFgJKkLkW2AkbETuMi8+4ZO6Cyxbe0AV95ICn6O7UecG+Aix/ZHnpvwv/vi/be7nx7TGLVn7x+vBkvgEjQWQsCxbRbL2BKkugycYuwpd+EXpQglPjoLy+FxY8MK/3hQIvJDi6dW0LuBxIanrrcPCMdwuZuuxax703bsWKT1cM0IMppEjrpd0RqZ3294Cm4SAvWYDhJw1dNP2K6SO79qntf7Z/e+Sc6Fbhy2AjRTLDInPfsRyTAU36SSK0FiNAtzi25fiYrhz2ZOqaHNrYkUzzlMzm6b2XoVk2zKTNinjKfaW45sQrVk6/ZG6b3u7EyV/95YoBI1fctDRe7NZ10VqVISeKoDEP0uw3Byiszsd/3fk/Zd8LfS9LL9/svz7XI0nxZV9gX+gf1f+4ePpb0xd8Y26D4wN8qh+pRBKia80qWT7upCZQ8ZDR5B1PzydLkqsn+M4eM0UuM/oKNz7hczyPaNJ30y+4Xq9kcy4oi3hSAlJSkacUQavVcMlpFy1YdMXso+nyXDtHxvG5DlNdeCm5nerG/7p5/tJPlo0moOkoJkST+DMH9jrvENC0BYTiIZTXl7YLNImvOf2r+dc9uWTKqhppN6xQknVyLaihsTEFxSfDIFFvSSSKIMzWjIo7AzSpyQwHJHhNADMYDMKwdDi6gwInD1ecfvmCeZcu7NYXpvSpEmdvXpaU0A6kzns29MTChxYWnSucW5NND/kv5099Rj4z+puGYAp1Vh0UlSzlUhB97viWg4UcG79Ij5vOEQDURD7GfGf4wpcvm3Y0ZZ7Nw+rAMURdKd1RyhKXe3vvNVvSWDpwioO6C7mrHHfccTSVUSl9llNq0yWPeHfEijc3vcmAZpJWwbmAHDotcZQZXhIQiedh+HeHLZrRzUDzz84Hva6e0G+n3Id7UVMRJQHNYCSIKBV9kJpRgKRsjP2Kfbz7ZfECt4iPpUptApomc47JzFKIsgqbXlDaKW7BJ0vwmxrEmIz8xnx8+eg3B5wDqb99sumj6371x98uixc08oIUin4ZPEWfqwelJAvoUdsD7/zyD+VnB8/edVA7Zxd/2amTvmtVhqrFZDCJaCoOySezZ0IbFVNKrL0ogmjC9Nx/cqAeEIZV3TdKJ2MnL2rp4kkGNl1ursWAJi1cbBbt5ul13vcFW4Oc8MMXj+CK7/ebP//KWWO7uGn+5U93xADNMe+Nnb983crRlDp3ZIObeRANJ7OEjcXV+e87GtGk1Lm/0Y/S6iJsnvJVu+3lcTifrnxiyFMLpy5JSI1IUmcWZIiKipQRZwLvTGdTt/cXdW8HaKZ7rPsCkbaYbVoIKhoaGqO8Kk+R4CSAcCqMHrVF1qapX3abXWXJUyVOZTcDzdkPzS44Xzi/Lpu39ZRHjze/VLZKQkhhfUEgYW2RnGo4VzaX1Dkdq8kAuY5ClhGpKkTDPfva7SPZ3Ed3HbNnz55gWVlZjM6/3dnu7yP0SWx1tvqOF44nQsa/5LZ+/Xr19NNP1/fs+SRo2yXsjZRlWezRo0d0W11dwbH5+bUdbZjGxt0l4XDPym112wqOzT+2lqSR+vTpk+jo8S33G/GHESve/uLtAZQ6NyQj99S5CzZpQs5L5GPkqSMXvXTp77slojl73bKrJix7cHVtqFZW8oGkHYcRT0LyiUxzWFYV5iNPsnCmBzLbimimq8jJ/pdkx9wcuVcclHZ+4aZOyBMB8kW3VYSjPhwbLcW6hze3+66uddbKX21ed81v1oxfWU+WpAk3EWJQ6lWEI1mcs53tZgM9Gorxn7euKT0rfFbWWZtsv76rj5u5ddrQx159/NU90i4opX7EKLDCAB639KV+RosChaFCG6ZIdsvZtR+dgeZxFpX0/DS8J0pBcVpfUDW5LTNVEQZ6BdIs4GsF+lpJkGBUCTheOREb7ztavNnV/cE7X7svWnd9cVefd9Sfx8xf9flqBjRtSWdA03EcvsqhjQ1MnQeaRBgPJcMsdb5xUvsDU+Z9HXN/Dwe9HOxOViJUkI/aeBSCTGDH5tJHBP9avmOdApq0IlNhUoGRacMfISCrs2yOoIoI2AGEY0Fc9b0r5w778YiHzg+dnyWZsu2n1d1As6y+DLPGz8q/WLg4Kz3CHo8XOPUldCg5t0jQ4wZEnwJbT0GhlB359mY3zvEZxwT8moBUrYwTrVOx8pZFhWfmn9lhIJLre/BJ/JPe8CeQSCTw1ZYdF5944snvJRK10Px5DhU8bN345UWWYIqSI9gk1WUZFhzHciQocBTHMXXToYldFjUnFmtAwBd0kpYOlSgZEATa34Yp+FUf8/Ihy02KSti2IBgE1kVA9fsFJj8iSfArqvDhJx9ecuZZ3//TPz/+uJ9lm85PfvyTdz/44K+X+wN+nHzqKe98senzyx0LourzOfFY1D77h33ftS1D+Oyzdf1OO+XUP322fsOlP/7JOX/64IMPLu3bt++fNn+x+ZKTvnPCH3XLdDZt3HglUfyDwYBdH62HqAiOKTiOKTsOVGJd6Ug1Jp2IUuz84Jjv/an6s6qzHhhy370dbWfiYDfuaYxoZaaUiCcF0ylgMRNZSIlaQLNjCVv5ceCsZlXJBzr3h7H/7ikGQqYOXZRJxj8qClJMip9VdhYD953dxv557IqV61YOiCqNEAOkSJFt5+XfTIEeSqwIgohwLIKRp4xcOK3fi90SkT/90b76toKtSlSrhaYEkWpohM9Pljw2UimqJuZjour3QW9MQvCRt3yLILA3PqYLSESufctoMNylhrmWejMbFV6GNOhEyDZE5Ik9ENrjw84JX3do7nOc5dKsdTsJaK6Kh2Pc75qK/6iS0BFhiKmsgZLX/qV1PfCnX/znEQE0Nzmbit/f8n6/qa89smCvrwqGStIcTbrDbD1gSfAbMpeIlvWs248FMF2/DRrb0p6W1EcsSo/zmgsy4mARTUbF4JQpevgq2dXHfSg0SnH1Wde++rsrXjhoRXCdfe8P9/079LIdDjc55v2x81etf200VZ0TYZsUD23bIaWCnIAmrVqpGKisphhfPPxlp9pr+eaFV99XMf6NWEEctXYtEBIhKBJ0Uh3WHQghcEutzK1ldWU7jc8qnn0qLMeAnXAQCvsRrU/wJRv9SQLFYjH6n9F/3m3nj77/rBy4jq1dSnenzkne6OUJL2cFNOfumX7jLyvufIXAfqqOfIyBSH4hYok4LDHJ+VvURlnO1TR0aSpgVQJ9rBMxafDDg85Xfvp2LhGrjrxrHzsf58cRVz/Zt+GSx2Y9sjApx5kFqiRJzKZR9asgQNgYb4QoUvqK+wGTZZ+iaAQ0YZpUcWlDJQBp6cxW0YYFvxZgP0lmlIoyVFmDKAvQkwaXnaEZXCR+Ezm1OKzKPp6IIi8cQSKVZF7RkiKxVCg5udB16ZbJflqWxWgelK6KxRLseun3tK9f1ZDQU/ApKvuKeGMUgXAIjmkhZfLPqdqXPqfz2YYJn88PPZaCLxREo5VAwtJZVEwWVCh2AEUNeRjU+8qZU8dO/WVH2tXb557X7l745scrR6T8JixBhi0DCasRiirAThmsoIxTz0QYAgFxipZw+1KFCv8YhY9sK0UqY2UNn4ynEJJD8JkBXP1vVy287bIbbmqtqLC96/zV//vVsnl/nTeIIprkQGbouZWdi6T0QmLZooRgYwjDTxq2cOZVM7ocaL7lvFU+4ukhOxp9MQoqcn3goAYjpTP6j0zOL6qMVNy1diQQQalXzwghXVnMWygdBPMimF7OxiLNWxGaSQDURIoiDvSimoAihFC4Nx97J+3o8DhOdKglX8y/5lfv3v1adbgaqiPASTnMlIGetC5lD5TYjThAWWMPvH3ru736Bo8cMfBTJ5zt7Ah+g0SkFqaW0UddvSHJ4kCTTDOyjQiT/jFFK5mFpETRyibaBEUz2dqDgtiUPSTNTvbUm/YJJhX0qe+Fy0+7YvHv+k8/KAVw7b3fR+rnHX7hDvUGoIjm6o2vsYgmeRJTRIYmtq6IaIZTEfSsLek00PTabJWzqvctz9y8PeaLISHobjWlK4HUkrXVCaCZPtQDSyxDIUCiCY5cE0QHjiIAjQ6K4vkoaSi0Kx5Z3IMsNLvqeZY9WeLsye8+jma2Ec0538wYM2nBxHk1RTHE7TjkIBuNYDbSUleE4HdA0CqXqkev6jwvmocl9644KAVA/3D+UTbnzZef/q91fxuxF/uQCMdgaCkG2vR4ClrQh1Q8CUEWQdIupmVB0VSWmiSv4EzHI9rHMd0RmdAf8xV2JwVWqCawBZEUVGE16oCfwJTAgKpHO6CBnASvLctmUi+qKiKVtCHJlG6mIg8bkiLASJK2LJeDoYpif1BCKkWRUQK/AgxyZyHcT8BjHQ7/AAAgAElEQVSHUl6MbuLKx7gyMkxHj2ov6DvJ+k4nmTCy/lQQo2IP8punL47RPYTQs64Hdo9vv4Cv5btw+59uXbj0o1dHJMIppCwTol+CbiUZzUWiSYtUdyTAoICu4hUh8NSJzIoMHDa5cV6YAsQNaKE8mA0mIkYerv/B1QtmX5Sd1/nUr6be+Ow7z75SJ9TCVrJcIWXeMD1nam+JA80RJw9bOOOKrgOaH8Q+6nXj42O/ri7eoVShGlpEgEGZJiJmuBkdURJhUz9kAg4ij2yybEFTBqpJwiYDaLopaxZM8AIKpgTRlOEzCVgY0FWLnSYghaFV+lD7QGWn57zF6yuuue2d37xel1cNVZZhJExokkbLMVgCxflzeA4CUFZ/5EQ0M7vW7/a9NHryq/fPj/mjze0hGS/TFbnMdpXPFhukayyzyLLFkCWnT1Duimth86tJYwA2oNALTFXnEgqjYbxxz9Le5x4t3OwqONDmeTr90nX7FWX5BcTRXLF+1Wjdb8Jw4pyf0RXFQBYQjIfQp7Fnp1Pnmbdy3MTjrLpInZgKx5GgUnTKGNHcRCY/fo1FdbzBtrUm8BgAmZ+x9JD3h/2D21TwlAI52DhwaOBO2vBJfmiNCob+aNDskT8b+1AuVdyZ19DdQJOI8isnrszvK/TtVOr82Ck9nIbCBjRQhaPECeBsIytJpsnrRk5yIKOrpgJfUsPwc0ZUzDhv5pgsu26HDiPe5P9s/Z+rJs2ZtNwsNBFFnBkEGAqJx7s+bF4eKeNns3WMyx5J81Jz/bd75a31TdbG3Ty6UFRRoqp/DUgSQKVmkKn/y7DrJBwT741vJnQuC0HXffObNy94fetrI6vlWgiCxLRrbblJ2JlScl5Vq0nf67Uj4R2X95uWc6ELYmtKAQExDLVexaAfXL/w5UuyKxi78f0bly3+cPEgM2zAYJyzDnWftndyjycbVX99ACNPG7lwRr/srq21Lzlp0kmpPQWVakohOSajyYuC5nySNGz38lvcYDp17gqD079pLKWf7ngKk3Q0JdAamxZFfieAQEMIix5cnNVisOLTimvu+s/7X68J7eGLL1b9l3Fd3tjS7r20soPrDPTnX753RKTOW97h8Y8c51T5K4GAg4SQgOmnxSutFPnc1yp9rMPtyNPi9OC9fkR/IwINyb0z7maakEnfS256PoSFMJwGGyPPGzptxs9evL3DX3d0x6xbINdhKusv7uoDR/559LxVG1aPMQJWGmgyL9pcOZq2gEiSRzQ7Im/U1n2RXeUvnrh5+x5tBxr9CTh+FU5cp3wOkODcJFGhtCJf0VteSsxdqbc5mTe7P09FmIAVgU2S8aBIkgTLsaEZCgKNPlx+5pXzb73stvu6Amx2t7wRAc15E+d1qhjo7j/8ZtLCz2dP3udvgMOsp0VIbkrTplQo43S5kbscghHkHhFuCGMZkzPaX+i5q/r4p86nBWcKZ9aeMOEEpzpcg7ifKjolJIwErxg+UESlO9/wZm2Xgba8G+/O73bTp7RsSCYBhwS4KQBGBVqWhohehOtOu27GzIunpa0EO/o87nrvroWz/2/2iFg4Rj2HUQ8sxZXDojSzq9VHWINAJgfUPFoiudamntSKIChwSEuHKKTwwxcNYMgPBix6+aLsJIRu+cstK5Z8vGQAAc0kEjkLtjOOJms3CYGGYJcCTbKVHPi763fUBevTiw7ug8EjljkDTfYgXMBC6XgXvMjBAHyCglR1DHmIINjgQ49Eaep/n/iYIGmnt4UbFl77qz/c81pdeC8YZyIjWraf13onz56uOh/9h/KzSw7vqvPWbn3BtgUjH66YsqA2WI06uQ625ECMAHYUjGNs6257drLd9tvdjVZy4ElA0+LBSwNQ8gQYtQ58gTDkegURIx/BmM+e8fC8Hhd1YXYv11s4ko/v5qng4DXd6PfGzFuxbtUYimiaQhKi5bDUW65Ak7hoBDSp6ryzHM3W7v6Yh0uduoIoGhQTgk+CTwKSsTgUsqw0TZYOZDaTzAeWFzS1tnn4Mh01Sg9+7iN1ZDYhqjLxw1xvdB0IigGEEmGUxkucmRNeLs5WNsi7pu72OieguXDiwsL/EP6jwwU2J999YnJ7z62aXmQx+TxuKcadIFIypY/dwS0HkEn3H0gFUBQtwfYHt3XrezTzy7lDX3j92Ve/Tn0Jp9CCoVqwGm0oea5cVnuvWVuRy/aO68jnGUUZ+8envE6Z+bOtk3Y+vEopMgIUlA2QArwoTkw68EcDGPDDIfPnXDY3K5mSO9+5Y2HFhooRqXwS9aaqYhspD2i6KT/6btp4NFMCXCs9yaHIp+WZjvHPmKOXBREa1JgPA78/ZPHC82dlxQkb99645cv+uWygEdKh03e1tQLtyLNz8TH/ISIUDWPkycO7REfzhMknJXYFdvnsgAlTMjlflbWXGxnOfGNafQ9bRjJb2Yn5lAOyKkM3HMbJF1UZNtE8bKBALETxvggqHp6TU3qUgOZtf/zNaw2krsF4yhmN6xZTd7S599vPAYprC7H2V/91WOpodvS+R/zvsOWvf/z6wJQZp5osiH4VdpJ0YDP4MR09mbcfjyG4jlDuLxmPwrUY9bJ91EcsEUrcj3BDEIvGLyq/RLhk14c1H+b1Lexcpqyzl3h0f94C3TpBHsxGHvf+jXOXfbZ8LKs6lw1IFtXMdo2OJgHNHlWF2PLI1pzba86XM4Y/uuzJRfu0esTUOOCk2MvCagYE4r8x5mC7WxpounlQto5LX52bRqfAgW2xyk0tpLDCATtqI6LkQa6TcNXZV8279bxb7zknkj1ns+SpUqcyL0udYS8SRHfbhgUlcTSXjF9S3FFe6YfOh3njJo7as7XwS19jmKx/eJUjRXMpFJFSeXtzbmYrUbh2W75pBwKaxQ098M34jlWwduLUzXYtnnCMUx/cB+TrEHyATpXy3OCIb7kA5tawYEcxnzeEsP1dnbpm53NLQltJ6aejQun9uYe051/doZ80gJlc3sYRLEiQUSCE0CNehHsuv2fo2NNuXppNm9/xxq2LFmxZPLxOqUdA5BHNhFdUkq4udCOcDHgST0zhWQQhxaMp7rtInGlBFmAQfQMilGQAA84auGTxT+cNy+baCGiu+HTFwFQgCZ1y8jmPSO5EIIiejubi6Zfn7gxU/FJPp0rZC+Ix86IPrzo8wyjB67tZAk32GlNRkUy1PjKcuAkEiTzrIE+KIFClYtWDS3ICmXSJi79Y0P+WN+9aFS2obgKaXvacEiM5vH+Ev3vUluD9e/7S83Th9C5XBcmmj3X1MR85H/S6ZOq1O+vz6yBJJmOSkMiQ6PPDNhJNROzOfnFLoOlxPxmy4VFzokg7ccDn0yDUS8iPRzBh7EMjb+31q0UbKzeGTyk5pbGzX3t0/863QBcNU53/4q4+Ysz7N85euW7FDZ4zkGhaXQM0LSCcjLCq847oaHbkvsh6bdjUUTsa86KICrWAZiMVN5ienKopSLiVl4LEmCZtn5JJeRCAYkI0LVJR9HvaDMiKBLPeguqXoAkBJBJJVu0bSoXQ/7Tr58y6dMaNHbnu1vbpbqBZWFmI1VNW9/yR8KMOD8I/fOishm9KdoQrlWrO3yKJE50TuXQPaJqc38PS6FnOFH7dh5JkGb65p/uA5oj3f7Ho7S/fHt5g7WaOV0THNCkoSz7XxHHiReDf2pbmCROycuVluowD2h7gpS+i6lUtAMfSISQF+BokDDl7QMWvf/br8Wd1QoYoswHv/tOvK+ZsqhjVGKqHkqDqfCBFrxNdT2bEhDiZDGgQ2OTcXwKanscyK5QiXCWLSJJQNElBpTRcf+aQpYt+WjE0m4d2w5oblq9at4pZUOoUHcx1S6+1BOQnCzDshCGLp1+ZfQXuGuet8pFP3rR9l1AtqEUyoCcZtcNkrJ6MAhBv5vH67n59uOXU5O6Q8Wvq96weyhGRogpkX4D0TiFHgeAuG8eZvRL/+8TngVyb6PVtqwaMXnrTivqCGhaAY+YyXvFyF8ygxTWFWHPn2j7Z9tdc7687j/+rs6b8+vHDd8SKkyBJLkG0oKoKDFOAmSSpuXaoPwe4OM7O5BvrHem+JHCtZHo29H7STpIE1dAQSYXgb9Rwdd9LK6b1mz3G073uzjY4eu4uWw9/u035ecPnRY/9v8cff23TGzcR0BQ0m7RZ2EXlKm9EHZWAZq+6HjlxNFtroe888h1nt28nhELAME0YBlVE8z1FygnR9bfmHuSdjAFNfkBmFCXNGWOncLi0hyTDiJtMroYCMKT/JiRllCZKccUZl8+dc/krnbar3Ohs7PUfT/9sZ3dGNMuj5dj8YOf0S+9Y9svbln392kt1BY1IiVyuUDQVzll1HSlEquJwdU+yrRpVTQ1KnYZR542smPGzad1SDNTz2e84u9VtDLFIPsBqAHwBBSnZADn1ebqBnX0DveBhZ4/L3D8dQWdgpQNAs60vaw9Qtpn6pypzP0A6soKNPCUfBbEIvr4jt8zD85ueH3XP2w9UGKFEk/MIASV6n5gyNF+ceILR9AxsQWH1riCg6absqCBRtWQGMOO2yX76DA0DvzdkacXPswOaY/9z7LJV61YNiqlRVuSWa0STyRu5Wuf5qUIMOWHQkplXzswq2vqD+36Q/Cb0jaYXG4gaCUikoejoXH7GS3F61cYtecWdBZpun1Cp4tgiQS5OXxB1GfmJIKof2CN2lUXp2n1ry4YsGL67MrSXjbPseRN2IQ5g9g6KfFySAHI/O1y9zg80fsz+bPbIR15/dEGsMIp6qx5KSEKcPOZNB0FfgEmxORIBwuxWyuz9cw/1gpmkm5meHkUHip9rSyPO31+fEELQ8EFucJAfL8Cmx7cIR8FmLrNAx47tgvVYx76oO/cirsUL//fiU69vfOPmqBRPA82u4mgGY8GsBNvbu+e5G14ZPPG9SUt3mLugkFe248C0bPj8GpIkMExvjyfb0cbJeNEP7epywTwPb2+px1Z0IqgSU5Yk9lc9QQbubq69Xka5WI6rz+g3b8bFM8a1d80tP+9ujmZJTQm2Te4cB/ID54PwoEeH1VbmV0uGL5aRKm8ii4gEGAhxC3rWA51kSwzcKDtkvHbvq73PDXStv/laZ23xdU8PqKzLq0HAJyHeYCIgB5l7ii4kebQ2S46Yxx7IDahkDB/NUudtpMCb5cszelIzoNqZFDp1bRLf15mqkS8lwbcvgupHanMa117Z8cqoW1f9tsIoiENMmOz9skj6ic5qkoYmzyB4dBVWEMTydCQR5aaG6fZo3WipkBwBupNi6lG+VAADTh20tOKS+VlFNG98/8alKz9bObhRboCj2V1WDETXWmAUYeDxA5e+fNXMTl/bGuev5SMnD91RE6mFkOcgZUYZZ5JRPNxqfO8xuwYxrQ81ac5v84/TYMR7st7igwTUVb4KkBIS8mMRzLlvdu+rurA4b330H2WXTR+8e1doN0SRgLPNACYVbpotBeU7O4DaQGljCfbe23nZpc5+1cHaf339+sK11WuveHL5Uwtq/DVISDEIIvFnuTkTG7OkJrOAnK7LrWXgzgP0J6NYj6wmTAsIue8uFXIluZSX35YQrAlg8sDHRt76nVsX5XQNRw9utwVyGpDbPftB2mFz9ebI1I8fe2r1xtdvaUAjBJ8DwbAgSSK5mfCryNIZiKpOtXoNx8bKc5I3aqspfrft6UHPrnpmWa3TwATdE3YCoibBajSgRlToOhGmW7Bp3ZepWVTKIScXiqi4xS7NvpDs11xTY2LIECalKs0EIPsDsKpMlKSK0f/7V1fMvLzjMj0fOR+V9Huq3769+d3H0aRioK8ndT41/eLO6VdPXDz5jcZQNUyVRyHSG1v+EtB02yvL1DkTDIYEf70f434wbNELl8zqUuu+OV/PuO7u1+9dXRtqZCvyoN+HVKMDWZOR0hIZriluSrK9yGBrnTDXEYBVeXpbJru4ZarTS5s2T/VnSiClC2zodOnUKlEc6BduhJ95x7qbWyhHv/JDQigaRI9YH+Ozyeupd2e9zdo6e/Rv3rlvfsxXzfRRmNOMt+AjDT6SN2I5OR6pS0sZ0aTHy6r5Rpeqy5CYzqgORZIQSIVx9UnXLF3YL7uI5g1rbliy/LMVQ6JSAwQ/5yhmvaXT5vwMBXoJBhx33dJXrnq5U0CTQOboKcN3JIt0VFmVEPwExG2m3erlNlkNnru2Za+f10ieFqZ7LekMjef4kkltyQSZ3rVToZ/jg5IQEYr50DPRM/Xx1E+zqi5vqx0/jH3Y86rnr9+1N38PRImi5w5MAtEtx+VsHoQrb3QkAU1qht5PlDtV4RokRZpkAE0EUhRVJCIDhYITrv0y7wyts5cyxzPWtpkLW++fNIa740PGuWgxyF9BCwIZLZDyA+1HPYOuQwL8SQllDeW4+OSLl758/Zyhu3Z9GOjVqy99enTr4hbIdZrp4svJ7nRE6n3ikyefXrlh9S3kDGSLKeYM1CUWlK68UUe9zrO7A+DYR453dvv2wS6g4GMSiDOfM25xGBKQNB3m1sI4efSOkiAxRJiSK0qfCaQyn6r7exrA+aTeoiKPfuUICNhBaLU+DDl78LwZl0zrUGTzo8aPSi6dcem+7vQ6J2egrROzS4W+uPP5wZNWPLS0wR+DJSpwaFYmlMAKUAghMO+97MnodBpJhJwUkUdi1z8ZPvf5n0/rNAWhrT7zy/+8fVbFxldujgdSjJspmwpkS4ElWi2KmpqCtl6ksrWfB+qbByxAaxPA8j7YhKq8b8jojC1HGGYJ504MDHg0paE9kWUme5MRkaeCEsmWOaiTXWFmApl0HkpPm0CB1Qv9Trly2fxLXx6S7TvoHTdzy5xRD755T0VNoIbJJbG28SInLBzXvNi7GYXAO4kHnAiogooSSXJMQUAPYMDp1y+df+HcToE577Tj3hvHgKbuT+bO0fSAErWjKCMQzcPoU4Yum3HZSx1uwxMmn6JXR/YqumyA/nCnlwzes/v8W/KIm3QP3SLGNHBUQJkCtogWaWxzK+tJejhAyhw2y/qwhTKBfyrwMArRM1aEORPm9j5XOHdnrs+/5fEENK986bpdeyJ7WUTTHUW75muOMKBJMn43Pzx2e3VRA+rVBlg0cLlzFvMld2M+aW535pDBAihuh/Ecn9L4kn5PRXfuAQxItkIdSc937qjkpeVbCdbQVKCaEvzRIIpqS7H5yc5RtLqmA/xrnOWIAJrr960PPfXJ00+v+vy1XxyuQHPRzkWDxy+avHSnsgtGgNsI6klupWmmSKfIlT0iqQaTV9KxAU9rLozdZmGI+wI3mxS9l9BdCfr1ACLRMK7t23/e2ItG//rHwo8b2nsNutvrPBegSUVX1z58xQ69p466WAxyvg8m2SRSr6d0G9nbtYjqtHe/zT73Bi8bCJl+RKrysGvSni55pzY6G8PPv/vC7xZuWXhjLBiFSMVLNglR8wIm0+WathkN6OCNtAYT9zu0zTtq8UEmIz9zYM9sY08eyI2Etgs0KXpotQ00SYZWaARKE9/BxKEPj77pOyMXdPDW29ztlU1zRj301j0VVcEahig5KHJT+t7E575I3Fc7I7rlISi3aRiNktQviNNJQDMVwoAzrssaaI5eM+7VVZ+uGEpV58xrPpetBdAMNhZh9MmDlk2//MUOA82CZ4uc2lCWRmMt+xWzFHSD0RQRpeyM5EBVJejk9hQD1IgMnZT56VgLKFZ6QfgGeGPKym4BmdS8BDQvn3bNrn0ENOmacuRlthxDSuuOjNT52vja3rc/f+v2SrUSlWI1HD9Va/G7FYlR4tG8PA3VzDGCgt9sjnKXyC2BJqtFcNPjLjNWdKiPZMfv9F5p+hmCD4XRHrj9yjuG3fvdu5fk8kodPbb1FuiSSfHbbtwjAWhSG85Y/9Kgx959fNkeaQ+UEHlIGwjlRRBLRCFqFICzASpqJZ1NFzim7dq8h+Ct6Np4KNyJ2d1YNl3hY3ZcR1D2Q7YkKFEV1/6w/5zhFw//9fnC+dG2nu8njZ/0uHT6JXv3dGPqPBegSdd90qSTreq8SjGu1CGp2hBCKhfQrjegqAosJ3uv3XTqzAa0lIJivQQ7fruzy4oQHnz3oVmvrJtzM5vIBRM2VVJmllmyyKyHfL7Ft9BLYbe4hFYjfWnrOW/ntNZUkyRkhmMMWzi5VnMs0pkptk8xDgcoMgoR2B6xtz75dTuM5o610axNs0dPeOve+d0GNL/Xf9n8C+Z0GMxlXnW3AE1GBZARaSzCiFNGL3/xyqcGt9dS5AE+9IPRS9/8eOWguJZltjED6MpkHelwMwUWFaVycvqcsDQFNWUJGvncJ1NQJAEy2ao2CtBqg+ipl8Y3TF1HrPNu2T6KfdTrsmlX7TwKNNtuXuoPZz78A7vGV4kqsRpiAaCLKVgexSAjrc3qwjxqBAtLu9zK9Ol5tJKDSJ4BIU9zvnlWkw4Xe+iQu1Tb1y0LJGTtIGhqTMj92nMGzX/x5y9kpb/bLZ3vCDnpEQM0n/70mWcO59R5Zn8qf6TYFnpIQpVei5TFHQ5IAonPxC1WcC0XdJ0BmnRC5nQiwS9LME1OdFcdP5R6DUN+PGTOmL5j7mtLZ/Oz6Gell7500Z5dBd3H0cwVaK51/tb7hidHbt8X2oYopb1cKKI6GiQISCGV/aqY3h5Kv/g1OPU2/AkNZUYpvhjfedvD1saTB5Y8MH3etoW/rIpUsmrmdKG8G81p5lDSXQNSeyNEEw2vyV7QvRYODFteWMsoaGZMtYnfyCKBTH/RLbRxYahs23AEh1cxkwVlQkKkIYzaiXXtXWmHW2i/iCaLyHZhRDMHoDlmzdjFKz9dOazLIpo0lZMMk6Mir7EQQ08bsfzFK585INC8/7WH5iz7fPG46mA14kqc0Xey2rwnRgkbU+NFV6LJo/WEK9z3iwFNSYGj24z5otoyjHoDvbSeeOXeeUx8O6vv7+BBTUBzN2usdCFdB48/4G5HQOqc0uV3TvnN9p3mblhFFhqketg01npKDZkN4C40GYOJgUQqyBQZHczzKueLSW8QIbYTOW5xpzvqJJ6Kgee+lSXFnkVQVdmPZEMc4bAGs8FEUM9DqVmO9RM+67LxpCu6yeF+jiOiMY8EjmZmR6rY9NJ1ExY/sao+HBMMzYDtc5BMxAG/BNknwEy4Qs1UQk4vX8tClwzmXJsd1E1T2KYARVZYJa1ppUDUT6p6Nxst5KUiuPbMaw/osNLdFpS5Ak26/1++eduCxV/NG9mQF+dST4LE+I6JeJLboGWbfnEzPWTfJ0YFRJQgnISJq753xbwFlyzvEM/1QAPIik9XXHPrH29/vTJ/b7qQghe1MZ2dQ2Ls8VQP6GL2U6xxR5d01MEbbdKTCLdtZJvH6/PAu1u8bYgCj+IysOdAc23dDapatRXkWQXIqwo5Wyd/lVmVlFPbdDfQHHjGdcvnXTi33ahhazfRpRFNojm6PFfF8SMcy8OQ0wctf/GK37d5bRS5OvbJE+16eTdSvjjIcCs94WfV6hTJ5Lxz6gMmhajZs/ZOxsNWkizBThkIiiH44iry68K4b8w91950/O1vZPW1nTiIgOal06/aWRluCTSbXWgnzpix62EONAlk3jr1F9vrxAbE/QYapEbI+TJMKwHH9Apx2Qvu3jSH6V5NHwOavNogPYCk33f6wO2fRM1OqzzQ4pMCBu5nuQBNqnsgTWlD0KGSLERChFbvw9Rxjw3/Vdmdr251tvqOF44nxeKjWw4tcEQATao6f/Tjx55etWH1zYcrR7O1Z/h89fODJ82avFQoFBFHArqV4BE5emqyG5qjApesgSbp2CqwyK6TNCYtC+H8IBprY4xbExT88NdrKNXLrPXjN3q5i2aX2t3yRl0BNOmCi58ucapClfCpEmzTgZ60oQU0GFb28kbsObjhDcmQIRoONJ8AtUbD7T++c8aUCx7rtM92ZuNubvyo5CczL91XVVDJf80GVnruXJbJe/AHU7C9WZW42+/YIJJZ/5Pxd6+6mAkoe/NN5qjjlXMzoOmiVaIisGI3gAAl+SOzdnYATeeF3bpEXOUAwvUFmDjswbF3HH/b/BzGwWaHEtB88O17KqoDLkeziyOahwrQ9FKYFB5WoCIUz8PQ0whovtgq0LzzjV9XrPzqzVH7pF1QVJu9O5a8v/Fox58DpUXdYUUwePS7WYCbuD20oqDQlwlRFxFMBBBpCOLJm5/sf5zvhPfOKzmv251diKPZb/o1u44CzeZPljjwIyYOYWoDNUY9zIADmyS3EuR17O7rCY26es/8Hc8EoHzwYI89MwOSEdFkmQvXiSmdJfEWn1nKu3l3IjuuRJWfV6MrIZ4lCTSEUBwtwz3977/+omN//v7xBcfXdbxfH92zZQscEUDz49qP85/76MWnVq9fddORBDTpYZ32+JnJreZXmlRoICWlmA4ZKxRK8erHJmKb+2hbpNLbC/OwV56s0Av8SDWSHRgtF8myUoKuW6zSvdDMR//TBs2bffHL6Sid4zjix/GPy/q91G9nd8obdQXQJF23a6cNqNwe2CYKcgpJsuVUuCg+k2DJdqO3h/6YgEZC+LYJCxYiRgB5uwvw9dSdOb9fpU+VOHsLKXXuXiSFjxwqmGiSij6YQLN5U2UoGLQEmi6HODPmk3br8NotDZwzIpouaCWgSacgQMnCbl6qnKrv2dpKQiAZQWmsHJsmrMu5nTPv6+XNs0c+9Oa9C7oLaA4447oV8y+cOyibbjdmzbglKz9dMaQrUudsriZ0R/avosgjmqeNXD693/4Rzdvf//X8RX+vGF2XVwdoDpuUfYoCHdlznCl1KTgy16UkL3m6IA84OBTpFCEQTSJlQvQrCOoBFNfkoWL8ol4/FX66O5v2y+aYf0T/UXbFjOt2HwWaTa1Hjj+Dp4zdEc+Lotapgy+sIWGn2LNkBUDErfVJQMpi/BkqZPQyHhaFMz0ZMJe7mV5fZALMzL/vh1y8dImrPpEZtUkAACAASURBVJHNg3XBrUgOfLIIp5HcWdxrbwR6quXI25WPjVPXd+n4ku2lHs7HHRENSM5AT/zjqSdWbVh945EGNF9eP6ffc6899eZeZYdsRXTEbQOiqiAVNaDma9BJ2D3zKXYCaLIIAvGjggr0qMH+rogaHMuGqDnQyV1JARRLQX59Pq4848qKeZfPG7N582YtPz9fLSkpaexuC8quAJr0gj6/fvrVv3v76Tdq1T1IBYjvSDp/rYPzTr3QTP+GJmoKvVnMms5vyQg2BlF5f31O79emqn+WXz7t2q17CncqSc3gpjQeOGPixF6FZg5guVM323LnDKDpAkQvsslBBN8/DTY9bqX3S/rJ5I6okt7zDud4Q3RDpyaBTM/Eic5H9D1TYJy+SCwfk66fMuqXJ928MKfbaHHwrC2zR49/45751YFaXnXexRHN68+4bmXFhXMHZnPNXQk06fvpOZHNrSQIDGgOOm3EslmtyBvlTylwkr2TSEoJgOh3jgTHEOBIVtbUEw/oWsxL0u0oxAhhvHG3XNk04Vd8EBMKAnV+PD7u8SHjjhm3LJu2y/YYHtG8aldleC/L8TOlgeY9O9tTs5fjcKs6p0jm0IeH7qjJr0fKl2BFP9wqyR2faB3sFf/Qy2OJbHHIU99U7OXwxIxLk2GNt1+tQQbK3G9+c8022DjSlNnJ/iHwPqeEVRgxl1sqAUpMRkmyFHdd++uh95x4z9JP9nwSPKvsLG41d3TrVAvkNBF26pu6eecx742ds3LD6nHdATTDiXC3WFB2tEnWO38tfOub9//92ZXPvhmVG5DyyPKiCFu3oQU1GIYBmzgxbYQwW/t1WsusCQmw6ou02xANCpLANeB1Bz2EQuTXRMzPJ2/1jNTR3UCTBNuXTVxWfI5wTpYaKk2t/G783d4jZ4zaXhOoYhHN9GCYg0IGl73xyigp2kZSPJy8XhAttFfc8cYx5wZy0/Y79dET9R3+r5XGMImqulW4psaiBjYTkLYhSDTxc7AmKjJsMkRnQI4mALpGAsReetp97an6nqEN/oOdw60g54M/zagOBFmCY1rsJ/u1aUGiin3T4BEoakv6ar8ER6e/0OTCK0ZZyov9LaNKNCOi6QFKmnzYpaSdrog7657bcHgqjqIkRFX2BSFWAUN/Mnjx7J/OHdHR96ij+/36jbvmL94yf3RVsDZNIc22GEh2BOaQY8siyI3KnwxiwBn9V1RclGVE872xS1evXz2YW1C2oM109AYz93OVC6gLBGN5GHDK4GXzLn95yHZnu7+yqrJg1l+nTf7zV+/dtNXYAbGI+LIme+YiRNgGLbCy96pOr0Dc/kP/ljUfzLokZE3iOreOiFAyjJK6Qix7eEH52cJ53Vr401oTLtmwZPBt79y1tCa/iqXw6XXir05mvD6bxuen6NlQindu+UOPs8NnuxyZLM91EA4jTuYtT9yynaL9NWIdHCJNu9mG9NenUQUXxKUAJpO/ZZXmNmjxmAaaGdXoPHcus4UnHw7IgcmAqIgwdT63kbudSRk4CogwR9gU0xXOfvN0fd1+7KXk6YQWUXgUVquQ31CCB4bed8V53z1vzUnCSaT9cnTrRAscMUBz9Jpxc1etXzX2SASa3vP87sMn6nvVPYpQKiJqxmDq3PXASXKrN3ohKQXGhOppwqfN805vpVPsJ5rr7cP07OS0BIWiCEgldeau11MoQb/Tr5j7ygXzmTB54TNFTk04SwzIel9TCsTjjHk8nEAyAAKa8ybOKzhfOL9LODKj/t8Ni5f836Jhts+ERbwAb6DrxEvTfNfmQFM1FF7UIFmIxAMYffpN81645IWcCoNYBGHKgK9riqvlRvLSpvQOtYYkMT9pyzQhyDzN6FCEigAlgTIWJXInQ+8+XZAnCNRPbBaJlWURepwi5QIDDxzxuUCc0eTc37O+JDCvYsj8JzvGITCqwLFMgDRfNZdsZVP0R2AgMy3ZmqmhlwEsqYo8barDqo/dfkG/pK7suVlZVHiloSyRj8X3zO5zvnD5jqwfXRsHEhdx0ZcVo2oChx7QHL1m7LLX1q12vc5zBJrUdYnrKoswGm3ky8W49sTrVsy/6BWW1r//7XtnLf9i2c07xV2wAiIs1YGT5E5lsizD0s0mIJ7NQ6DzqIDpsoDYooX6nSIDMROapMCX8iFSG8GS+5eVnxc8+CCTbuvV9QsH3f7u3ctq8qu7HGhKsoD8vfn4yx3/Xfa90PeylO/IpvE7f8zf4mt7D3lm1PZ9wTrExRh8hX4k9VhzvN2siKspaMGKzsinR3QVIzLpM/QRq0YnQXaJ6wWzl96ErAHJuAUpRHWvAuwURd8VBNUgGhrqIZI7VrbFnEw6iVL6zFKBA1daObFrc+dP6o9RoMAsQFmqFz5/8GgavfM9p3nSNZvjD5ljxqwZN2/l+lVjjmSguXT90n4Prpz09i7/TtHMT8GUDfhJniGWgKKSa4YJmwZt0tl0nUyaRagynpZXwbffA/TShI7MXnjb0KH6JIg+8kg34dQDJU4hJox4eNztvW6fH3khbDf625TaPHD/6CDQXDpxaV5HxOM70hmparbkuTK7Xq6BobiuIx05sK19vHtI24LydDbxEX26huK6Hpg3fn7vC3DBboF8+bLcXv7s5SufeuOJN/dou4REMMmKMBRNhJGyeaqRIkuufrfkal7LssAKvQh30h/qEmmDGxeDUtCIOLpqvgw9akLxuY5a7jkZtKQIjvtvLzAqEfgkjTwIsBLEF8iI7mgqQKCTGRtziuV+QNNtB3L9oQ+ZXJG7L2MHsIt1kSidxgvJmzKCiTyU1RXiy8nd4+TR7UDze9ctr7hwXpZV510INKnBPXDnF4FaEWPOHrFs/s/mD3nLeav89qm/3LFHroQeNCD4JNiOyUN5pGMpSbAMk4sgZLvRscTOIQ9sVyszHV13BESSIZZJWvjQ3G8lkund1pL1iwbc9u5vV3QH0CSDstK6Hnj7lndL+kb6VmXblN193N+ctb0HPzxse2OPOOrVBLM+dQwdopLh7JQGjBxgMiqme2GMWs5E+Fux7mSLYOoMHGiy1T+lxOkkKUDOA8wa8AU27UvjnCoA3qI4y5v3OMKtjk00VIsWhKAAJ+ogIPsgVcmYOGD84Hu+c//yv1Vvjvy46KR2DU2yvLQj7rBcholDqjHGvD92/sp1q0cfyUDTa/BhH9z4ymv/u/TGpC8KGvt5upSDSwKWHUEzaaCZEcBqqihmMzyv8hVFxgeFBqiazGSB/JYfcoMISRFRrdUjpWSZSfgWgCa14fETT7BixTGxxqmCoxLIySH14uIrz6M50+lGobSLnY/8ykL7iymbchIT/9D5UPl0y4YLnnh1yls1/iolFo4hQXxdKkCnIJDCgZ+X+aaJ2wOW9Dtmw02PlLLhlJF0U6aSxAKjoEy7LPOf7JYozUWThTtTeEDVA54MsBJfUlBIrIRJEAmKCMOgvuD2QEq1GxabbPZzBWGd2U2te0DTtQqnfseAJpu4+MREkTfHAHx2BKGGMAaf3n/u/Vfee3sfoU+iqweiO9+4s2LRl/NH1QTqW0+dexOqh4MP4AzUauo8F6D53rjlr61fNbCrUuchfxDRhhjEsAohJuDaM65c4Ydq/fn/++MQk6L+QRtRJwWLFg6UM6ZO4lgQTK4nmZNgtvu86bTEZaGFMvFFqV+ppoqiWAEqfrOw/JJg9+pkttd/Fn++uP+v3v7Nqu4AmvTdvaJlePOmtw9ZoMlA5qSh2xO9dOwzanj2zOeDnUxBclEaWyimgxQio8x4C0yWLqeFcDplwQFjMzoXY+nQJEbnoXQ8f+8lBbCSQMgfQDyWgk0djgapPBdo0tCdJfWJA00e0eQb/0nXywuWMqKaIqAmBBTGilCWKse9/e+77ge9f/A/p0ZOzTKd116vO7I+Pwo0WQu48gpuFSYjp2eUwX3bHM3WulzvKceY0YJ6KSHGWQQzFTcg+USoGulD8gIhgarp2nsLm9P0mvs6u4MI4QUnRS+2AE30swlBViwkafIhC8xs34kOAs1FExdFzhO6TsZkzsY5gx5f9eSy6kAVYmoMupwlUOZYiQuH2wpfsbvi1ZIpQbZkGGYKPVKl2HPf3i551/7m/C2y8I8LH1n6fwvvMIoMJIQkDFrZE9BzoSwDkVT8qfGIZiY49AAk/Y6ikrQwMVOA5BdgxbjVqZe1ppQqfe5FxdMAlQ5mIt+AYqrQNB9qGxughP0wKARBMwxDqXw/j3fpuYFwcMKbg/isLKWWqZ/IIhzezVgcZBL4sCXGIyxsKMKK+5eVnx08u1v4eh0Fml61/4EsKA9toEll/bx/qBSFNhwoxLewiX5hQJBtmILJAki2QFWBMteXSlos0uRXZKSo6jzb959iWKIIS7chizKMhIn8/AiUuARtn4rlD7/a+1zhwi73Lu/s5S7ZsOi629757eqa/Eq2SqMoJJd9zUGD170IOldhZcEhmzpf67zbe9zjt26vDOxF1ElACYrQ/D5EG+OARFx0/vSZlipbHPIABTNcoCUoo8E4/PNMZOlmgDyKDmE6kkJjBY9eAaBb/Id6IF+MMK0zSxIgRkTUm1VpvnouHTB9SY7CMnhMSF40oXtIme5D43LVxA8n9zxhn4zjjGOxbkrXql10tl8eTvt3yeR3KNzw2PfGVazYsGrUv0JEk9r7jtfumLD601UPVwX3CWKBCMM0YVAxiMfJlPkrZLsDQZvPqOXKkhcCuytLD7CIsGI0eBBvU2CTj625ZYQ5rCg51miKXLXF0exqoEnf+ovXb3n5/2fvO8CkKs+271Onz3Z2F1BEY4nEEuOX9iX+8dMYuyKIKLt0VFSsRBAQQVCjxhhNLBGkF2mCYu9JlCTGGBuKYKdv39mpp/7X877nDMMKAjO7y7LMuS6vld1Tn7fd71Pue/XHz45qCNUhoebAx5vh0WTeTJ6MBJEk9SwRpq2jXOyGCeffdtm1Pa5uMx3dq1+8Ytrqfzx9s+mzJUEl1UsBsVhMpBxdv9/PNgPJZJLl7NJ/rC84xUB0Lv2OfpoOtQ17Zye/l86jK4hXlf6j81RVTYNOOs8yTIiygKSeAFQbKcGAEvahWSNaQ0fZhSgSqZs4hQBsS+dKxtGiZNPELu4A6G70nVJAXRkk2YJJqQimjbDlR7ghjME/rX70zl/fO7q95p3ODTSHLVu59sn+beLRZG0gIRAMIdbQyMLYakCGQewJlg1Z4SFtiQmIefhQVTW2iZCSxFAhQqdNQq6riA14ocBre5Cs01CJbuiuVabemvZvb3u18b7cd9HH8y+8+rmxKxsL2h5oEllFaX0pnhv9QqfzaFKa0RHTj7CourxJboAckCFoFvSoCbXICy2Vgkj52Wk5SQdN0jzI1hU+F35LirZVvjjz67B1ROKqUAxsOpvUKNAd5fA3BrD+ti+EYc8N+8tL775yeVNBA2ISLUr70pKtznXXOeclaX2joiXugeXV8SwXXbdB6Ugm7bgoypdUEYqFMXXk9Iuv7nblcqL6yyUtKocvOGAuzXWK6DQferABzdft1+VThVONQx/obn1jbhGUAK8YNkyLKfskifaIBvQeBmKag5HtzhkU4DtPt2ewnTuXqVRlhYEXb1hFMqIB/gzeu2x6wn4EmvS6I18buXDJB09clnWO6Q6+9h3APNMO5M3TJXhTKgJxP24fPv3S0T1GP5GNqVpfQ4oV27FdpdzVd+wt/hZ8atV93PS/kiQqPbpX/BuhMKSWGLOwGKI4UwukqCSIgihQBbcO3dJbdOvLr775xVG9j1jz4Wfrf/7zE3+0pjZSa0qCJIRDYcRaYux8b9ArHyscu1vewr5/P+vJf7z/r751iUaYXgGSX4It2zCTvCI1rR6UXpAc7wcBTVOGTZO67Khd0QtTtaeusET9FDQ24UuSiEIjhAsOP3v5rLMWZ0UNtLd2P6iAJgP0JmQ/pSbYkMhrRMWEtEEN8rYjj5GlE9oUSVaLlRCrBufYZew12a4iIiCFZJj1lPsJFJsFKI+X4LeXjq0efvhVC/a2vdr7vDTQJI+m2bYeTZpne0QrsXrUs52q6pyqywffNnhjY7AJZiGQiLUAIfJ2ExIz2aaEIg1uhks6z5H8mOlcGadl3NB25k/3QocrSiYWDVpOJJoznI2qDpTFS1FUE8b6O7/YqZdVvXTpnBfXvTykWWqGRnNHNge9ZzqJ1PHCWi6hCo9Osb055bxHADEoQbEk5oVP6kn4m8M4vOH79vv3/munLIBsXqWrX5PtFNHp7HKwAU23Af7w5b0X3Lvq96uarQhbGJJmCrIqMV5MVuBBXJh0uLu3DDqJTA8iDwNlAM10CzsuKBZzBQRK0XJ7Df08QD2a9Hl/tf96SP97+39Dk6nBaILcfB+H8kLYhZpNawYpN3zmAnoHmLshIdXyQKFKaQMoT5Zj0dVLKv8n8D/bBSoR7yJHzz+V2A3xZggBGfCJiMVJYoPn9rthrXSY2e2LZGxGY0Icmk4+lBNqpw7mIaUlpgBE1E0io24qSRTgyZvm9fqFcN437Wk6DjTntao6d57o9n2H3oatkx2ao9mGHk2qupU8sLQkuRQZP6ZHUJkX2/A6ibxO+JJYCuhcAqEwUxCIO5aGi8sz6pintXhAWg0qsxq59WYWAoLJAIqjYdzSd9zg0Udf16a8qLn0FfLqLVq3qO81z12/orGgPg009xQo2utnCkBZQwneuOZvlX2Cfbbt9XXteOLb9tuH9J/a75umoihS3hRSVgKKxwNdowIdXrxHQ5v4lt0ivsx23yki5iwp3FnhUBylwajzR5IYNVQ2/ZIn0VUOCiQDKK8rxPLbF/WojJbrlaEjd6J/OnzK4XZjqBkxbwyWoMMWTf4+dCMnn4PyMHdblZ4JNGkKYnO35ORtWjzSIvPkM0GQWPTFYkwLNmw/ILco6N7QC+MHju971dEjV7Vjkxzwt+46QPO1kXMXv7d4sBUCNCuWThNzFe44OtoRJ+adage4crckpJSxU46mARQaRehWV4z1Uz/vlPaatW7GBdNW3LVqu7oNCFMYMwmBcutYuJTvyNjESJtGAoYJwgDkMSIeMn0HcCQbueAqE2im/38XFYO5JGjthUezorkC8ybNa9MczcxR+71pR9tbgtugh6LQNROSV4FJWvK0qVZFGAQi3JxdJ8RDfYRnv5J6DQEl8hw7ieNOTiJxJtLfaGI2NY1pNZcYxbig9zlzrjnnhnEnCCfUHPCzB4D+r/Zf/NKXzw2MNMehkneKpEwp9E6qS1TS3iov61vdyilK2tHFuCKMu1IoioRUk4aAz4Pi5mJsvGVru49BApqz188aHCl01A0zF8lMmTy2TjrziruRc8eD85aUo8noxiTOo6nGvKj+n0HLZpzyaFbKQENeHb5s5Ucr+id9JElLC3+uvcip7nfCnK15TdObLwdYu5EOCpnS0ZoijYYBHzIC83QKXhFG3IRCXL+xFBsPEuUOEyMBRURIYQhhFDYGUdpcpH1011ru2uokB4VFl65b2veq58Ysr2ehc0eJximuo+rrXA4KnRfVFOHlMa92Co8mAeujb+fh8kY1wtYHVmzaKv0l3fbux7celW7uPy0ZNF+mC26oKMgJSzNkyQsOJUGEQbaUSQzVC6tOQy+hJ+aMe6jHL4RdF4ONWzn+j0s/ePq6WDiCptQWKAVAjHIrae72Sox7M52a813yaRkpO/Sx6VN3sRayv9HvmU0ESJoHxVoxplZNHHhlxdUdKiSQS7/r6GvbfdLuqA8a+caouQveXTTYCFgw7ARkxzXPgELmguBMzHsNNC0BVAxU0VCKDbfv7L7vqG/b2+f0mN7Lbgo1IoYIFA/nO1a9AFHfuaTanDJGhM/yQk+mYCvmzhQlu+ErSe8KM72ZbLbZ27fbxXl7CTQXTVrUZvRGmW/xvr0t8Prnq/rdsWzK3Hr/dshFIrSYCVUhTkh+pmkbPFfH9VhSCpFLPsyApsw9chlAk+WRm+TSE6FJOkSPDMsyoLZIKGsqweYp27rMuOv5wKH2JuUbxuEqSRJ0AumMeFuGoTsl7LvrIi44Y+OTgzZX+5pX73Ovml/wwR/34Nyjznl44tlTbmxvwuRrV14/b8GX86obfLzClg63eenbdgoV7wFouoWrtkIeEZkBzYEnDlg261TOVbmvx+CXhixb8dGK/iRBabD45b7eoQ3Pb91+hBOcccNoEQmUa4BS6IXekoSkeGEZGud5JZBpAj6DyPcV/G7ktEFjKsYsasO3a5NbEdBc8vGSfqNXX7W0sZg4drKvct7VCxHQLGsow0ujXyk/IbR/N58EMo+ccoRVo9QgEU7BDBiMI5cO6sffYo7IXAt2E59hXsw00OQbSOoXjOnDITEg3QdWXKh6YDRp8GghHC4dgk9uXiu8s+Ud/8ndT45/V2NWvThyzj++enXIFu1r6D4qYOO+ASsBSMTvy9SIHOUx90ZuZC+XXsIcDIDUIqG4uQBH2N/T/znlbYdcLpcbd71r9+c01abWHPHGqNmL/rt4qOYzYApJyBBYEQMlq/PJITuPJu3EArEA43PrrB5N15A3vXDL3fPfnX1zlPSIFQOmZJCQBXTiSQx7oKWcbGaq3COQZJoZ9C2tm2M3W9QOBpoldSVYNHVR8S+FXza2aYdxbrbGfq/H0KkDv6kvqhXrrXpIHjAScj1uQ/DKEIlAkuh3XMk0Z4Jiijckw8c8XDtr93JmDK6byGp26X9lQE4I6JaowKSLJwy66rDOt6juq31fj7/e89z7z9sYK4oyoMmKjShTg75V3jegKZrc6+GS9fOQNAeaIcOPsqZyzJg4s+dpHVCFPP7FW+Y8vm7mkPpgAyzHZZUGmozUOcNSewE0WdaJIoJ8NUrUgwHH98ta63zYq8OXLf9wOfNoUrqHuyHa17Zrk/NdoMmKt3iEhJSDmMQgAXSX+SJqQ5JVRsUmiDY8qsikc4lOqcQox4RhE6quLb92YZu8UzvcZNVnqy8ZvmL4Ew3FtWlcnxbQyjUBxgDKWkrw8rWv9jzRf+J+q7AnkHnC7SeZDd5aIeqPwQzqaElEd0iD7ibliuVj0j7cGb98qbVgMm6jDPEkxqu5w7PJx7lTUOrYUFFC8Nd7UJnqhkUTFvSwGq3YycUnN+9Nk5bd1t2u9W2Fp5uIlG4yvnVJlGHZEp9HBCc1ynlf19H07Qje3jxtxzlUc2trIoJiETyNHkwedOsl1/QavXTf7tL1z+4SQHNt89rie/59733LPlrBgKYhJCExMumMRSFHoNkzUoF1t7UPQXRbdrPLX7zinufXPvvbOnsrdJUqg5kEN2TVxzjIWGjTJvojx0vXOlE7/TJ7AJqZO8NsP2AvPJo9Yz2x/pb17dpP/2q/fcigaRd9Ewk3QfNFYTFyekCUVQhUdks6FSwM7vC7sY7lqko4u3PX4+kSFRNFDPFLKjZsQqXEoGQDpVoJSqKlmD1hds8ylNW1t3cu26b5rutoUaIc09GvXb182SdL+tUr9bBJLYg8CS4lEo2/PbVaxkIkOcCckzrT0zk1ClXuB1pCqD6u6rE/n/3nK9rje1rf89G1j1bd/Mxv50fCLdyj6SykLuv8vgDNNL0RhQehwhP34eLjLlo+9/TZWRU0Ueh8xQfLWNW5rThh3I4wyu6ewfbvElSDu36ZJKCzsWK/YHUaAgRTgB234At4YadM+EwPCs0iBBrC5kd3rXX8xvvzQ3b/7Fe2/7P8sgV9t9WEt7NcJPJCMl5ZAhk5hs5JGahHtAe+uW7TnkZLuxqnz+TjrTqpQdAKNTQaNQxgikG+dux0MFc1j+pQrqILNIklQqKNIltzCWg6INL9Kjd33aEtE21O3u5Sl8lKEEK9iB7xblg0eV7Pnwv7Jtt73cs3PfL02ueu3C5uRlyIsLYh2jVds3mxIXFzspwOZzyT25Pq4l0S+SytSxywpK6mx0z4xQKEmv2YXDW56urDRnfajVOWn5rTZfu1c+f05hkXv9PwTsGD//nT/Ss+Xjks6dFgShpEw+KKJq73IUugSaseeTQPjXbHJ5PbF/C0hT3esd/xnyycHD/0nu52g1ILS7EgyTISKQKdMpsYLNmERezXbuvvclfeqmtkamC3xYvy9Wev6I2+uu2rdu+nL9ovHnLVvSO/2RLejAQltDr0Gnwm5DQ8jMSX1IRcoGkR2S9XAeKVlo5hWOic/8OkyY0IjmnSbiQaQhUFiSIEG4qw+u4VoT5CnyxlldqqEbK7z/WvX7tg9ltzByULk0gRDynN4bITPifPOdnAI7HCkt0eGa0qWjwJn0/8PDeBbBgwgzjn++cvXXzawqyUdLL5urlfzK26YeX181uKotBZXG9He2aqGLE/7MGjqdBmwyKKJlrWFHgT/pyA5vDXRyxd8eGKiyNSMxMbyCl1JRvj7HRNhoSfo2P9LYBBH04ggyg4ZQ+sFgMhLYRwSxgTBt0y+PIjR3eawp/dmeOf0Q/LL3j0jG3bQ1v5tzhghQgcdqe8ttemtYHySBm231zb7nPcrt6JyNgH3Tb8Gz1kCjVmI9RyD+JiHEYq3mp9cF+Ph79pKmTpVI6Qj6rz1BAyjyER0MzYlNOD0ylWvA4gTe9Mp+kyyoRKqLUqNk7Lvg7iTfvN7g/9bc49T/135SArnEQyFoNKSibOO7HweRpo8vmGeeCzrcskk1D/dmofZFOEJ+VHMB5CT60n/nPbv/dLm+513+vAE7uEIdbVrgvd/eG9f1z20fLhMTkBWzEgEQ2FQJyPuedo+qN+BjQPBI+m23euefaqu579cPX4uDeCFivGyJYJ9DB7eGjhc/K73J3mtzpd5wCa5U3l+HLylx3ST4+95Sh7U/evEAlqTN9W9cvQCChl0vBkVKfzcC9PDk+H1p1J1QWakk9i0p00sarFMrQ6AyGjEIWpUmwc91mHfFdbzicb7A2eTYkNZZfdP3Rjc0kEcYMIFZ0nkBPTXXwJeEpOOP27/0iL4wAAIABJREFUXiC92eGghZmP4l4CQLrxgYYgnpi06tDfCP9vY1t+x3fda9aGWVXjnrp5fq23jlObkIIR27FyALwvHk22tolcSVm0FfhTQfTr03fZ3NNnZZWjSUDzyY+eZEATHhsWeZL30+FK+HG87eQyt9q8CooMm5gvyGeZAspRAl+jH+P6TagafcyB4fV5O/p2xTkPn7+1tmA7K7Kk9mRCCDkXYvHNabfGUtSMq+vwuYCqy4dOH/TNVrkGmseEFRSQSLWA6M+oYBQhh9DfSRNKd7O0ku4ODyHNhSLLl+B7L7Ypd/XCM/vnTptLIGAFEYiHEajzYv6dC/bZk9m66//NfqdywNRBW1oKGqD7ohBMkkk1YEi8gMctbqONLW/AHIGm672nOggnPSBghuFp8uOWqnEDbup1/bK19lq1j9CHzjhojw7v3O1h6bU1a4N/+PiPDyz5YOnwqBSH4LEgGpxoui2AJnk0ezSXd/oczUzbEs9ib6F3cvjfB89a8ubiYUqhBwkkWSEDEa6zgwDCHumJWgNOfulOqijZNupeeDSp6vyLWzumCGv+2scH3fjc2AXNRY0sNGbQBMtC4pRQxPV7+WTloHMWQnK0ut0cTjbTUo4mB6G0IAk+prDHw+d0aVJEiVyJc445Z/a80x4bnq359td1P739R9YnBeuFZl8LVxeyBF5hzt12zLPJACP9bo8zzM5Vz5xLhP8XSHjRO3IkPpr04R7v0pa2mLF2RtWkFyfOrw3VpwUPsgWaNNRIYUknjgJTQkAL5QQ0q16sXvrUJ09d3CJGOAjuUMvsbGVXwo8rYjmpEozqgqtisVw9ipxQ4Q9pVseBymQlbq2aWnX5IZcfMKHFt6NrK85+6P+2NhTXsQgGEzowLQ44c4307EegefjUI8zt6jZRLVcRSTTDJCoxj8hSHMQSFVaMyPk5tQClsLg+Gy7P6LS366lM81GSrOwOWUfybvI+yufM9LpBko6agqKmQiyaMKvnacJ5bZaf+mbs3e6PvfX4nc98+OSQqLcOmqrz5zoFhxbteljUxNXizXL2oO9yPLrsGyn4QfO8RqJFIfgTQQTq/Jg6fNJZhx1x2CvEe53lkw74y/bjNNV2tnt/2/uB+z/+0wPLPlw6IibFIfoo95e3aa6hc3KvU9V5eX1Jp686351Fj7jjMKvJ1yg0C82QQyqSurO5ooVqjzlG+xdodqRHk+x36C3d7abyJiS8ceiZmWPOhLsTwy+TUBS+HTpnQJNCM0TubDNpXvic1tFJl1yFEZXQLVmJuwbeMXD4oZceULQYPSceYtf3qENCTjgLEZc7papzCpWTig87XA/Cdw51VwIkwzPn5IAVRYsw6MihMy7/1cjxfQr6OCW/bTdv7O5OC75YVHX1E1fOj5RG0xKu2QJN8mgqJNVIyW6GiKAeRv8f9M26GGjIq8OWPPPp6gGNaGBpMfs3dO40spv7xiZc8v6qkCyJVfraXp1JTHo0Cd3F7rj6N9dVjT1y7AEDMumTPrY/rjzlnlO31BdxwnaJPNSknCSLMBy1rVx6ZbemjvVokifzkTceuffJd1deEvfHoRMycjkl3Z8O6YObf0ZsAsynzyq4bdpL8MMFmu5cSf9mWvUu6waTSUt7Nyl1kxdSKggmwujRUIkP72wfKcfBL42et2rt4uqYrykjrUni+fbsJTK4YrNtQGJ28cnQYgaf411AS/YyPCjUihnY3HhH9ikB2b5aZ7quSwBNokB4ZP2jDyx+b8lIytGEasJKGpDl3D2aIiQE40FGb9TZq8531bGInuPWZ2+7fe67Mye2FDaBgLjkV5EkziOn9VmIk9x3TC+b61tz9tzM8JBzcgY/Gptnss1vcYGI+xIUkuJR6HTlsT/pR7fGbuiIHE3XdnM2zBl0+/KpC74Ofgkz7ABxdzKlb08Bfp8H8VQKkirBNpzilUyeNqLpcTwAAnhlf3rDQ2Zk5MAKfMkwLjyx76KFv5o5qDNNCrt7F8r/rUFL8ch7hm1s8NVC8yXTVdlZvz95/LwKDMqFdELw1A+UiIiKaE/ceeG9Zw76wSUvZn3/LC6ctW5W1bhnbp5fF27IGWiSR5O4QDWb8tpk5tG86NgLsw6dE9B88sMVA1gxkErSnFl8YFtdQn3ZkRllg5c8OpoEn9cPjWiMHIDh070INgYx6bLbBo054sBjW3gn9k7lWQ+dy4CmlTKhEL+uAzB3wwa31xamwiJi1qgdX98hazGTlbz9KLNWrRXMYgNxyhFyvXLuW6ffxInkEPWQS+lG8owUhs6ge2OXZUZ0GOuGAoEIzgUTgkpha64mpIgSlIQCNeJFT70HVty8sOfR7Vhtf9htR9hNhbUwgjFENZOl3FOtgknknSmNCDwZs0U2B8PkFNGyRXDF3AxPL9t0EeD2w9PoxR2j7rzs2rIr20yCOJv33Z/XdEjnbu8PXLNxje8v6x9/cOkHO4AmNNOZ4DOI3bIhbDeBUDKMysayAxJoZtp+6FuDZi97a+nQmKAjVBFGNBFlCh+U50VqQpIqIxWninR+FdH72I5nOP3LLg406btX26t7jHhs+KYamzwYZAdXDUkAEhwQe3wqEikNokD0GU44PSM/bQfQ5CEjVoSV6eGzBMiGD75YAOUtpdozt68sPUY4xmEIb+8Rk93937HfKR0wraq2IdyMZrMealiCbiZz2myQd5cpjpBtqG8R2EwA3ZLFmHrpHW0m2bkvXzxj3Yyqic9OmF8TrEt3+1w8mixHk22kFCd0fmHWHs1hr414YvkHyy6JKi37vxiI2owGAy2yEcAXDMDQTOjE1GCbTLJW1WVGaD3h4gmXXdn76gNyoSWg+esHztzSWFLPCNtZuohLWL8vHWtX51pAWXPHAc3Dpx1uNRfGhUa9EVJIgG4n0wUy7PXSmMtV7nIIStjvSQnIyVF25zKXVNYNpbvjmJLWbRE+v4xEY4IpTwkewJv0Q6lVcf+191WNKBjRIZ7t6peHzV393orBcV+EOVlo3oZEXk0JMCl/PkugyRwKtNOioiLy9DoFUG5hKKuMArwpHwKJQpSbFfht/7H9flb0o5ePKevcc32u3br19V0CaG601/imvDHrwSc+WMo8mlR1LuiWkxuVG48meTQpdF5WW4TPpnVMUUpbN3Lm/Q6/6xC7IdCIiEkpBiLjO6QJJJXS+eQpUyjAC60lyVQ9GLly5pEGmrzrdDWPpvup3X9XYdeV1EJQLeimDaqnYpWzfgl60mT8pKqiQnNdSuk8JH6HNNBkOYdEUmynPbXuMyghXdF96BYrxsbx33T6sfjHDfdVTVw2fb5ZShHEFPNCCnIOyfR8OwPoNhS/Ckm1kdR0oAk4JnkU1k3YPywPVAw0/ulx82v8tekc3WyBZloZiIIDgsJC532PvWD53NNmZUVvNOy1kUuWf7B0AAFNKgba7x5Np4rXJ/qQiCYgeWU2p2jJFMJmCKHGECZX33bJ5YdffsByC7qhc8rRJAIfys8kRhPGoJfjqKUobmWkAltuan8RhyGvDVzy1NoXBzSZjfD4A9BISpRVXWd8B6Mv4vnozEHnTFaEJ9NUQK02zFTExyI33AHqbBodxOlsHhnNHqkktwRRmeiJDVPX5Wi5fVslBz8/Yv6qD1dWJQMtTKpZi+hEg+DwU2UHNGlyEE0uZMUjVxoX90jbAKCIhkdSoDdZUOJ+HCr1wvpJ7ZMqsG8W6dizO7Sx2+vTKKT30GuPPLBs7XIGNIlHU6QijLagN0oBIaNreDTJ/mOfv/a+p957+sbNdg0EkuxKxCH5eHWwrCowLJOFhA2iqMkMh7iN18FAk1Qzvp7ydYf306MmHmVsLfhGalGTLPdGpcUzZTCbePwyUk0Gk5Vk+T5uFSZLLneAJtP13VGWSpO0m03PeSJ5Pr1tCCjXumHh9TN7HoWShkOEn1O9Z6c7Xrdf7zl42qCN28si0OQooNF3u4pJ2U7U7mdy2TdWQW0D3eUylHxRbn1470dugK5D7UEezbFP3zS/uSCS4dF03fz7VnVO9EYETFhdmajClwygX58Ls+bRHPnGqCVL3lsyoEVyioE61DLffhjjlGTKkjJEUYRhaFAkGT7TB3+TF7ddekf/0UdcvmI/v2ZOjyeP5mn3/3pLc2kjZ1LQLSZQQBvzXOmNaPro3lKJzTe2n7Qqhcu/N+0Qsy5YL0S9CZi0YVb9SMUTkJyUn7RGuAM0mbqZq01O4XKKyLheS7KmK8vKJjOaC0yumOX+58gZuwWClONZoBegJFKGcf0nXXBy4ZmvnlBRQdv3DjuOmf5Da7P6tZAKxGAwbXSuUpT9QV5bhQNzQQfJw9D3p9P56cYUPveJgC7Aa/qhNPlwy+BbqsZ2v2EhMXgciDzK2dgrJzNn88D2uIaKge59774/Prlu5cgUJZ+LKcjO2tcWVecFqYIu49F07T/sr8PmPvWfpwbbARsxI8rCXYFwANFYjA0Wxa9Ad8FmZqO5QMr5XS4KlHvDo7m/gCZNzn3uPMqqLW4AFV6QtrPsUxCP8ipambTMTYdbM20fi3k83MNiH7gzBwoRFafLN1nUUYLSJOEIvRf+OPHRDlG+yWYMdp9YahmHWEKN0pDmGBVJdYMJFGd/eP0+JOsSUAMyBJqMDRVlyW6Y8Jtbzxx2wrCXiBg++7tndyXxaF67fMz8SHEUNrVXGxG2y4KHSVD273Ph8nlnzM3Ko0n0Rss/WH5xixzZ74TtrGfTQqp606BLT2lQNRUlejEmVU0ecJLvpBd/WvLTSHYt0Tmuett+u+Kse8/dWl9UB4kqzinXj/CFW/iRy2vqQFm0/ULnNI/1mnaYWR+sFVKBBNvMkXeRWMngp8ItPrw4SHTmK6cYT3BEE1i4vPVU5pxDuZsmsbu4TgkCqKzQ3CaeBdiyDEmXEYh6MWHgzZfdfOgti2m9PqHihA4Fmel177Vr56z495IhYnEMMUSZTHP2axgZhSrY6e5U8WkzCVY2LmziEwUst+CW/DYGUGgFIUZUFMgVuP7SG87p1qvgxQHCgNwm0Vz6Xwdd2yWA5uf25wVTX5n2h+VrVwxnQFNIQhEcT0JascVx5Tvr/t5qnSuSCuLR7Cqh88x+dejth9t16jagAAxokq43aVTTTxB1B+MNbNUTOxhoHhI/BJ+O/3S/9NNH1j00aNKSSQv0bhoisRiUEoF5MK04JW4KkBTFISTnKjY0ubrHDq5Fd4YmGRH6K4HRnecVJaWgRC+CL+nH/zv5tGV//+ua/udfeOGSp1c9OVAVbPz4hycvqSgtF2KxpJRMmYLsVQRRkpHSkoRZbUpwt2zL8nl9wvMvPN/vjDPOWG5ZlvDWW29d9Ktf/WqFpmn4+9//3v+Xv/jlClp43nzrzYtOOeWUVRJkUlgU6X0s4pMTLYEWDUCxJZI0onCQlBLjaov04trnz62xm1muFR0CRZ3I95qrz1EH1IAKUKpLQkJpqhRnHnPWY4+dP7NDVIB2Nc8+8vEj1eOeGTcvWhLLWYIyrQwki5BtBXKLiktO6J+1R5O0zld9soopA5m0qmW/Sua8xPD0TAV6VIcakmFoNgqUMKR6Cf1/fPHMR09/ZFTOD+kEN/hb7J3KS2ZcuGVbwTaIlglTczz5ZPscZybVI4OYNTZevznHO33bUDTWe99+hFkXahBiwSjjk/SKnBlC9ChIxXVWC8NwEYW93Y2xE5lxN81uBGYngQ8yQdrjScWODk0Z84TaHGzaCvS4iAqlEp4tCr68p3Mo6x1153H2N8InsAqIXzPHIbRT2oEDstk8L/DqfFUAkjY8QRFaswUfjRjTC1EMIhgpwMaJ+yc9qKOHVZt37o7+gPRO5Y1Rjy99fwkDmoadgELLJ4WscgSaVGVMAOCweM8DQhloX+x/w1Pj/7Ts84XXbLI2IhQOIZGKM6CpGSmWgyj5JZjf0iDjT0jzoe3LA1ufy3qfO9Ptuuq8YFsBVt2xqvQnwk/qc3lUttceN+1Ye1PgG7QUxmEYJD8nw9IFPqOQbQiY0cTqTLosdEIpG5kTEKExN4xO1ccu0HTyvDweD4wYLWAWQp5C6CkDtmmxzZIi2fAoKuLxOE9v8Ppg0yZKENi/PZIAUzccbj8TqqrCYHxKJJNnsf+IdohCfPQ3+kl/Z3l0mgZVUlnoXyCKE+ag8kK0PPDoHki2hZTdDNOvI+pLcLonloIkQNQFCILENiW55OkSJ6Gt2Qy4hlMhdKspx/zpCw75qfDTTdm2Wa7XjXth3KyH3394WLSkJV0nkNY6d9vWfcgelIEygSYpp5DW+WUnDVg269THsyJsJwnKlR+t6E85mlSAkCvQydVWXlVFMqpBVkTImge+aAClWqm+Yco6RnXfFY4la5cMuOLpK5c0FTfyzSJhKmcs5JwjawMlDUV4bcwb5ccHj28SBKFNiL2fs5/rOeZ3131T72kQUkENCYOUfhx3G7EZKbzg2t3ypnVNGEBy6D9cdODunzN/0ry34yKHskhgxUJun/RofvQ0KuHZ5seCW5f1OClwzJb93R+Ic3vGv/4yfcX6lddtl7bBJPES4iDL5mgFMrkjwQEcbqoU2dpDKVJcuEGWFKQSnE6qMFqEFb9d3mmjWNmYZHfXdBmgOeL14bOXvLdsaNyrwRI0eCQZhql/qwAjPTFnSmJx1VM+bmyBX0PIgbqNpMDb5EH3SDk2TOlaXFjvtmwoqwt+qVx2T9XmhBKHEBAQjbdAUAUWOteIAinDY5XJ4MOATK49MQ00eW5eZpCZdtFEb1QZ6YHlE5cW/VD4YVOuj9vX64n0/jAclur5uwpre1EtDOItTJL6DSU5CbBNqq51tHNdoEn/JDqjzHwlhj6dr2NGMxkwZf2MziNcSJ5CSQESjuShqjCwSaFpVhxJ6T8qWF6okXQmRoVyfyzuXXQ45JlipkMR56ivwdIB2cM3XjThueczrWZn8Ui/j03hNA88hsp5QGUdCTsFk0i36b6OcqkqqgyoCoqwE9AkEm/WN9yZJTPyzfK6nD84vxdkrrIiQUCoOYw/DHhw6PBeQ+bua1u15fnXrLxmzqKvFw1p8Dekq+FJ6YmFAzPzvp0gSZpk3tmAsSZ2PlMmihfLgi0TkbUCJe7FoJMuWTrzVzOyktSserF6+apPV/VLeZLQRS712TaH+zGtvHS7imBkrhpETyXKkJMyiu1SjL1k3KAbux94FEbfZcN5Hyy8eOzLNy6tK6zjqSLu97eBR5Oe2z1agZeveLqyT/DH29qiLdfYa3oMurN6Y62/TtDUJDSJJGIlql7kCbWwGYc+kT1Q0TSN1R2OA8czyeavjKwVl7knPW85QNPpNjLb2wowGNAUIBkqwokgFt44/5CzhbP326Zxd/Z8yn6q+9X3jdnc4KlBkvLwbZrHnLPZz4xvd+YtRr3nGIp5f+kXzjVMkpMjBidPlU/IqiJDixoM2LO6WpkbTFQBX4sXPZt7wbvVZ7z/5/dcfbW26AKd7h5dBmiOfGXwnGVrVwxp9nByWMmWIVg6bMmphmMDJ4MzK92PuAkoB4/VNlgUHgXMtNKFgEAihIrmbvh88oEnGbg3Pe7KVdfd9dT6leMb1AamqqQJKR4ypII6B7TQ+CDBF1JkJMpNyr9hg4rtBrNMo8vcEWZUOLIBK3JPcnlDBZZPXlp4snBy8958S3ucc+Rtx9hby7YgKkXg9/kQb05ADcrQmSeRP9HdpLApikImzjfs5HFyc7qcfpY+b1ej8LtMmnl+lqZvbSdOxuwm+XMdYKbjThXz9D2tvBs7A0o+4bI1xpF2I/80o/twXYFOhjyRefP9BfEscjsx7KkDFcke2HZT24cQ97VPXLP6mjnzP58/pNnfzBcNoqIyRYew2uRUVRmVpenCCKct+AaCG0yyKZfXAAFqwZDhIwnKH/RbMufXMwfu63vR+dWvDFm+4uNl/Qy/Do24R52q72zuxTuucyUBEVfxKrN/OVrlVAxHnnDaL7H2chQ56Req5kNhNIRbqiZcdsOh1x6QFEbfZb95nyy86MZnrl9RV1jPd3GiANHgSjnpSuwsG4DMWNZUjuever7bD4M/bBCEXek27v3N19jv9Xjs1cfuXvXBkkFRfyMnWGfjmhOoszJoop6iRc6RU2VpPul5xJVmdCjbWI7yjmgTm9/cDTKdIkqwU0RlJUEQRaR0HarIc5ErE+X2hknrd05S3/tPafcz37Xf7X7ufb/evN1TD5vojkTJSR+ghMpMpSui5qY5kb7dZJzIJvGwsfWLOwbY4YTM+ZhyJ4NdfIYzvigo5jWAkmQJxp87ZcBVx4xZ1u4fvZ8e0IWAZtWcFWtXDGn08GILiRZKcuWIzsLAvtSZTMmNswugyflW+c6GSGlZh7EF+JMhVDZ1XaC5xl7jW/jaigmL/r5gUqo4gbgcY8UZWiIFqALj2qT5iUWKiX6MdsFQYBHq5Agru+7rAk3nFu6M5NJt+JJBlDd0wxOTFxX8VNh/BQU3vjD2sTn/nTMqEmxm1YrekBfJSBKK4ngu3dmXWYGvwPwbnD6UCdJcDygpCjnntJlTKrtWyO0qZ/Pm4i6SWaQEefpMJlUnOy5QtmGRIBGRM/1VSDHQwjywRAFiBFDe3N34cuKG/b6zv+bZa+bO+2zu4IjfoTW1BKiGzKYDk+hgCCC3Bpok0+dyKzLOVI7GdgBNC5IhwZMqxEV9Lnxi7hmPX5qN4S978bLlK9et7JfyJvg75DD80s/nyN9ZLHeh4c2IthUYmg5JEWEQIGWOGxFCVEWlUI5grdf6dPqnuWbsZmOSdr9m7qdz+9709NgnM4EmFbjQ8KbNVC6pI7IgobSpDM+Nfo6AZr0gpIXE9/m71sTX9Jj31pJ7Vvz36ctqhS8hFTMhI6ePuECTZCVtyM6ukvaFO+Yf6gMZcmjsVcwdFeZp7JTh/TNs+MMBxBtiUPwyjKQFb8KHw3CY/cBv7+95hnDGfg+Xf5chj5nY22gsbJQ0H5AQDSQpc0Fls5djPL6Bll1JYZEXOZkU1WL4gBcBZXU4GzZ/Aji08Rj8dsDES0YcU33A0oB9lw26DNAc8VrVnOUfrhjS4uEDX6aYgJ3h0WRWcOTu2NbE6R+O54EWCRdotvZodnWgSZZZY2/0SdjiP+8PF9Y1Bhugp1Lco0lOKQrdpvelqhNv1TlIyDK9Zccix73MO4XNnXWPvD8ENBdMnhf+hfCL/Upm/mDdHwffOve2uZFwHDZ0lu7kkURolAfpegIzAOdOQDNzBGaE2t0o8gENNPlsm24/gX04AU3Ho5mZ/8RcISr9hXsC6J+k3GYpKIiXYPzFEwde33vMfpfjHLP66nlzv5hXzYCm69E09uDRtHhonYMPB2gypxEnhSYaIA40w+j7g36L5v06OzWo6/59/YpH/vrIRULYhM7yY7Nf59xu2drllA79uxtB2oBrAoK+MCLNESgBFYaagpwSUdpSgXOOP3vuzN/MHJrVYnsAXDR33dwLblo9dhUDmkzWCxB118NF4z9LoEHfrgGHmodi6cilFT8N/nR7LuY4/rcnGA0FUanB2wgrSIT+BnTdia64sluOBy4dKncQAHH6Chbp03OZSUjOBjFzk8wUzQQINj+PDovl5ZCCBSftLxJKUdxUhM8ndY7Cn72156C/DZq39M2l1WqlipgZ4ylSHgWiQUFyk9V6sLGWQefE54a9fcIuznNyfSlyH6otRbl1COS4qv954ozyXxYe35jDnTvdpV0GaA57rWrOio9WDIkpBkzBhEKDwaYOYmZMxm54iCZnZ3LIAJrMAcVyNDPUDw4Cj2ZmrxzxwqjfrV739Lh61EEJibBSBogiio0vRYEoeGFpcYYwKcmZgEK2Gzr+XM6hyOZql9Q8DTT9qKivwKzbHg+dKpwa3d+j57C7D7M3hbfDEBM8jEIgO9P/5oZOMl/U9Wq2WovapJhqfxvErVJllfQZoSYCVwQnWUK8k9Pm2oa5MV09O15TFYyHUNFYjk+ndY7UlG8DTUA2pO8One8D0LzouH4L554+syqb5hv56qgli95bNEBTYpCDArQ0kMjmbjyCwz3MzvVsD+4UhNB2gaIXUcAf9EJPkYwmZ1oQVRNqs4yqH1bPffSMx7osyCSrzFk3//yxq298qr6gnoXKOdAkwCXmHjq3Be7RHPdc2cnCyXXZtSJAPLdX/G70xs1CDawCHSm0sJxAaj+Wfwhe9Odu8NJzthO1o5xKWvv4HGxwRgPXa8820NzJxyQXIXN8JRDbBnHE2oAio8AqhG+rH7deeuvFVx85anm237K/rjvqd73tL4UvYRUAtqzC0jWWO04LVJpn1M0hyiiEynr9I3OTsyYBFJglUCIeFBhhfN7BZPYdYe8uAzSHkkfzo5VDknKSAU2ZeVVMHgJ3kvTJ2+Lml9DCyAcLZ1h1i4FosKVDY2yAOaHz5lJ8fusXXcZeu+tcHzR9UPTwy49OXPn1ipuagw0QFBGaqcGkSmtBgqAQgKe8FF7ZzI6sN/QEMnmuk7s1zMxb9KU6F9A8cmxvc0uvBjHmayFNCJZSYDCNylZ2aA04XQ+6A6B3sn3WtuuI6WFPz3BiP8xDueNDGIhmYJP/Pu11Y6HenYsIPCkPKlLdMOWc2wYMO2Zkp8hRGrN6zLy5X8zJ8GhSqqnEqvDJe7WTnKjT1rwA/NseTdY5SEmGeTRpLilE3+MuWjD39Mer92TdXf192hd3jvrDM/c9ZqhRtOgpVlSQi1OldYExtZVLc8M3gMS0QFKFnE+UvFmq4UWJVQDPdsX68s6vumS4PNP289fNP//Gp298ijyaRPLt6rrzNKvcBjDdoy2A5qjXL1+87L8rBjarEYh+G2bSgKo6Coug3EMK9dK7O57K9NxN658MkXKQWdELl1KkYth0eog7x6cTqndsFlVVgdako0AohFrvx/ThvxtwRa/BnWIc7+v4+tkNJ6e2dtumbvPUMvWgJFHOuHO76+bPKABKr3vZdgGWiwP4QgEm3s/IAAAgAElEQVSkWgzGPxvSglgxdkn3U4RTtu7r+3fm87sMcBry+pDZyz9aPjQlkfayCYn4Dm07XdRDNQnMW+kWH7jyiZk5Zo5nLZ3sfxACzczOWnBn2G72RFhFtCr5WPWsQVWLCinlEPemU0yd5UBj3pS0eo5TdJIBxvwpLysGmjV5dqfwaP7T/mfPgQ8M3PiNvJmHjMib2Vo9ybVFK8kJpnyTOUnlDNI7w7TSCmhmhnHdSk1nNk4TPmfMOBRVlxtUTK+ePuTmnjfP6wxfRO9AQHPe5/OqmwNuMRABTfL8EU7OkBJ1vEHuguNuVtNSfLxa4FtAs99xFy2YnSXQHPnaFUuWfbB0QFJsguWhrXTbAE3X9rwwhDaAVEwpMklo09ZgqTZsjbq8inCyAGceedashefOG9FZ2qw932P+p/MvHLtq7MqaotodQNORtc4F5LN3dkLny0cur/xxllXntzwz4dHHP5hzRY1vG+RuCox4ishxwXASo+91gSa9tLMxdscqbQhpDmb8l7TF4EmdbtFXOo0is6YhM0pDynl6ACWxbvZXk74U/xX5pOQn4e/vFyq6tuoDFbd1s1sKmxD3aYTB2SEaChsPtpRqVaWf41PJZ0NriIdVIEONSejZ0gNP3fBUxXHB43JKpcjxzdr08i4ENIfOXv7RiqEpOcpc+cRZRVq0liMRRKz83waari5rRo6ZS9/gJi7ZVHUeQGVzN3w2uet7NDN71w0v3fDI4vVLrtxub4NH9kCSbcSSSTZ5EdEwVV3T7j7byTYTaO6ko+u8hAs0509esN9zNF27DH9myKJl7624VChXEDGbeey39ZGxmyGPLcPOmRWqbu6b6ynIEqi36UyQ1c04IOGeS150lz4ciTpKoqeFixEjtwrFeTQFPY2e+Py6LzvVPDTm6evnzftibnWzvzFdXb1LeiPWfjtePU2RxoqG3PoaGiC8eEbWBQQTheh7fPZAc9Qbo5cufGfhxUIogSSxauQw/nZiRHD7Iov+CBApx52+g5gHSP5FtOGxJQRiQfzm2LNmLf7NEwcFyCQbUNX5zU/fuKK2sBYmjXdqW5dsI8exy4uBuuG50c92Oyl0Um02w/DEySeZG8KfiYmSJCziaAxwkMmi5o4X0hZknsriAk2377pIKiN3k+FIh87IgsR4e9O5mxlAlUglwqkgCltKMKn/rX1/dtTPXukj9NnvKU7Z2DDzGiK673ZHgRUriyHOIlYCRFN1KKAISBAbB294TnSf/aGoPujJRFoIgyInBdtDmF39+AUXHNrv6ezv3Lmu7FQTfC6mGfzGsMeffH/VcE1pYlxeAlO22cEsTuODoh5MFou8nSxfxXliRjEK9R+2NtIuwwEMoXgA5ZGDD2iSdQY/N/TBVz97bcyWxEZ4CyVYtkHUjZAlCbphMk7GbAcaW4udnJc00W9GjwwkvOjWWI7Fk5fs16rzzH75tv3XQ6qnDf+mprAJjVIjQItwJnB0T3b6zo7UAPpDBlVQZrg9x8Uql3GT27W7AJoZoSZakznQBHR550pt0RQQToRQWluCz+7sXEDzuqdumD/vi7lVjYGGNH1QmrDdBZGO4XjOmssbyon7mRMz3SfIpcTBCQHNULwQFx3Xb8HjZ8zMKnQ+6KWRS576aPkAw9+CFCk35UJv1LrfMoDJU1ncjZFJDB4CyQgCgaQPRc2F1hfTNnb5cHnmuFi0dtGAsatvXFJTWAeDPBb09ZmsbjmMX5JxLWsuw0tXvVh+QuiEmmzGY69Jve268jqQ+k+69sBZ79z7Ee0YqZqxhkzPUTzfkudu7silZmQRzDGjON5QYmGhvzvn0VUm4Nc8KGwqxK1DpvYbddiVT2bz7p31mhtfuWbuwn8tGtwSMpCSiUOfo29KJeE0YA48cKnssv0QykCjQirqT84GwV/nxcMXP3TJ0MNHdJkK9C4DNEe8PnrGiveXj2wWaiESGy2plhC5rkOQykIDzu6OV1A7eSasx+yi6tkBmiIkhGJBVLaUY92tB4dc1K7GTOiusB0Nt0CWBKaQo6oydDNHjybheUGETqTjpJ5AvZHayPEYBFM+VDZVYtaYucW/LPxlp6rCO/T3PexaTz0SJHfqV6HHNQheEZIqwYg7kznthJ0cVHfhTnNSdhGgyfK7HI8mqyJPc1TxcDMRlhtEOh+UobHKMY7UvJoHJbEi3DFgStXQIy5fmO083R7XjV01du6MDTMGNxc4oXPqpxnsCjsYGNziCOe7HYUoBjSdKYb1ZyfDIGCrEOtVVP9k8IKHT304K6A57PXRTyz775JLUoFm6C7lYrZAx818oHeVZSDFhKtBLWrYOi/2Y6BDQkm8FBef1H/2n//voeHk8dkfGvTt0dZ7c8+F7z8xcMKL4xd/rXwFoVCGTa48znueJvTfm/vs8hwD6JnoiWeueqbnif4TN2dzn973HGlv8WxEypdkHJ8slOeGxl1+W5McLDIsNwLjeixZH3AKf1xuVFo2qfiNuDdFGrcaBJ8N2zIgGDaUJFCulgBbBHvj9Drxk8gnJd8/wMPlu7N777uPsTfLmyEETaT0OCRSYjNsyB4JBtH75cIS6qwBNPSMFCAGRFhJCwHNhyO3H4X3pr3fZfBZl/iQDfaG8B2r77nnuc+fuyLi2Y6UYvCNHf1H3Dw021t2K/UDd1R9N9CkCaXYLIR/kw+b7t3aJeyVzWT2g7tPjG/zbfXFhBboEumi6zl5M913IBJ4IoBPVzhSvIfwiAGEEh4cluiNDyes63R2P3LyYfb2QB1QICBixCBIFu9zxPVLi5FhMxURNz2AA02H4DlDpq1NeBCzadA2uYYXEtAOX7K5dy0TaJK3z0t8q5aFpGBAVAVYug3V9KIgEUZJpMhed/unuUzVbfIVrW/y2CePD739lcmzN9mbAR//Kyv2yVRzclwaaeJ69hVc4zkNNAXScQ9Ai8X4vrYFKDVLmUfzL7/5S3ZA89WrFj35wfJLI2oNbFdQIRegSRvxFhsIEg0TgKQJr9/L1NU0jWRQBYQSYfQ95qKZj581u0tol+9rp3kn9k7l+feev6WupB5W0IIR0yH4aGkRmL57tsWQ1HeIuaJHogc2jd2U9RxXeWcPuzFYh6SaYqplNrECyBS1c3ZHJBDB6DCV9PjkNQsUAqbUQHNHrjn1JXLKsJxEyvcg3lQC1ixBFyVyGHaNiaJEIaYOm3Jx1eEHXnX5vrT/q/aaHoOnV21qCNZAKgKiLVEIhL8Vkv7NYGvYl5u65zoiKEaCV5+TU8xWbKAOOC75A3x460dZ94lsXqc9r+kSH7LF3uKf9tSdv1vx4dIxsZJGxFRHmk1WAcNJOMkgnk1Xm7u7PkIIjiVY0QZZ3PFoqraKQNSPXvGeeG9S12n4bDrVU/ZL3YfeN3Rz1N8M3YozmUpdz0GalwqQydiuFDjNix4JSJiQBQHBqB+FW4vw1e+zn4Sz+c49XUMenfs/uPuSWa89vvhrfSsSnhQ8QQ9ToYrHEyAmEQKcTDjJ4V3jRU9caSddFJTuf3t6Ymf9u+sSI6DpFMm4QVWHc8+K2SgsCaFJawHiYAIA3aQKeLco+GbqN51y/pm3fuHQ65ZfOzvWLQrNJtfV7oCmsOO7He1ntoA7oXTW9C2AVOaBGUshJHjgj4TR99i+cx89NztKoGtev2nOvLfnDonQJodkS11C7my6CL2zKLPQuJlIQPLKkBSJCzWIpFqioiAawHknnP/4zN/MHZnNI7rCNeti67qf+6fzN2/yb4QdtpFKJfn6QFOfo3mezXcS0CTbh7eGUT+lPuuxUHl7DztWHEFMikKEhyk4iaoIk8jHndQKDjQlWKS2QQTklAFgk863I0DgFjU6QJNorNg6SN5by4a3UIVWryHU5MfkYZOrb+o+fkE233wgXvOm/W73/neeu7nOtx1KSEESyR3qWDnQ+7GmsXhhrWx5EItx7uoSTxEC68P45p6vs+4Tnc3OXeZD/vLxzHPue/ruZ7YVbEIECT7AVA+fDMg9RuEBp0CBfsOUO3YLNDPEX1NAUbIAFU1l+GR65+D525+daLX9ao+quy/bZIdMRIwGiB6ir8nSpUL2J3BJkxxVcBM4o9BP0kZQ9cLTqKJnS0+8P/3jTtlPhzx52YxXvnhjZCqsoy5Sy8L/ckCBThXp9F0MW7rhc+6440Azo/Iz2wTX/dkJMp/t0IMR0KSDCQO5hyXABwWJuAZPqQwtacBvB+Ft8OHm824ePq7Pb2d3ls/IfI8lXy4ZMnLOqDmpHkloTNydiznweSPjTAIKLsBuBTTJGpSnqQYD0KIxNvd4UxK66RUY32/i0Kt6X5WVnvs9n9w/9E8vPDC7xrMFKYVUXnKjFwNJKcoKVFGApiWYV16UBSgGbbB9qPrxpY8/+H+PHLQgk1r7vfh7PS68u++mmqIaxMUYBD+fpihzKL2GZNGRGdC0JXRr6obNt2zJeo47bEovu6G4DjElDtlWWGoTZAmm6FQEOdFxRltFxJq2yICmYnGgSfnxmekgfKJyBjKtmzQvm0BY86M8XoENBwHNX+vmfMl+qfuIe0ds3mxtglBEMtWc7iuXwwWaVK8sWwoESQE8FjxRH/p97+LZM89+bHgu9+9M12bduTvTR9C7LP98+dk3P3b9s1vKtiJZQKEAGUgYEEUPBGI7dFwNFNpim7aMqnI2u2bmzDmLBm1bZENEmV6Mwm0F+OSuPNAkW58w4SfRGt/WQCIcRVRpgZGZYL4PHcMtzGUyaV7S/eSVWKQJXSB5IdcIGP6zEbPvOeP+Tjng5n82+8JbFkxe2ehrhE2A22PAkHU+0XMlRp4GwOhiqMjCJXh24rBuTuo+2KxTnUrv72zWMqvLHR4gtqD5FQ9SqQSoqIQVxERk9MIR+Hzsp5127iEN5PPvO3/zFu9WWLQBYosKz+PeATQ5/65scU+uC7Bdj6YLNBk/EFXP2UDY9iPYHMKUQVMGX95r9Pxs2nLhlsXV42aMnddQXI+4J5njYidAEFXYsRQCfj+SqTjLMZY1Bb5YAAN/OnDWQ7966KCpLv+u9vje5KPslu4tqNG3w1YsBjSJQoimrGwBB+Ph1GwcljwUX92cnXf/ncg7pdc+ck3Nu+J/hWQoxfJraR8rCiqTy2XE6+48Q+9KElUO0OQeTV5BzUj63RHJxrWTEmACJUoYQoOAEr0MY/uOHTjq2Cv3u3pXNmMn12vetN/sfvHvB25u9DdCEYlbVoNONnbVN/bxATSfKIT7DYA0UDyKF4alIdASwNDjhz304HkPXrOPt+y0p3fayT4bi133whWPLf58yagaTxMECpvrAhSNu800hXTPnaR+wjOu54UlzrEtnPNIx9Pp/EvRJISiPlz6o0tnXXr64Ov3txRiNnZpj2test/sPmzqwE2NxQ1C3EMx0X0/3IFGapdcYpc4cGR4LQVKykal0Q2PjJ3Z8zThtKyS5Pf9jfbtijftN0P1qA9d9+j1m5u0RiSEGFKKDskvwqTCivTmxa3mbQU0M7vdvj26c5zdCmjSfEsCCXzBcgaYZkJSiQGCKMeAwlQJPF97ra33bO7UlcvdpnWzm8paoFH4cbdAU4Rs8YWazScCn19oM0t7J4qaWIoCaBpjaQhqXvjq/Ng6pTbrefdv9t8qq28ZuCXWI44GqYkPmRx6g6QoMFMGoNsIe4KwkxZ8cR/6/2TA4w8f5J7MTLOOevXyeYveWVRtF9rQhCSMlMny6ui/bO1PQNMve6F+5UHD9Kas+sSG+g3hB9+4/4HHv5o9NF7AFcuYLjfxiQkCNEojy9zQMgeLkFaYdEGmKyu5EwWSBSgxoCAVwi1VE4fc1HN8p+G6zaHLZ32pbS+VBGGA2f2uQ22SYI1YERgBI2tHC5slBQFmwobq88LULQRUHwJ1Xqwe/2z3k4WTuwxpe1adO+uWaucL53/95wFXLb1xSUvIyU0xJPhMhWmVJj06WwBpg0eYksbhDs/L7oGm3/YiEPFiwA/6/2XsmZdd31s4NdnOn3HA3P5d+83up//hvM0NwewKwmnOY5tBx5lJaFOyPfAYMpSEjXNPPGv+wjOWDO7sBim8vci2vCZ0bwopOcW9YPRdbq4mOfMosZ77xBxqLWdjk2P4Zb/aJgNoqgbXftZdTWBnZlEVlYVkGe6kNBStCHdcdlf1VeVXduocr0Pv7mVv9m2G6XFyvB31sLTXxwkt7hFopmx4S8NI1kcQNLwoTZThq4kbc5p3r35+2JxVnz03ZBvIu5aDOg29BXncZWoeAUE9BG+Din7/c9Gsh898LO/JzBhcq+3VPap+P3gTRXBEHwl/GBBog+Hm9GcxEFmhoG7j8FRvbBibPcXX4vULLrvi+dELI8UtLFWMQrFiTGSh2JTK823TfhT3/52CaQ6SOU0Zz8ncwbVJrD5legGKIiX4eNLBxSH9Xc25xl7T45LJ1ZsSpUlE5DpoMs/j3veDL3yy1wNRkqC1xCHrEi77yaUz5/3vgi5VeJfThLfvhm3fK/5lv1Jy/vRL6qJlKaSIzNg24bEk2KKGlMJ5/BhNCXk006Fzx7HiVui5r2gLUA0Zfs2HcDSAuZMWlZ0qnJq1Fm37fvn+u/v3bz06URuu86aUFPPmaTQ7ZShH7ND0dqQHnVd1C69Nyn8OCkhRDIpSi2wfvHEVxckQJlVNvOTyXqM7NZfY2/bbFYNvq96cCGtig10HI6ghIaR4oQblB7t5mhZXWuFkv1zibSdPgyvNeKD9dPZoMstFpXFlw2SpJ/StlHdrAooIQbNQIhQjUBOwv56ysdNVmrceQcOfHz7zqY+fHhFX46C+vVNeLQuXEv2LU7lLXHoZKW1u6jflxImSB1ZMQ0gOwB/zou9JfWc9enpuIO5v9guVl0yv3hILJxFXkpzbcafju3YvGVO+k86gCjI8KRVSrYThvxw26w//92AeZO5iSq36a/XcZ/7zzGCK4Ag+CynNlXN0bJopNZvBhr9TZNWVZKW6R11BQaIA4y4YV33Tkb/NeuNF4fOzHz6ntqaYC8mICmDHAI8sIekSrLtdws1XYsV6rjeWp/awTZSzDpJXPpD0ori5EBMvufXiUcdcfcBpl7fnqkgFoYdNOcpqLKxF3BPjDgQnkXvnmgXeN9LrYGt1OJonabdi2vDLQXgiKqZV33bpNRXXPdGe79/R9+5SQJOM94L9t8phdwzcEpWbIYaBlBAjxg6IAYDR+FE4wCtCj1pMx5uSp3UisSKqEBqEpCzoBYQY4I35UJwoxrxbF3ePItpwtnB2tluXjm7XDn0e7fAGTare2FIWEyLBRmiEHily44QRKQXWJJopthjzoizFFdig/DbKU2EV54AclxFqKMDyW5Z22pB5a+O+3/J+t0f+MevuZ997emiztBWaPwnd4xQLUEqAqUDUZMbtbgsmTFlnkn5sLXJyOBk3EAvRtvrJSvIN/nuuY7mDbJSoaQig0+93dT39nvIDCeiRwgfdh65njF+UMkL5W9RQu3jud70Pnc+utyEIJLZtMG5BmW5FbU1/Zu5qh58xJqJSK4V/s4rP7/3qgJlzHtvySPW0hdPmbZO2www7ykfUTyk/L8kXZ1MxuXy7k2tF7ekrVJGIkGtJhEr8SBEBhakwzv3hWfNnnfV4zh562lAPmTSmLlIQQ7OvGSlPEkYyBagKZEWEaRuwNROih+cAKh4FlmHATJL3RIFBpa4ktqDIkAURUouAslQxzj/+vNkPndN1ChDaYxLsOeVQO1LagojayCMWjE9Tgcz4c5OAR4QgCLCTJhSPl407QyOnh83SI0XJhG5w3uDiWAj3XfDHIUN7jcgpJG3btvga/lHZ754LNzV5aoBCp8iS5l+i1STKNVmBIEvQNeLaBFQfoEV4nqkoENetxdY9KnDyWiK8ST9uHnRL9fjyiQs+tz8vOEI4ork97Hkg35PWvcF3D9m0TdkOWzagyyYrriJe5SSp/VD2lMSp7hRJhmUZjNtbCQrQiRrJjarSfBJVUaoVoailwP50yvpOvxHf13Y7YCb9ffmwH9x6vBUNRoQGuQZJXxymjy9+DPyQUAdFej0iS76lQgUm50E7PgKbtD4IgDeqolgrRUlLKf57xwdd0k77YtO9ObfH1EPs7YHtzKvHmKU0YrMh4CRDI2F0VQF0DYRNGKCXWPoatzvhLgEIRILokazEpxM3HFA2n7N+fr+b//Lb5erhFraaNTDpG4POQmRJUHQVqi3BEnXoogbDBZpMrPo75hWnmpvsL4h8ESNeyrQCCPMoZniwyIiZh/tvOocVvVEBiFMBT/+me33X0fp+7rlERg8JkuWFZeswJZ5RwsC0q55DA4l265oPh0TKcdelk4dW9RqeVbX13vS/9jhn6Orqxa9ueHlgo68BUVODHASMJKAIEmRZZaCOPBgGK0EGFA+g1wJyuRdG1IAcVVGOMvQ7ud/CB0/9Q1VbvOP79vuBNev/dd7dC3+/uDa8DUbIgGXaECQBWiIOMUBEfxasFC8EYTmyGucRVqg4i3bcAhGzSxDjIsrtUpxx1Glzrj/7yvHHCT/tMvrKbWHr1vc4ftKJ9pbQFtQFCNCJQIygJImDaMxxoSgytLgGX4EficY435SoHkeFVIBXkZGKJ6AqEgJbA6id2thm89wPph5vbw1uQcRbB53mHwKUtBdNARZRIFBVM3FisvA4/zLm4KRoBJUDEeWRLsGfDKAkWYL1t2Ufzm8P23fGe5Jns8dd3S3bb6PZbEZSTrJoFcvTZxs6PgcKtgRFkWBQpFWi4isndY/6h6WgMBaGZ7uCO0fcfumw713epbyZ7qd2xvbL+p3W2Gt8H37y8W+mL7zryXhJSmjyNsAU+IAHKQbFaVepIKwWoKm2Dih2XG+0wVAUCMSMFJVQbpdDrlMxofrWc0YdO/i5rF/oILrwx9N+lNqmbFebvE3QPDqSVsohzSdw42G7eo/HA81IwCbPpmVBYqBTgMf0wxvzo7AphIt/cvFDd5939wFXcTfmldEzFr+3eGRjsIltbljSEwOSXCVHoqpzk8piwEKthC+ZkMd3LTWtcWBGXiTdW1Q5fnSxZiaupOcSmwnDkq5CzW5w6O66qYNN2Z/TIghOXi0jKydEzYjaeVsT3zCLmDMWFQHwqECzgPLGAmyftL3NFtWOHFZ9Jh5lE7NA1BuB5tehSRQmc9o2CQgqMVvoEESq4iWRHRFG0kbADKMoXoTiaBgfTGv7zepVr90w84l3F4xolhvhkT0wTROyT4EOHZqVhOB12ow2cwY1hYIUqVZRTmZYgdlkoCTeDcXxQjw85c+FvxZ+nfda7aFjzf9i/uDxM8bPjRcnEFejLFJG9F1+j8DmN4qeqX4gRZRANLc5PKei6oUVNYG4giK5EHajhsNxmP3ulHfaxHtFhSpzP2wa+MdlDyyokWvREohB85tImeRldYmKRYgiedZMvgH0Utm8kz+dAIqkUoh1tPaV4YZ+1118+rGnP9Nb6J2vSdhDnzhm8tF6TGiWtYDOHFuaT0MiYnLPssNLyiTTRbY1h2naIIU4QRcREgOw6nWUocy+8Gd9Z9x/+v1XdOTc1lHPOiAn/j0ZZ529LnSMcEzL4bd/32gsaJZi3hZoUpTH9Siqq6owWwyoPg80l3OTJoaUAJ8ZRJFVgpsG3DTwpt5jlqy11wb7CH2ie3pm/u87LNBzcg/TLIfYgCbopNJEGrGEK5M6RK8Cy+SLHTs0IGD5EUoVwdfotxfeOfeQnws/75RV5nvTxqV3lNjxcg1xkoGhzQuBSfp2LgvEGHqpG7KQlvur77gxS3fkUWoGGBnPITmJnd/tzTvRdYyb21nSSDmN7TL34h7u8zOfkwlsbUuCQJ5LyWBtrDhsKpSnqTui3wVqGXwbRWy7PXuuwL35zvY8Z+aWR6rvfPyOeQ2kb18moMmIQvKrkG0/UglCchQKMSErgBGzEbKC8Ed8uOhH/ec9cuYjQ9rz3Q75Y6Uds5PQxRRa9DhEv8ilBjMhjMFVJmUaeKaNVMJEqViGC4/v/3j1ry699RThlC5T4dqetnbvffSUo+yIP4KIvwmmx0AyasBHWSQiQI5klqOdSeZuiECTgAr1EPz6xNPnVZ8y9JYzhF9saY93XWO/2mPwvVdt2i7VIxVMsWIVgZS7KF9aUCDRpoRSbmyNWPkhkSRsLAC10YfDle/hPxPfEj5o+qDo+MLjs6vybI+POgDuOeTFSxe8uvaVQRGlGQlVY4WRbKNB4mk01zrkLOToEkURQSuAcCRAEtfG2qmfUAlplz26JNB0W+tt+/WKmS/OnbTq/WeubvRFoPtJv1eG1aTD61dgJAwIshfQRQTEAAKaH6i3ceH/XvDQQ2d1HQ6rju69szbMumDKwttX1nubhKQ/BsFrMTlGWRKhUw6DjwI1PBO9SCuGt96LwnipPeOOOT1/IZzULpNvR9ng6DuOtrZ6aoSYPwFTTkHRme+We8DcwnM3zZKiWHvwZxBIdIGlCzRd8Ec/XdJo9z6Znk36HYHKzPNdwOoCz8yo+65s5IJK9zz3XehchlfpW9xcI/LmaJzex6biAiiQpSAbU9U/ueTRq3992YTjhc6lWb8v/WLWZzMu+d38O59o9rWgWW6GHZKQSiSBsI97hhwvJzFVFDUFcOugCdVXHnJT1kUee/NuG+znPM9/9nH/Pyy7b0GdXAezWIBGJNzUOMTnagBqsQRNM0F7alrN5BYBFWJPXNP3+oE3fe+mg5ITcW9su7tzKCfy7/h7yYIX501d/OHS0bFQgslRyqKARDwFf4Dn7MbIt+HneM4TV1BmlqKwMYjHpv2p5OfCmQ25vMOerh319OiZL657eUQDS/loYCkflCavp3j6mEmsCZQ0augoEovhq/Hgwh/1nfXw2Xne1D3Zdnd/f4eoxyaP2LJd2galh4Lt0QbIRQKLbrCBR6kJsgBZkJFq0FFgBVDVZ+CcwWdfPvbH+HGjIDCdvC55dGmg6bbYw1/96dxbqBoAAAsnSURBVKy75/z+mZRfE2JmDD6PItgpnZZBaCkbxYFSJOqSOO+X5/35l8f/6uVLDx3wdJds7Q78qL/bfy9a+NfF41evefqmJGII+31CNBoVVMUrxPUElEI/9IQJtUm2pl9z5yWjKocf8FWN2+z3A89/9u//mzLzrqe0oCEoAQkWUfuQv4uFygVYos1CbJJOHkCL7Wz5wamPWv+0yQsKOk92QKnIksrpPH4p5W0yJmbGssDBKJclot/T9fRTECR2Hf2bFQCIMvu9Tl6OXTzXfQ+VQn6W8a370t9JHUOn7yGPNXQotgCPIUKi4ifBA0n2I540USQWmX+ceFdJVwjNztkw5/w317951r/Wr7lyW3Q7VK8XcTMByyMyRR1Rs+GLq5g0+ObqK3td364gM3M4UyX6mDtv3FQrNYgxKeUUKFFbC4jFWiDJNgp8IQgRARVKBX5x1P/7858ueHhMB04JXe5Ra+216ms1fzt1+ozpL1DOSMpIMgdGMhVjBXY0trWEgZJAKfwJH075/i8fvuKia6b8EJ81EB9jexvkT58/0u8fX7515j8+fnNkNFbL+oCl01hVYNoyZMULSRKRqE1Yq+5a1PMU4cy8VzvHRnk9+nrFyn8+OemZN1dfbQYMpEhbzKZCSQmKqCAejbECvMJwEU7t86sZfzlt1uU5PvKAuPygAJobN270bQ9sV31FPqmP0KdhXe2bIalUFt5975NfXPLDYSz/cm3zmuI+BT9v113mAdEj2vAl39/2fuCEihOI+4EdH9gfFJlNpi3KonpC6ISaNnxUp7nVli1b/N27d8+Owb7TfEX+RXZnAUr+Fziy73THhq0bylqCLTgpdFLtnz577Kx1X310Du1pVFsVfnBon1dHHjNsWad76QP8hVr3h2uX3fAHOeRVLMuyf3jscc/36XXMmpOFk/dL7ivNRXWVdR472qKcEPpfNt9+Yn9SYkUabVlQxaPDJ+fp+tqh//238b+FsiJ7jgsely6s+zD6YXnmv9vhsZ36lgcF0OzULZB/ubwF8hbIW6CNLfDC2heK67XIoYJt+L7f+/ufVKYq9YqKivSmr40fl7+dY4ENLRvKoCH1n48/7H3cL47+pI/QhxJ480feAge1BfJA86Bu/vzH5y2Qt0DeAnkL5C2Qt0DeAu1ngTzQbD/b5u+ct0DeAnkL5C2Qt0DeAnkLHNQWyAPNg7r58x+ft0DeAnkL5C2Qt0DeAnkLtJ8F8kCz/Wybv3PeAnkL5C2Qt0DeAnkL5C1wUFsgDzQP6ubPf3zeAnkL5C2Qt0DeAnkL5C3QfhbIA832s23+znkL5C2Qt0DeAnkL5C2Qt8BBbYE80Dyomz//8XkL5C2Qt0DeAnkL5C2Qt0D7WSAPNNvPtvk75y2Qt0DeAnkL5C2Qt0DeAge1BfJA86Bu/vzH5y2Qt0DeAnkL5C2Qt0DeAu1ngTzQbD/b5u+ct0DeAnkL5C2Qt0DeAnkLHNQWyAPNg7r58x+ft0DeAnkL5C2Qt8D/b7eOaQAAABCG+XeNil3UAAnlgQCBTsDR7GwlEyBAgAABAgSuBRzN6/mVJ0CAAAECBAh0Ao5mZyuZAAECBAgQIHAt4Ghez688AQIECBAgQKATcDQ7W8kECBAgQIAAgWsBR/N6fuUJECBAgAABAp2Ao9nZSiZAgAABAgQIXAs4mtfzK0+AAAECBAgQ6AQczc5WMgECBAgQIEDgWsDRvJ5feQIECBAgQIBAJ+BodraSCRAgQIAAAQLXAo7m9fzKEyBAgAABAgQ6AUezs5VMgAABAgQIELgWcDSv51eeAAECBAgQINAJOJqdrWQCBAgQIECAwLWAo3k9v/IECBAgQIAAgU7A0exsJRMgQIAAAQIErgUczev5lSdAgAABAgQIdAKOZmcrmQABAgQIECBwLeBoXs+vPAECBAgQIECgE3A0O1vJBAgQIECAAIFrAUfzen7lCRAgQIAAAQKdgKPZ2UomQIAAAQIECFwLOJrX8ytPgAABAgQIEOgEHM3OVjIBAgQIECBA4FrA0byeX3kCBAgQIECAQCfgaHa2kgkQIECAAAEC1wKO5vX8yhMgQIAAAQIEOgFHs7OVTIAAAQIECBC4FnA0r+dXngABAgQIECDQCTiana1kAgQIECBAgMC1gKN5Pb/yBAgQIECAAIFOwNHsbCUTIECAAAECBK4FHM3r+ZUnQIAAAQIECHQCjmZnK5kAAQIECBAgcC3gaF7PrzwBAgQIECBAoBNwNDtbyQQIECBAgACBawFH83p+5QkQIECAAAECnYCj2dlKJkCAAAECBAhcCzia1/MrT4AAAQIECBDoBBzNzlYyAQIECBAgQOBawNG8nl95AgQIECBAgEAn4Gh2tpIJECBAgAABAtcCjub1/MoTIECAAAECBDoBR7OzlUyAAAECBAgQuBZwNK/nV54AAQIECBAg0Ak4mp2tZAIECBAgQIDAtYCjeT2/8gQIECBAgACBTsDR7GwlEyBAgAABAgSuBRzN6/mVJ0CAAAECBAh0Ao5mZyuZAAECBAgQIHAt4Ghez688AQIECBAgQKATcDQ7W8kECBAgQIAAgWsBR/N6fuUJECBAgAABAp2Ao9nZSiZAgAABAgQIXAs4mtfzK0+AAAECBAgQ6AQczc5WMgECBAgQIEDgWsDRvJ5feQIECBAgQIBAJ+BodraSCRAgQIAAAQLXAo7m9fzKEyBAgAABAgQ6AUezs5VMgAABAgQIELgWcDSv51eeAAECBAgQINAJOJqdrWQCBAgQIECAwLWAo3k9v/IECBAgQIAAgU7A0exsJRMgQIAAAQIErgUczev5lSdAgAABAgQIdAKOZmcrmQABAgQIECBwLeBoXs+vPAECBAgQIECgE3A0O1vJBAgQIECAAIFrAUfzen7lCRAgQIAAAQKdgKPZ2UomQIAAAQIECFwLOJrX8ytPgAABAgQIEOgEHM3OVjIBAgQIECBA4FrA0byeX3kCBAgQIECAQCfgaHa2kgkQIECAAAEC1wKO5vX8yhMgQIAAAQIEOgFHs7OVTIAAAQIECBC4FnA0r+dXngABAgQIECDQCTiana1kAgQIECBAgMC1gKN5Pb/yBAgQIECAAIFOwNHsbCUTIECAAAECBK4FHM3r+ZUnQIAAAQIECHQCjmZnK5kAAQIECBAgcC3gaF7PrzwBAgQIECBAoBNwNDtbyQQIECBAgACBawFH83p+5QkQIECAAAECnYCj2dlKJkCAAAECBAhcCzia1/MrT4AAAQIECBDoBBzNzlYyAQIECBAgQOBawNG8nl95AgQIECBAgEAn4Gh2tpIJECBAgAABAtcCjub1/MoTIECAAAECBDoBR7OzlUyAAAECBAgQuBZwNK/nV54AAQIECBAg0Ak4mp2tZAIECBAgQIDAtYCjeT2/8gQIECBAgACBTsDR7GwlEyBAgAABAgSuBRzN6/mVJ0CAAAECBAh0Ao5mZyuZAAECBAgQIHAt4Ghez688AQIECBAgQKATcDQ7W8kECBAgQIAAgWsBR/N6fuUJECBAgAABAp2Ao9nZSiZAgAABAgQIXAs4mtfzK0+AAAECBAgQ6AQczc5WMgECBAgQIEDgWsDRvJ5feQIECBAgQIBAJ+BodraSCRAgQIAAAQLXAo7m9fzKEyBAgAABAgQ6AUezs5VMgAABAgQIELgWcDSv51eeAAECBAgQINAJOJqdrWQCBAgQIECAwLWAo3k9v/IECBAgQIAAgU7A0exsJRMgQIAAAQIErgUczev5lSdAgAABAgQIdAKOZmcrmQABAgQIECBwLeBoXs+vPAECBAgQIECgExgN/s1EwJUs3wAAAABJRU5ErkJggg==;shadow=0;" vertex="1" parent="wN92c6FpwxX0wYjV1YP4-6">
          <mxGeometry y="20" width="88.8" height="50" as="geometry" />
        </mxCell>
        <mxCell id="wN92c6FpwxX0wYjV1YP4-7" value="BlogFront" style="rounded=1;whiteSpace=wrap;html=1;" vertex="1" parent="1">
          <mxGeometry x="-510" y="210" width="120" height="60" as="geometry" />
        </mxCell>
        <mxCell id="wN92c6FpwxX0wYjV1YP4-8" value="BlogAdmin" style="rounded=1;whiteSpace=wrap;html=1;" vertex="1" parent="1">
          <mxGeometry x="-510" y="400" width="120" height="60" as="geometry" />
        </mxCell>
        <mxCell id="wN92c6FpwxX0wYjV1YP4-14" style="rounded=0;orthogonalLoop=1;jettySize=auto;html=1;exitX=0;exitY=1;exitDx=0;exitDy=0;entryX=1;entryY=0;entryDx=0;entryDy=0;startArrow=classic;startFill=1;" edge="1" parent="1" source="wN92c6FpwxX0wYjV1YP4-9" target="wN92c6FpwxX0wYjV1YP4-8">
          <mxGeometry relative="1" as="geometry" />
        </mxCell>
        <mxCell id="wN92c6FpwxX0wYjV1YP4-15" style="rounded=0;orthogonalLoop=1;jettySize=auto;html=1;exitX=0;exitY=0;exitDx=0;exitDy=0;entryX=1;entryY=1;entryDx=0;entryDy=0;startArrow=classic;startFill=1;" edge="1" parent="1" source="wN92c6FpwxX0wYjV1YP4-9" target="wN92c6FpwxX0wYjV1YP4-7">
          <mxGeometry relative="1" as="geometry">
            <mxPoint x="-340" y="280" as="targetPoint" />
          </mxGeometry>
        </mxCell>
        <mxCell id="wN92c6FpwxX0wYjV1YP4-9" value="Backend" style="rounded=1;whiteSpace=wrap;html=1;" vertex="1" parent="1">
          <mxGeometry x="-310" y="305" width="120" height="60" as="geometry" />
        </mxCell>
        <mxCell id="wN92c6FpwxX0wYjV1YP4-12" style="rounded=0;orthogonalLoop=1;jettySize=auto;html=1;exitX=0;exitY=0;exitDx=0;exitDy=0;entryX=1.008;entryY=0.9;entryDx=0;entryDy=0;entryPerimeter=0;strokeColor=none;startArrow=classic;startFill=1;" edge="1" parent="1" source="wN92c6FpwxX0wYjV1YP4-9" target="wN92c6FpwxX0wYjV1YP4-7">
          <mxGeometry relative="1" as="geometry" />
        </mxCell>
        <mxCell id="wN92c6FpwxX0wYjV1YP4-17" style="rounded=0;orthogonalLoop=1;jettySize=auto;html=1;exitX=1;exitY=1;exitDx=0;exitDy=0;entryX=-0.025;entryY=0.117;entryDx=0;entryDy=0;entryPerimeter=0;startArrow=classic;startFill=1;" edge="1" parent="1" source="wN92c6FpwxX0wYjV1YP4-6" target="wN92c6FpwxX0wYjV1YP4-8">
          <mxGeometry relative="1" as="geometry" />
        </mxCell>
        <mxCell id="wN92c6FpwxX0wYjV1YP4-18" style="rounded=0;orthogonalLoop=1;jettySize=auto;html=1;exitX=1;exitY=0.25;exitDx=0;exitDy=0;entryX=0;entryY=0;entryDx=0;entryDy=27.5;entryPerimeter=0;" edge="1" parent="1" source="wN92c6FpwxX0wYjV1YP4-9" target="wN92c6FpwxX0wYjV1YP4-1">
          <mxGeometry relative="1" as="geometry" />
        </mxCell>
        <mxCell id="wN92c6FpwxX0wYjV1YP4-20" value="Postgres Database" style="text;html=1;align=center;verticalAlign=middle;whiteSpace=wrap;rounded=0;" vertex="1" parent="1">
          <mxGeometry x="-110" y="390" width="60" height="30" as="geometry" />
        </mxCell>
        <mxCell id="wN92c6FpwxX0wYjV1YP4-22" style="rounded=0;orthogonalLoop=1;jettySize=auto;html=1;entryX=0;entryY=0.5;entryDx=0;entryDy=0;" edge="1" parent="1" source="wN92c6FpwxX0wYjV1YP4-21" target="wN92c6FpwxX0wYjV1YP4-4">
          <mxGeometry relative="1" as="geometry" />
        </mxCell>
        <mxCell id="wN92c6FpwxX0wYjV1YP4-21" value="Admin" style="shape=umlActor;verticalLabelPosition=bottom;verticalAlign=top;html=1;outlineConnect=0;" vertex="1" parent="1">
          <mxGeometry x="-790" y="400" width="30" height="60" as="geometry" />
        </mxCell>
        <mxCell id="wN92c6FpwxX0wYjV1YP4-23" value="Viewer" style="shape=umlActor;verticalLabelPosition=bottom;verticalAlign=top;html=1;outlineConnect=0;" vertex="1" parent="1">
          <mxGeometry x="-790" y="290" width="30" height="60" as="geometry" />
        </mxCell>
      </root>
    </mxGraphModel>
  </diagram>
</mxfile>
